M48
INCH,TZ
T1C0.0157
T2C0.0276
T3C0.0315
T4C0.0354
T5C0.0394
T6C0.0409
T7C0.0433
T8C0.0472
T9C0.0630
%
G90
G05
T1
X22492Y-52705
X27305Y-50974
X35429Y-53350
X35551Y-54146
X38140Y-61102
X38809Y-60719
X39291Y-58543
X39370Y-57677
X39638Y-53417
X39705Y-51882
X39734Y-65778
X39902Y-57156
X40291Y-56209
X40303Y-42205
X40709Y-58268
X41390Y-45008
X41394Y-56452
X42022Y-53108
X48533Y-49144
X48740Y-57953
T2
X21367Y-63408
X21867Y-62908
X22367Y-63408
X20989Y-40000
X21489Y-40500
X21989Y-40000
T3
X34311Y-64917
X34311Y-66886
X49587Y-54114
X49587Y-58114
X43638Y-56173
X45606Y-56173
X43902Y-54287
X47902Y-54287
X46921Y-63594
X46921Y-67594
X26257Y-39000
X26257Y-40000
X26257Y-41000
X29721Y-39000
X29721Y-40000
X29721Y-41000
X32521Y-46500
X34489Y-46500
X26028Y-43579
X30028Y-43579
X34673Y-55260
X36642Y-55260
X22989Y-34500
X22989Y-36469
X13882Y-64949
X17882Y-64949
X33783Y-35552
X33783Y-37521
X20125Y-66537
X24125Y-66537
X38004Y-54319
X42004Y-54319
X49497Y-60742
X49497Y-64742
X32592Y-56387
X32592Y-60387
X32606Y-62500
X32606Y-66500
X41961Y-67087
X43929Y-67087
X31489Y-41000
X35489Y-41000
X32647Y-49941
X32647Y-53941
X26489Y-33000
X30489Y-33000
T4
X36417Y-67323
X37402Y-66323
X38386Y-67323
X46697Y-58642
X47697Y-57657
X47697Y-59626
X16031Y-59514
X16031Y-60514
T5
X21596Y-53884
X21596Y-54884
X21596Y-55884
X21596Y-57884
X23596Y-53884
X23596Y-54884
X23596Y-55884
X23596Y-57884
X20353Y-45755
X20353Y-47755
X20353Y-48755
X20353Y-49755
X22353Y-45755
X22353Y-47755
X22353Y-48755
X22353Y-49755
T6
X36989Y-34220
X36989Y-35220
X36989Y-36220
X36989Y-37220
X36989Y-38220
X36989Y-39220
X36989Y-40220
X36989Y-41220
X36989Y-42220
X36989Y-43220
X36989Y-44220
X36989Y-45220
X36989Y-46220
X36989Y-47220
X36989Y-48220
X36989Y-49220
X36989Y-50220
X36989Y-51220
X36989Y-52220
X46989Y-34220
X46989Y-35220
X46989Y-36220
X46989Y-37220
X46989Y-38220
X46989Y-39220
X46989Y-40220
X46989Y-41220
X46989Y-42220
X46989Y-43220
X46989Y-44220
X46989Y-45220
X46989Y-46220
X46989Y-47220
X46989Y-48220
X46989Y-49220
X46989Y-50220
X46989Y-51220
X46989Y-52220
T7
X19632Y-60433
X23632Y-60433
X18989Y-43000
X22989Y-43000
X26489Y-36000
X30489Y-36000
T8
X25883Y-57500
X25883Y-61240
X30095Y-57500
X30095Y-61240
X19489Y-53500
X19489Y-56260
X25883Y-48000
X25883Y-51740
X30095Y-48000
X30095Y-51740
X17186Y-36000
X18367Y-37850
X19548Y-36000
T9
X15717Y-41563
X15717Y-43531
X15717Y-45500
X15717Y-47469
X15717Y-49437
T0
M30
