G04 #@! TF.GenerationSoftware,KiCad,Pcbnew,5.1.6-c6e7f7d~87~ubuntu18.04.1*
G04 #@! TF.CreationDate,2020-07-18T23:18:46+02:00*
G04 #@! TF.ProjectId,interfonoRemoto,696e7465-7266-46f6-9e6f-52656d6f746f,A1*
G04 #@! TF.SameCoordinates,Original*
G04 #@! TF.FileFunction,Soldermask,Top*
G04 #@! TF.FilePolarity,Negative*
%FSLAX46Y46*%
G04 Gerber Fmt 4.6, Leading zero omitted, Abs format (unit mm)*
G04 Created by KiCad (PCBNEW 5.1.6-c6e7f7d~87~ubuntu18.04.1) date 2020-07-18 23:18:46*
%MOMM*%
%LPD*%
G01*
G04 APERTURE LIST*
%ADD10C,0.100000*%
G04 APERTURE END LIST*
D10*
G36*
X119428228Y-170871703D02*
G01*
X119583100Y-170935853D01*
X119722481Y-171028985D01*
X119841015Y-171147519D01*
X119934147Y-171286900D01*
X119998297Y-171441772D01*
X120031000Y-171606184D01*
X120031000Y-171773816D01*
X119998297Y-171938228D01*
X119934147Y-172093100D01*
X119841015Y-172232481D01*
X119722481Y-172351015D01*
X119583100Y-172444147D01*
X119428228Y-172508297D01*
X119263816Y-172541000D01*
X119096184Y-172541000D01*
X118931772Y-172508297D01*
X118776900Y-172444147D01*
X118637519Y-172351015D01*
X118518985Y-172232481D01*
X118425853Y-172093100D01*
X118361703Y-171938228D01*
X118329000Y-171773816D01*
X118329000Y-171606184D01*
X118361703Y-171441772D01*
X118425853Y-171286900D01*
X118518985Y-171147519D01*
X118637519Y-171028985D01*
X118776900Y-170935853D01*
X118931772Y-170871703D01*
X119096184Y-170839000D01*
X119263816Y-170839000D01*
X119428228Y-170871703D01*
G37*
G36*
X98451000Y-171951000D02*
G01*
X96549000Y-171951000D01*
X96549000Y-170049000D01*
X98451000Y-170049000D01*
X98451000Y-171951000D01*
G37*
G36*
X92777395Y-170085546D02*
G01*
X92950466Y-170157234D01*
X92950467Y-170157235D01*
X93106227Y-170261310D01*
X93238690Y-170393773D01*
X93238691Y-170393775D01*
X93342766Y-170549534D01*
X93414454Y-170722605D01*
X93451000Y-170906333D01*
X93451000Y-171093667D01*
X93414454Y-171277395D01*
X93342766Y-171450466D01*
X93342765Y-171450467D01*
X93238690Y-171606227D01*
X93106227Y-171738690D01*
X93053658Y-171773815D01*
X92950466Y-171842766D01*
X92777395Y-171914454D01*
X92593667Y-171951000D01*
X92406333Y-171951000D01*
X92222605Y-171914454D01*
X92049534Y-171842766D01*
X91946342Y-171773815D01*
X91893773Y-171738690D01*
X91761310Y-171606227D01*
X91657235Y-171450467D01*
X91657234Y-171450466D01*
X91585546Y-171277395D01*
X91549000Y-171093667D01*
X91549000Y-170906333D01*
X91585546Y-170722605D01*
X91657234Y-170549534D01*
X91761309Y-170393775D01*
X91761310Y-170393773D01*
X91893773Y-170261310D01*
X92049533Y-170157235D01*
X92049534Y-170157234D01*
X92222605Y-170085546D01*
X92406333Y-170049000D01*
X92593667Y-170049000D01*
X92777395Y-170085546D01*
G37*
G36*
X111828228Y-169581703D02*
G01*
X111983100Y-169645853D01*
X112122481Y-169738985D01*
X112241015Y-169857519D01*
X112334147Y-169996900D01*
X112398297Y-170151772D01*
X112431000Y-170316184D01*
X112431000Y-170483816D01*
X112398297Y-170648228D01*
X112334147Y-170803100D01*
X112241015Y-170942481D01*
X112122481Y-171061015D01*
X111983100Y-171154147D01*
X111828228Y-171218297D01*
X111663816Y-171251000D01*
X111496184Y-171251000D01*
X111331772Y-171218297D01*
X111176900Y-171154147D01*
X111037519Y-171061015D01*
X110918985Y-170942481D01*
X110825853Y-170803100D01*
X110761703Y-170648228D01*
X110729000Y-170483816D01*
X110729000Y-170316184D01*
X110761703Y-170151772D01*
X110825853Y-169996900D01*
X110918985Y-169857519D01*
X111037519Y-169738985D01*
X111176900Y-169645853D01*
X111331772Y-169581703D01*
X111496184Y-169549000D01*
X111663816Y-169549000D01*
X111828228Y-169581703D01*
G37*
G36*
X106828228Y-169581703D02*
G01*
X106983100Y-169645853D01*
X107122481Y-169738985D01*
X107241015Y-169857519D01*
X107334147Y-169996900D01*
X107398297Y-170151772D01*
X107431000Y-170316184D01*
X107431000Y-170483816D01*
X107398297Y-170648228D01*
X107334147Y-170803100D01*
X107241015Y-170942481D01*
X107122481Y-171061015D01*
X106983100Y-171154147D01*
X106828228Y-171218297D01*
X106663816Y-171251000D01*
X106496184Y-171251000D01*
X106331772Y-171218297D01*
X106176900Y-171154147D01*
X106037519Y-171061015D01*
X105918985Y-170942481D01*
X105825853Y-170803100D01*
X105761703Y-170648228D01*
X105729000Y-170483816D01*
X105729000Y-170316184D01*
X105761703Y-170151772D01*
X105825853Y-169996900D01*
X105918985Y-169857519D01*
X106037519Y-169738985D01*
X106176900Y-169645853D01*
X106331772Y-169581703D01*
X106496184Y-169549000D01*
X106663816Y-169549000D01*
X106828228Y-169581703D01*
G37*
G36*
X87398228Y-169071703D02*
G01*
X87553100Y-169135853D01*
X87692481Y-169228985D01*
X87811015Y-169347519D01*
X87904147Y-169486900D01*
X87968297Y-169641772D01*
X88001000Y-169806184D01*
X88001000Y-169973816D01*
X87968297Y-170138228D01*
X87904147Y-170293100D01*
X87811015Y-170432481D01*
X87692481Y-170551015D01*
X87553100Y-170644147D01*
X87398228Y-170708297D01*
X87233816Y-170741000D01*
X87066184Y-170741000D01*
X86901772Y-170708297D01*
X86746900Y-170644147D01*
X86607519Y-170551015D01*
X86488985Y-170432481D01*
X86395853Y-170293100D01*
X86331703Y-170138228D01*
X86299000Y-169973816D01*
X86299000Y-169806184D01*
X86331703Y-169641772D01*
X86395853Y-169486900D01*
X86488985Y-169347519D01*
X86607519Y-169228985D01*
X86746900Y-169135853D01*
X86901772Y-169071703D01*
X87066184Y-169039000D01*
X87233816Y-169039000D01*
X87398228Y-169071703D01*
G37*
G36*
X61525728Y-168185703D02*
G01*
X61680600Y-168249853D01*
X61819981Y-168342985D01*
X61938515Y-168461519D01*
X62031647Y-168600900D01*
X62095797Y-168755772D01*
X62128500Y-168920184D01*
X62128500Y-169087816D01*
X62095797Y-169252228D01*
X62031647Y-169407100D01*
X61938515Y-169546481D01*
X61819981Y-169665015D01*
X61680600Y-169758147D01*
X61525728Y-169822297D01*
X61361316Y-169855000D01*
X61193684Y-169855000D01*
X61029272Y-169822297D01*
X60874400Y-169758147D01*
X60735019Y-169665015D01*
X60616485Y-169546481D01*
X60523353Y-169407100D01*
X60459203Y-169252228D01*
X60426500Y-169087816D01*
X60426500Y-168920184D01*
X60459203Y-168755772D01*
X60523353Y-168600900D01*
X60616485Y-168461519D01*
X60735019Y-168342985D01*
X60874400Y-168249853D01*
X61029272Y-168185703D01*
X61193684Y-168153000D01*
X61361316Y-168153000D01*
X61525728Y-168185703D01*
G37*
G36*
X51365728Y-168185703D02*
G01*
X51520600Y-168249853D01*
X51659981Y-168342985D01*
X51778515Y-168461519D01*
X51871647Y-168600900D01*
X51935797Y-168755772D01*
X51968500Y-168920184D01*
X51968500Y-169087816D01*
X51935797Y-169252228D01*
X51871647Y-169407100D01*
X51778515Y-169546481D01*
X51659981Y-169665015D01*
X51520600Y-169758147D01*
X51365728Y-169822297D01*
X51201316Y-169855000D01*
X51033684Y-169855000D01*
X50869272Y-169822297D01*
X50714400Y-169758147D01*
X50575019Y-169665015D01*
X50456485Y-169546481D01*
X50363353Y-169407100D01*
X50299203Y-169252228D01*
X50266500Y-169087816D01*
X50266500Y-168920184D01*
X50299203Y-168755772D01*
X50363353Y-168600900D01*
X50456485Y-168461519D01*
X50575019Y-168342985D01*
X50714400Y-168249853D01*
X50869272Y-168185703D01*
X51033684Y-168153000D01*
X51201316Y-168153000D01*
X51365728Y-168185703D01*
G37*
G36*
X83068228Y-168091703D02*
G01*
X83223100Y-168155853D01*
X83362481Y-168248985D01*
X83481015Y-168367519D01*
X83574147Y-168506900D01*
X83638297Y-168661772D01*
X83671000Y-168826184D01*
X83671000Y-168993816D01*
X83638297Y-169158228D01*
X83574147Y-169313100D01*
X83481015Y-169452481D01*
X83362481Y-169571015D01*
X83223100Y-169664147D01*
X83068228Y-169728297D01*
X82903816Y-169761000D01*
X82736184Y-169761000D01*
X82571772Y-169728297D01*
X82416900Y-169664147D01*
X82277519Y-169571015D01*
X82158985Y-169452481D01*
X82065853Y-169313100D01*
X82001703Y-169158228D01*
X81969000Y-168993816D01*
X81969000Y-168826184D01*
X82001703Y-168661772D01*
X82065853Y-168506900D01*
X82158985Y-168367519D01*
X82277519Y-168248985D01*
X82416900Y-168155853D01*
X82571772Y-168091703D01*
X82736184Y-168059000D01*
X82903816Y-168059000D01*
X83068228Y-168091703D01*
G37*
G36*
X95277395Y-167545546D02*
G01*
X95450466Y-167617234D01*
X95450467Y-167617235D01*
X95606227Y-167721310D01*
X95738690Y-167853773D01*
X95738691Y-167853775D01*
X95842766Y-168009534D01*
X95914454Y-168182605D01*
X95951000Y-168366333D01*
X95951000Y-168553667D01*
X95914454Y-168737395D01*
X95842766Y-168910466D01*
X95836272Y-168920185D01*
X95738690Y-169066227D01*
X95606227Y-169198690D01*
X95560887Y-169228985D01*
X95450466Y-169302766D01*
X95277395Y-169374454D01*
X95093667Y-169411000D01*
X94906333Y-169411000D01*
X94722605Y-169374454D01*
X94549534Y-169302766D01*
X94439113Y-169228985D01*
X94393773Y-169198690D01*
X94261310Y-169066227D01*
X94163728Y-168920185D01*
X94157234Y-168910466D01*
X94085546Y-168737395D01*
X94049000Y-168553667D01*
X94049000Y-168366333D01*
X94085546Y-168182605D01*
X94157234Y-168009534D01*
X94261309Y-167853775D01*
X94261310Y-167853773D01*
X94393773Y-167721310D01*
X94549533Y-167617235D01*
X94549534Y-167617234D01*
X94722605Y-167545546D01*
X94906333Y-167509000D01*
X95093667Y-167509000D01*
X95277395Y-167545546D01*
G37*
G36*
X35508228Y-164151703D02*
G01*
X35663100Y-164215853D01*
X35802481Y-164308985D01*
X35921015Y-164427519D01*
X36014147Y-164566900D01*
X36078297Y-164721772D01*
X36111000Y-164886184D01*
X36111000Y-165053816D01*
X36078297Y-165218228D01*
X36014147Y-165373100D01*
X35921015Y-165512481D01*
X35802481Y-165631015D01*
X35663100Y-165724147D01*
X35508228Y-165788297D01*
X35343816Y-165821000D01*
X35176184Y-165821000D01*
X35011772Y-165788297D01*
X34856900Y-165724147D01*
X34717519Y-165631015D01*
X34598985Y-165512481D01*
X34505853Y-165373100D01*
X34441703Y-165218228D01*
X34409000Y-165053816D01*
X34409000Y-164886184D01*
X34441703Y-164721772D01*
X34505853Y-164566900D01*
X34598985Y-164427519D01*
X34717519Y-164308985D01*
X34856900Y-164215853D01*
X35011772Y-164151703D01*
X35176184Y-164119000D01*
X35343816Y-164119000D01*
X35508228Y-164151703D01*
G37*
G36*
X45668228Y-164151703D02*
G01*
X45823100Y-164215853D01*
X45962481Y-164308985D01*
X46081015Y-164427519D01*
X46174147Y-164566900D01*
X46238297Y-164721772D01*
X46271000Y-164886184D01*
X46271000Y-165053816D01*
X46238297Y-165218228D01*
X46174147Y-165373100D01*
X46081015Y-165512481D01*
X45962481Y-165631015D01*
X45823100Y-165724147D01*
X45668228Y-165788297D01*
X45503816Y-165821000D01*
X45336184Y-165821000D01*
X45171772Y-165788297D01*
X45016900Y-165724147D01*
X44877519Y-165631015D01*
X44758985Y-165512481D01*
X44665853Y-165373100D01*
X44601703Y-165218228D01*
X44569000Y-165053816D01*
X44569000Y-164886184D01*
X44601703Y-164721772D01*
X44665853Y-164566900D01*
X44758985Y-164427519D01*
X44877519Y-164308985D01*
X45016900Y-164215853D01*
X45171772Y-164151703D01*
X45336184Y-164119000D01*
X45503816Y-164119000D01*
X45668228Y-164151703D01*
G37*
G36*
X87398228Y-164071703D02*
G01*
X87553100Y-164135853D01*
X87692481Y-164228985D01*
X87811015Y-164347519D01*
X87904147Y-164486900D01*
X87968297Y-164641772D01*
X88001000Y-164806184D01*
X88001000Y-164973816D01*
X87968297Y-165138228D01*
X87904147Y-165293100D01*
X87811015Y-165432481D01*
X87692481Y-165551015D01*
X87553100Y-165644147D01*
X87398228Y-165708297D01*
X87233816Y-165741000D01*
X87066184Y-165741000D01*
X86901772Y-165708297D01*
X86746900Y-165644147D01*
X86607519Y-165551015D01*
X86488985Y-165432481D01*
X86395853Y-165293100D01*
X86331703Y-165138228D01*
X86299000Y-164973816D01*
X86299000Y-164806184D01*
X86331703Y-164641772D01*
X86395853Y-164486900D01*
X86488985Y-164347519D01*
X86607519Y-164228985D01*
X86746900Y-164135853D01*
X86901772Y-164071703D01*
X87066184Y-164039000D01*
X87233816Y-164039000D01*
X87398228Y-164071703D01*
G37*
G36*
X125970228Y-163626703D02*
G01*
X126125100Y-163690853D01*
X126264481Y-163783985D01*
X126383015Y-163902519D01*
X126476147Y-164041900D01*
X126540297Y-164196772D01*
X126573000Y-164361184D01*
X126573000Y-164528816D01*
X126540297Y-164693228D01*
X126476147Y-164848100D01*
X126383015Y-164987481D01*
X126264481Y-165106015D01*
X126125100Y-165199147D01*
X125970228Y-165263297D01*
X125805816Y-165296000D01*
X125638184Y-165296000D01*
X125473772Y-165263297D01*
X125318900Y-165199147D01*
X125179519Y-165106015D01*
X125060985Y-164987481D01*
X124967853Y-164848100D01*
X124903703Y-164693228D01*
X124871000Y-164528816D01*
X124871000Y-164361184D01*
X124903703Y-164196772D01*
X124967853Y-164041900D01*
X125060985Y-163902519D01*
X125179519Y-163783985D01*
X125318900Y-163690853D01*
X125473772Y-163626703D01*
X125638184Y-163594000D01*
X125805816Y-163594000D01*
X125970228Y-163626703D01*
G37*
G36*
X119428228Y-160711703D02*
G01*
X119583100Y-160775853D01*
X119722481Y-160868985D01*
X119841015Y-160987519D01*
X119934147Y-161126900D01*
X119998297Y-161281772D01*
X120031000Y-161446184D01*
X120031000Y-161613816D01*
X119998297Y-161778228D01*
X119934147Y-161933100D01*
X119841015Y-162072481D01*
X119722481Y-162191015D01*
X119583100Y-162284147D01*
X119428228Y-162348297D01*
X119263816Y-162381000D01*
X119096184Y-162381000D01*
X118931772Y-162348297D01*
X118776900Y-162284147D01*
X118637519Y-162191015D01*
X118518985Y-162072481D01*
X118425853Y-161933100D01*
X118361703Y-161778228D01*
X118329000Y-161613816D01*
X118329000Y-161446184D01*
X118361703Y-161281772D01*
X118425853Y-161126900D01*
X118518985Y-160987519D01*
X118637519Y-160868985D01*
X118776900Y-160775853D01*
X118931772Y-160711703D01*
X119096184Y-160679000D01*
X119263816Y-160679000D01*
X119428228Y-160711703D01*
G37*
G36*
X54371425Y-160411983D02*
G01*
X54462090Y-160430017D01*
X54580564Y-160479091D01*
X54687188Y-160550335D01*
X54777865Y-160641012D01*
X54825101Y-160711705D01*
X54849110Y-160747638D01*
X54898183Y-160866110D01*
X54923200Y-160991881D01*
X54923200Y-161120119D01*
X54898183Y-161245890D01*
X54883321Y-161281771D01*
X54849109Y-161364364D01*
X54777865Y-161470988D01*
X54687188Y-161561665D01*
X54580564Y-161632909D01*
X54580563Y-161632910D01*
X54580562Y-161632910D01*
X54462090Y-161681983D01*
X54336319Y-161707000D01*
X54208081Y-161707000D01*
X54082310Y-161681983D01*
X53963838Y-161632910D01*
X53963837Y-161632910D01*
X53963836Y-161632909D01*
X53857212Y-161561665D01*
X53766535Y-161470988D01*
X53695291Y-161364364D01*
X53661080Y-161281771D01*
X53646217Y-161245890D01*
X53621200Y-161120119D01*
X53621200Y-160991881D01*
X53646217Y-160866110D01*
X53695290Y-160747638D01*
X53719300Y-160711705D01*
X53766535Y-160641012D01*
X53857212Y-160550335D01*
X53963836Y-160479091D01*
X54082310Y-160430017D01*
X54172975Y-160411983D01*
X54208081Y-160405000D01*
X54336319Y-160405000D01*
X54371425Y-160411983D01*
G37*
G36*
X57076055Y-160408140D02*
G01*
X57139818Y-160414420D01*
X57214254Y-160437000D01*
X57262536Y-160451646D01*
X57375625Y-160512094D01*
X57474754Y-160593446D01*
X57556106Y-160692575D01*
X57616554Y-160805664D01*
X57616555Y-160805668D01*
X57653780Y-160928382D01*
X57666349Y-161056000D01*
X57653780Y-161183618D01*
X57634890Y-161245890D01*
X57616554Y-161306336D01*
X57556106Y-161419425D01*
X57474754Y-161518554D01*
X57375625Y-161599906D01*
X57262536Y-161660354D01*
X57230604Y-161670040D01*
X57139818Y-161697580D01*
X57076055Y-161703860D01*
X57044174Y-161707000D01*
X56580226Y-161707000D01*
X56548345Y-161703860D01*
X56484582Y-161697580D01*
X56393796Y-161670040D01*
X56361864Y-161660354D01*
X56248775Y-161599906D01*
X56149646Y-161518554D01*
X56068294Y-161419425D01*
X56007846Y-161306336D01*
X55989510Y-161245890D01*
X55970620Y-161183618D01*
X55958051Y-161056000D01*
X55970620Y-160928382D01*
X56007845Y-160805668D01*
X56007846Y-160805664D01*
X56068294Y-160692575D01*
X56149646Y-160593446D01*
X56248775Y-160512094D01*
X56361864Y-160451646D01*
X56410146Y-160437000D01*
X56484582Y-160414420D01*
X56548345Y-160408140D01*
X56580226Y-160405000D01*
X57044174Y-160405000D01*
X57076055Y-160408140D01*
G37*
G36*
X55697300Y-159153097D02*
G01*
X55732090Y-159160017D01*
X55850564Y-159209091D01*
X55957188Y-159280335D01*
X56047865Y-159371012D01*
X56119109Y-159477636D01*
X56168183Y-159596110D01*
X56193200Y-159721882D01*
X56193200Y-159850118D01*
X56168183Y-159975890D01*
X56119109Y-160094364D01*
X56047865Y-160200988D01*
X55957188Y-160291665D01*
X55850564Y-160362909D01*
X55850563Y-160362910D01*
X55850562Y-160362910D01*
X55732090Y-160411983D01*
X55606319Y-160437000D01*
X55478081Y-160437000D01*
X55352310Y-160411983D01*
X55233838Y-160362910D01*
X55233837Y-160362910D01*
X55233836Y-160362909D01*
X55127212Y-160291665D01*
X55036535Y-160200988D01*
X54965291Y-160094364D01*
X54916217Y-159975890D01*
X54891200Y-159850118D01*
X54891200Y-159721882D01*
X54916217Y-159596110D01*
X54965291Y-159477636D01*
X55036535Y-159371012D01*
X55127212Y-159280335D01*
X55233836Y-159209091D01*
X55352310Y-159160017D01*
X55387100Y-159153097D01*
X55478081Y-159135000D01*
X55606319Y-159135000D01*
X55697300Y-159153097D01*
G37*
G36*
X103326000Y-160051000D02*
G01*
X96924000Y-160051000D01*
X96924000Y-158199000D01*
X103326000Y-158199000D01*
X103326000Y-160051000D01*
G37*
G36*
X83068228Y-157931703D02*
G01*
X83223100Y-157995853D01*
X83362481Y-158088985D01*
X83481015Y-158207519D01*
X83574147Y-158346900D01*
X83638297Y-158501772D01*
X83671000Y-158666184D01*
X83671000Y-158833816D01*
X83638297Y-158998228D01*
X83574147Y-159153100D01*
X83481015Y-159292481D01*
X83362481Y-159411015D01*
X83223100Y-159504147D01*
X83068228Y-159568297D01*
X82903816Y-159601000D01*
X82736184Y-159601000D01*
X82571772Y-159568297D01*
X82416900Y-159504147D01*
X82277519Y-159411015D01*
X82158985Y-159292481D01*
X82065853Y-159153100D01*
X82001703Y-158998228D01*
X81969000Y-158833816D01*
X81969000Y-158666184D01*
X82001703Y-158501772D01*
X82065853Y-158346900D01*
X82158985Y-158207519D01*
X82277519Y-158088985D01*
X82416900Y-157995853D01*
X82571772Y-157931703D01*
X82736184Y-157899000D01*
X82903816Y-157899000D01*
X83068228Y-157931703D01*
G37*
G36*
X76666649Y-154421116D02*
G01*
X76777834Y-154443232D01*
X76925950Y-154504584D01*
X76963176Y-154520003D01*
X76987303Y-154529997D01*
X77175820Y-154655960D01*
X77336140Y-154816280D01*
X77462103Y-155004797D01*
X77548868Y-155214266D01*
X77593100Y-155436636D01*
X77593100Y-155663364D01*
X77548868Y-155885734D01*
X77462103Y-156095203D01*
X77336140Y-156283720D01*
X77175820Y-156444040D01*
X76987303Y-156570003D01*
X76777834Y-156656768D01*
X76666649Y-156678884D01*
X76555465Y-156701000D01*
X76328735Y-156701000D01*
X76217551Y-156678884D01*
X76106366Y-156656768D01*
X75896897Y-156570003D01*
X75708380Y-156444040D01*
X75548060Y-156283720D01*
X75422097Y-156095203D01*
X75335332Y-155885734D01*
X75291100Y-155663364D01*
X75291100Y-155436636D01*
X75335332Y-155214266D01*
X75422097Y-155004797D01*
X75548060Y-154816280D01*
X75708380Y-154655960D01*
X75896897Y-154529997D01*
X75921025Y-154520003D01*
X75958250Y-154504584D01*
X76106366Y-154443232D01*
X76217551Y-154421116D01*
X76328735Y-154399000D01*
X76555465Y-154399000D01*
X76666649Y-154421116D01*
G37*
G36*
X66893100Y-156701000D02*
G01*
X64591100Y-156701000D01*
X64591100Y-154399000D01*
X66893100Y-154399000D01*
X66893100Y-156701000D01*
G37*
G36*
X125970228Y-153466703D02*
G01*
X126125100Y-153530853D01*
X126264481Y-153623985D01*
X126383015Y-153742519D01*
X126476147Y-153881900D01*
X126540297Y-154036772D01*
X126573000Y-154201184D01*
X126573000Y-154368816D01*
X126540297Y-154533228D01*
X126476147Y-154688100D01*
X126383015Y-154827481D01*
X126264481Y-154946015D01*
X126125100Y-155039147D01*
X125970228Y-155103297D01*
X125805816Y-155136000D01*
X125638184Y-155136000D01*
X125473772Y-155103297D01*
X125318900Y-155039147D01*
X125179519Y-154946015D01*
X125060985Y-154827481D01*
X124967853Y-154688100D01*
X124903703Y-154533228D01*
X124871000Y-154368816D01*
X124871000Y-154201184D01*
X124903703Y-154036772D01*
X124967853Y-153881900D01*
X125060985Y-153742519D01*
X125179519Y-153623985D01*
X125318900Y-153530853D01*
X125473772Y-153466703D01*
X125638184Y-153434000D01*
X125805816Y-153434000D01*
X125970228Y-153466703D01*
G37*
G36*
X40996095Y-152791546D02*
G01*
X41169166Y-152863234D01*
X41169167Y-152863235D01*
X41324927Y-152967310D01*
X41457390Y-153099773D01*
X41457391Y-153099775D01*
X41561466Y-153255534D01*
X41633154Y-153428605D01*
X41669700Y-153612333D01*
X41669700Y-153799667D01*
X41633154Y-153983395D01*
X41561466Y-154156466D01*
X41561465Y-154156467D01*
X41457390Y-154312227D01*
X41324927Y-154444690D01*
X41246518Y-154497081D01*
X41169166Y-154548766D01*
X40996095Y-154620454D01*
X40812367Y-154657000D01*
X40625033Y-154657000D01*
X40441305Y-154620454D01*
X40268234Y-154548766D01*
X40190882Y-154497081D01*
X40112473Y-154444690D01*
X39980010Y-154312227D01*
X39875935Y-154156467D01*
X39875934Y-154156466D01*
X39804246Y-153983395D01*
X39767700Y-153799667D01*
X39767700Y-153612333D01*
X39804246Y-153428605D01*
X39875934Y-153255534D01*
X39980009Y-153099775D01*
X39980010Y-153099773D01*
X40112473Y-152967310D01*
X40268233Y-152863235D01*
X40268234Y-152863234D01*
X40441305Y-152791546D01*
X40625033Y-152755000D01*
X40812367Y-152755000D01*
X40996095Y-152791546D01*
G37*
G36*
X61176000Y-154651000D02*
G01*
X58874000Y-154651000D01*
X58874000Y-152349000D01*
X61176000Y-152349000D01*
X61176000Y-154651000D01*
G37*
G36*
X50056052Y-152364453D02*
G01*
X50200734Y-152393232D01*
X50410203Y-152479997D01*
X50598720Y-152605960D01*
X50759040Y-152766280D01*
X50885003Y-152954797D01*
X50959551Y-153134771D01*
X50971768Y-153164267D01*
X51016000Y-153386635D01*
X51016000Y-153613365D01*
X50993884Y-153724549D01*
X50971768Y-153835734D01*
X50885003Y-154045203D01*
X50759040Y-154233720D01*
X50598720Y-154394040D01*
X50410203Y-154520003D01*
X50410202Y-154520004D01*
X50410201Y-154520004D01*
X50378275Y-154533228D01*
X50200734Y-154606768D01*
X50089549Y-154628884D01*
X49978365Y-154651000D01*
X49751635Y-154651000D01*
X49640451Y-154628884D01*
X49529266Y-154606768D01*
X49351725Y-154533228D01*
X49319799Y-154520004D01*
X49319798Y-154520004D01*
X49319797Y-154520003D01*
X49131280Y-154394040D01*
X48970960Y-154233720D01*
X48844997Y-154045203D01*
X48758232Y-153835734D01*
X48736116Y-153724549D01*
X48714000Y-153613365D01*
X48714000Y-153386635D01*
X48758232Y-153164267D01*
X48770450Y-153134771D01*
X48844997Y-152954797D01*
X48970960Y-152766280D01*
X49131280Y-152605960D01*
X49319797Y-152479997D01*
X49529266Y-152393232D01*
X49673948Y-152364453D01*
X49751635Y-152349000D01*
X49978365Y-152349000D01*
X50056052Y-152364453D01*
G37*
G36*
X83031928Y-152564703D02*
G01*
X83186800Y-152628853D01*
X83326181Y-152721985D01*
X83444715Y-152840519D01*
X83537847Y-152979900D01*
X83601997Y-153134772D01*
X83634700Y-153299184D01*
X83634700Y-153466816D01*
X83601997Y-153631228D01*
X83537847Y-153786100D01*
X83444715Y-153925481D01*
X83326181Y-154044015D01*
X83186800Y-154137147D01*
X83031928Y-154201297D01*
X82867516Y-154234000D01*
X82699884Y-154234000D01*
X82535472Y-154201297D01*
X82380600Y-154137147D01*
X82241219Y-154044015D01*
X82122685Y-153925481D01*
X82029553Y-153786100D01*
X81965403Y-153631228D01*
X81932700Y-153466816D01*
X81932700Y-153299184D01*
X81965403Y-153134772D01*
X82029553Y-152979900D01*
X82122685Y-152840519D01*
X82241219Y-152721985D01*
X82380600Y-152628853D01*
X82535472Y-152564703D01*
X82699884Y-152532000D01*
X82867516Y-152532000D01*
X83031928Y-152564703D01*
G37*
G36*
X103326000Y-152851000D02*
G01*
X96924000Y-152851000D01*
X96924000Y-150999000D01*
X103326000Y-150999000D01*
X103326000Y-152851000D01*
G37*
G36*
X121427395Y-150535546D02*
G01*
X121600466Y-150607234D01*
X121600467Y-150607235D01*
X121756227Y-150711310D01*
X121888690Y-150843773D01*
X121888691Y-150843775D01*
X121992766Y-150999534D01*
X122064454Y-151172605D01*
X122101000Y-151356333D01*
X122101000Y-151543667D01*
X122064454Y-151727395D01*
X121992766Y-151900466D01*
X121992765Y-151900467D01*
X121888690Y-152056227D01*
X121756227Y-152188690D01*
X121677818Y-152241081D01*
X121600466Y-152292766D01*
X121427395Y-152364454D01*
X121243667Y-152401000D01*
X121056333Y-152401000D01*
X120872605Y-152364454D01*
X120699534Y-152292766D01*
X120622182Y-152241081D01*
X120543773Y-152188690D01*
X120411310Y-152056227D01*
X120307235Y-151900467D01*
X120307234Y-151900466D01*
X120235546Y-151727395D01*
X120199000Y-151543667D01*
X120199000Y-151356333D01*
X120235546Y-151172605D01*
X120307234Y-150999534D01*
X120411309Y-150843775D01*
X120411310Y-150843773D01*
X120543773Y-150711310D01*
X120699533Y-150607235D01*
X120699534Y-150607234D01*
X120872605Y-150535546D01*
X121056333Y-150499000D01*
X121243667Y-150499000D01*
X121427395Y-150535546D01*
G37*
G36*
X41669700Y-152117000D02*
G01*
X39767700Y-152117000D01*
X39767700Y-150215000D01*
X41669700Y-150215000D01*
X41669700Y-152117000D01*
G37*
G36*
X118887395Y-148035546D02*
G01*
X119060466Y-148107234D01*
X119060467Y-148107235D01*
X119216227Y-148211310D01*
X119348690Y-148343773D01*
X119348691Y-148343775D01*
X119452766Y-148499534D01*
X119524454Y-148672605D01*
X119561000Y-148856333D01*
X119561000Y-149043667D01*
X119524454Y-149227395D01*
X119452766Y-149400466D01*
X119452765Y-149400467D01*
X119348690Y-149556227D01*
X119216227Y-149688690D01*
X119137818Y-149741081D01*
X119060466Y-149792766D01*
X118887395Y-149864454D01*
X118703667Y-149901000D01*
X118516333Y-149901000D01*
X118332605Y-149864454D01*
X118159534Y-149792766D01*
X118082182Y-149741081D01*
X118003773Y-149688690D01*
X117871310Y-149556227D01*
X117767235Y-149400467D01*
X117767234Y-149400466D01*
X117695546Y-149227395D01*
X117659000Y-149043667D01*
X117659000Y-148856333D01*
X117695546Y-148672605D01*
X117767234Y-148499534D01*
X117871309Y-148343775D01*
X117871310Y-148343773D01*
X118003773Y-148211310D01*
X118159533Y-148107235D01*
X118159534Y-148107234D01*
X118332605Y-148035546D01*
X118516333Y-147999000D01*
X118703667Y-147999000D01*
X118887395Y-148035546D01*
G37*
G36*
X126198228Y-146791703D02*
G01*
X126353100Y-146855853D01*
X126492481Y-146948985D01*
X126611015Y-147067519D01*
X126704147Y-147206900D01*
X126768297Y-147361772D01*
X126801000Y-147526184D01*
X126801000Y-147693816D01*
X126768297Y-147858228D01*
X126704147Y-148013100D01*
X126611015Y-148152481D01*
X126492481Y-148271015D01*
X126353100Y-148364147D01*
X126198228Y-148428297D01*
X126033816Y-148461000D01*
X125866184Y-148461000D01*
X125701772Y-148428297D01*
X125546900Y-148364147D01*
X125407519Y-148271015D01*
X125288985Y-148152481D01*
X125195853Y-148013100D01*
X125131703Y-147858228D01*
X125099000Y-147693816D01*
X125099000Y-147526184D01*
X125131703Y-147361772D01*
X125195853Y-147206900D01*
X125288985Y-147067519D01*
X125407519Y-146948985D01*
X125546900Y-146855853D01*
X125701772Y-146791703D01*
X125866184Y-146759000D01*
X126033816Y-146759000D01*
X126198228Y-146791703D01*
G37*
G36*
X55127987Y-146121123D02*
G01*
X55299055Y-146191982D01*
X55299057Y-146191983D01*
X55376558Y-146243768D01*
X55453014Y-146294854D01*
X55583946Y-146425786D01*
X55686818Y-146579745D01*
X55757677Y-146750813D01*
X55793800Y-146932417D01*
X55793800Y-147117583D01*
X55757677Y-147299187D01*
X55731753Y-147361772D01*
X55686817Y-147470257D01*
X55583945Y-147624215D01*
X55453015Y-147755145D01*
X55299057Y-147858017D01*
X55299056Y-147858018D01*
X55299055Y-147858018D01*
X55127987Y-147928877D01*
X54946383Y-147965000D01*
X54761217Y-147965000D01*
X54579613Y-147928877D01*
X54408545Y-147858018D01*
X54408544Y-147858018D01*
X54408543Y-147858017D01*
X54254585Y-147755145D01*
X54123655Y-147624215D01*
X54020783Y-147470257D01*
X53975847Y-147361772D01*
X53949923Y-147299187D01*
X53913800Y-147117583D01*
X53913800Y-146932417D01*
X53949923Y-146750813D01*
X54020782Y-146579745D01*
X54123654Y-146425786D01*
X54254586Y-146294854D01*
X54331042Y-146243768D01*
X54408543Y-146191983D01*
X54408545Y-146191982D01*
X54579613Y-146121123D01*
X54761217Y-146085000D01*
X54946383Y-146085000D01*
X55127987Y-146121123D01*
G37*
G36*
X60873800Y-147965000D02*
G01*
X58993800Y-147965000D01*
X58993800Y-146085000D01*
X60873800Y-146085000D01*
X60873800Y-147965000D01*
G37*
G36*
X122101000Y-147401000D02*
G01*
X120199000Y-147401000D01*
X120199000Y-145499000D01*
X122101000Y-145499000D01*
X122101000Y-147401000D01*
G37*
G36*
X76666649Y-144921116D02*
G01*
X76777834Y-144943232D01*
X76987303Y-145029997D01*
X77175820Y-145155960D01*
X77336140Y-145316280D01*
X77462103Y-145504797D01*
X77548868Y-145714266D01*
X77593100Y-145936636D01*
X77593100Y-146163364D01*
X77548868Y-146385734D01*
X77462103Y-146595203D01*
X77336140Y-146783720D01*
X77175820Y-146944040D01*
X76987303Y-147070003D01*
X76777834Y-147156768D01*
X76666649Y-147178884D01*
X76555465Y-147201000D01*
X76328735Y-147201000D01*
X76217551Y-147178884D01*
X76106366Y-147156768D01*
X75896897Y-147070003D01*
X75708380Y-146944040D01*
X75548060Y-146783720D01*
X75422097Y-146595203D01*
X75335332Y-146385734D01*
X75291100Y-146163364D01*
X75291100Y-145936636D01*
X75335332Y-145714266D01*
X75422097Y-145504797D01*
X75548060Y-145316280D01*
X75708380Y-145155960D01*
X75896897Y-145029997D01*
X76106366Y-144943232D01*
X76217551Y-144921116D01*
X76328735Y-144899000D01*
X76555465Y-144899000D01*
X76666649Y-144921116D01*
G37*
G36*
X65966649Y-144921116D02*
G01*
X66077834Y-144943232D01*
X66287303Y-145029997D01*
X66475820Y-145155960D01*
X66636140Y-145316280D01*
X66762103Y-145504797D01*
X66848868Y-145714266D01*
X66893100Y-145936636D01*
X66893100Y-146163364D01*
X66848868Y-146385734D01*
X66762103Y-146595203D01*
X66636140Y-146783720D01*
X66475820Y-146944040D01*
X66287303Y-147070003D01*
X66077834Y-147156768D01*
X65966649Y-147178884D01*
X65855465Y-147201000D01*
X65628735Y-147201000D01*
X65517551Y-147178884D01*
X65406366Y-147156768D01*
X65196897Y-147070003D01*
X65008380Y-146944040D01*
X64848060Y-146783720D01*
X64722097Y-146595203D01*
X64635332Y-146385734D01*
X64591100Y-146163364D01*
X64591100Y-145936636D01*
X64635332Y-145714266D01*
X64722097Y-145504797D01*
X64848060Y-145316280D01*
X65008380Y-145155960D01*
X65196897Y-145029997D01*
X65406366Y-144943232D01*
X65517551Y-144921116D01*
X65628735Y-144899000D01*
X65855465Y-144899000D01*
X65966649Y-144921116D01*
G37*
G36*
X83031928Y-142404703D02*
G01*
X83186800Y-142468853D01*
X83326181Y-142561985D01*
X83444715Y-142680519D01*
X83537847Y-142819900D01*
X83601997Y-142974772D01*
X83634700Y-143139184D01*
X83634700Y-143306816D01*
X83601997Y-143471228D01*
X83537847Y-143626100D01*
X83444715Y-143765481D01*
X83326181Y-143884015D01*
X83186800Y-143977147D01*
X83031928Y-144041297D01*
X82867516Y-144074000D01*
X82699884Y-144074000D01*
X82535472Y-144041297D01*
X82380600Y-143977147D01*
X82241219Y-143884015D01*
X82122685Y-143765481D01*
X82029553Y-143626100D01*
X81965403Y-143471228D01*
X81932700Y-143306816D01*
X81932700Y-143139184D01*
X81965403Y-142974772D01*
X82029553Y-142819900D01*
X82122685Y-142680519D01*
X82241219Y-142561985D01*
X82380600Y-142468853D01*
X82535472Y-142404703D01*
X82699884Y-142372000D01*
X82867516Y-142372000D01*
X83031928Y-142404703D01*
G37*
G36*
X49726649Y-141771116D02*
G01*
X49837834Y-141793232D01*
X49924185Y-141829000D01*
X50003138Y-141861703D01*
X50047303Y-141879997D01*
X50235820Y-142005960D01*
X50396140Y-142166280D01*
X50522103Y-142354797D01*
X50608868Y-142564266D01*
X50653100Y-142786636D01*
X50653100Y-143013364D01*
X50608868Y-143235734D01*
X50522103Y-143445203D01*
X50396140Y-143633720D01*
X50235820Y-143794040D01*
X50047303Y-143920003D01*
X49837834Y-144006768D01*
X49726649Y-144028884D01*
X49615465Y-144051000D01*
X49388735Y-144051000D01*
X49277551Y-144028884D01*
X49166366Y-144006768D01*
X48956897Y-143920003D01*
X48768380Y-143794040D01*
X48608060Y-143633720D01*
X48482097Y-143445203D01*
X48395332Y-143235734D01*
X48351100Y-143013364D01*
X48351100Y-142786636D01*
X48395332Y-142564266D01*
X48482097Y-142354797D01*
X48608060Y-142166280D01*
X48768380Y-142005960D01*
X48956897Y-141879997D01*
X49001063Y-141861703D01*
X49080015Y-141829000D01*
X49166366Y-141793232D01*
X49277551Y-141771116D01*
X49388735Y-141749000D01*
X49615465Y-141749000D01*
X49726649Y-141771116D01*
G37*
G36*
X116088228Y-141861703D02*
G01*
X116243100Y-141925853D01*
X116382481Y-142018985D01*
X116501015Y-142137519D01*
X116594147Y-142276900D01*
X116658297Y-142431772D01*
X116691000Y-142596184D01*
X116691000Y-142763816D01*
X116658297Y-142928228D01*
X116594147Y-143083100D01*
X116501015Y-143222481D01*
X116382481Y-143341015D01*
X116243100Y-143434147D01*
X116088228Y-143498297D01*
X115923816Y-143531000D01*
X115756184Y-143531000D01*
X115591772Y-143498297D01*
X115436900Y-143434147D01*
X115297519Y-143341015D01*
X115178985Y-143222481D01*
X115085853Y-143083100D01*
X115021703Y-142928228D01*
X114989000Y-142763816D01*
X114989000Y-142596184D01*
X115021703Y-142431772D01*
X115085853Y-142276900D01*
X115178985Y-142137519D01*
X115297519Y-142018985D01*
X115436900Y-141925853D01*
X115591772Y-141861703D01*
X115756184Y-141829000D01*
X115923816Y-141829000D01*
X116088228Y-141861703D01*
G37*
G36*
X111088228Y-141861703D02*
G01*
X111243100Y-141925853D01*
X111382481Y-142018985D01*
X111501015Y-142137519D01*
X111594147Y-142276900D01*
X111658297Y-142431772D01*
X111691000Y-142596184D01*
X111691000Y-142763816D01*
X111658297Y-142928228D01*
X111594147Y-143083100D01*
X111501015Y-143222481D01*
X111382481Y-143341015D01*
X111243100Y-143434147D01*
X111088228Y-143498297D01*
X110923816Y-143531000D01*
X110756184Y-143531000D01*
X110591772Y-143498297D01*
X110436900Y-143434147D01*
X110297519Y-143341015D01*
X110178985Y-143222481D01*
X110085853Y-143083100D01*
X110021703Y-142928228D01*
X109989000Y-142763816D01*
X109989000Y-142596184D01*
X110021703Y-142431772D01*
X110085853Y-142276900D01*
X110178985Y-142137519D01*
X110297519Y-142018985D01*
X110436900Y-141925853D01*
X110591772Y-141861703D01*
X110756184Y-141829000D01*
X110923816Y-141829000D01*
X111088228Y-141861703D01*
G37*
G36*
X55127987Y-141041123D02*
G01*
X55299055Y-141111982D01*
X55299057Y-141111983D01*
X55302297Y-141114148D01*
X55453014Y-141214854D01*
X55583946Y-141345786D01*
X55686818Y-141499745D01*
X55757677Y-141670813D01*
X55793800Y-141852417D01*
X55793800Y-142037583D01*
X55757677Y-142219187D01*
X55686818Y-142390255D01*
X55583946Y-142544214D01*
X55453014Y-142675146D01*
X55444971Y-142680520D01*
X55299057Y-142778017D01*
X55299056Y-142778018D01*
X55299055Y-142778018D01*
X55127987Y-142848877D01*
X54946383Y-142885000D01*
X54761217Y-142885000D01*
X54579613Y-142848877D01*
X54408545Y-142778018D01*
X54408544Y-142778018D01*
X54408543Y-142778017D01*
X54262629Y-142680520D01*
X54254586Y-142675146D01*
X54123654Y-142544214D01*
X54020782Y-142390255D01*
X53949923Y-142219187D01*
X53913800Y-142037583D01*
X53913800Y-141852417D01*
X53949923Y-141670813D01*
X54020782Y-141499745D01*
X54123654Y-141345786D01*
X54254586Y-141214854D01*
X54405303Y-141114148D01*
X54408543Y-141111983D01*
X54408545Y-141111982D01*
X54579613Y-141041123D01*
X54761217Y-141005000D01*
X54946383Y-141005000D01*
X55127987Y-141041123D01*
G37*
G36*
X60207987Y-141041123D02*
G01*
X60379055Y-141111982D01*
X60379057Y-141111983D01*
X60382297Y-141114148D01*
X60533014Y-141214854D01*
X60663946Y-141345786D01*
X60766818Y-141499745D01*
X60837677Y-141670813D01*
X60873800Y-141852417D01*
X60873800Y-142037583D01*
X60837677Y-142219187D01*
X60766818Y-142390255D01*
X60663946Y-142544214D01*
X60533014Y-142675146D01*
X60524971Y-142680520D01*
X60379057Y-142778017D01*
X60379056Y-142778018D01*
X60379055Y-142778018D01*
X60207987Y-142848877D01*
X60026383Y-142885000D01*
X59841217Y-142885000D01*
X59659613Y-142848877D01*
X59488545Y-142778018D01*
X59488544Y-142778018D01*
X59488543Y-142778017D01*
X59342629Y-142680520D01*
X59334586Y-142675146D01*
X59203654Y-142544214D01*
X59100782Y-142390255D01*
X59029923Y-142219187D01*
X58993800Y-142037583D01*
X58993800Y-141852417D01*
X59029923Y-141670813D01*
X59100782Y-141499745D01*
X59203654Y-141345786D01*
X59334586Y-141214854D01*
X59485303Y-141114148D01*
X59488543Y-141111983D01*
X59488545Y-141111982D01*
X59659613Y-141041123D01*
X59841217Y-141005000D01*
X60026383Y-141005000D01*
X60207987Y-141041123D01*
G37*
G36*
X88318228Y-139541703D02*
G01*
X88473100Y-139605853D01*
X88612481Y-139698985D01*
X88731015Y-139817519D01*
X88824147Y-139956900D01*
X88888297Y-140111772D01*
X88921000Y-140276184D01*
X88921000Y-140443816D01*
X88888297Y-140608228D01*
X88824147Y-140763100D01*
X88731015Y-140902481D01*
X88612481Y-141021015D01*
X88473100Y-141114147D01*
X88318228Y-141178297D01*
X88153816Y-141211000D01*
X87986184Y-141211000D01*
X87821772Y-141178297D01*
X87666900Y-141114147D01*
X87527519Y-141021015D01*
X87408985Y-140902481D01*
X87315853Y-140763100D01*
X87251703Y-140608228D01*
X87219000Y-140443816D01*
X87219000Y-140276184D01*
X87251703Y-140111772D01*
X87315853Y-139956900D01*
X87408985Y-139817519D01*
X87527519Y-139698985D01*
X87666900Y-139605853D01*
X87821772Y-139541703D01*
X87986184Y-139509000D01*
X88153816Y-139509000D01*
X88318228Y-139541703D01*
G37*
G36*
X93318228Y-139541703D02*
G01*
X93473100Y-139605853D01*
X93612481Y-139698985D01*
X93731015Y-139817519D01*
X93824147Y-139956900D01*
X93888297Y-140111772D01*
X93921000Y-140276184D01*
X93921000Y-140443816D01*
X93888297Y-140608228D01*
X93824147Y-140763100D01*
X93731015Y-140902481D01*
X93612481Y-141021015D01*
X93473100Y-141114147D01*
X93318228Y-141178297D01*
X93153816Y-141211000D01*
X92986184Y-141211000D01*
X92821772Y-141178297D01*
X92666900Y-141114147D01*
X92527519Y-141021015D01*
X92408985Y-140902481D01*
X92315853Y-140763100D01*
X92251703Y-140608228D01*
X92219000Y-140443816D01*
X92219000Y-140276184D01*
X92251703Y-140111772D01*
X92315853Y-139956900D01*
X92408985Y-139817519D01*
X92527519Y-139698985D01*
X92666900Y-139605853D01*
X92821772Y-139541703D01*
X92986184Y-139509000D01*
X93153816Y-139509000D01*
X93318228Y-139541703D01*
G37*
G36*
X55127987Y-138501123D02*
G01*
X55248436Y-138551015D01*
X55299057Y-138571983D01*
X55376558Y-138623768D01*
X55453014Y-138674854D01*
X55583946Y-138805786D01*
X55686818Y-138959745D01*
X55757677Y-139130813D01*
X55793800Y-139312417D01*
X55793800Y-139497583D01*
X55757677Y-139679187D01*
X55749476Y-139698985D01*
X55686817Y-139850257D01*
X55583945Y-140004215D01*
X55453015Y-140135145D01*
X55299057Y-140238017D01*
X55299056Y-140238018D01*
X55299055Y-140238018D01*
X55127987Y-140308877D01*
X54946383Y-140345000D01*
X54761217Y-140345000D01*
X54579613Y-140308877D01*
X54408545Y-140238018D01*
X54408544Y-140238018D01*
X54408543Y-140238017D01*
X54254585Y-140135145D01*
X54123655Y-140004215D01*
X54020783Y-139850257D01*
X53958124Y-139698985D01*
X53949923Y-139679187D01*
X53913800Y-139497583D01*
X53913800Y-139312417D01*
X53949923Y-139130813D01*
X54020782Y-138959745D01*
X54123654Y-138805786D01*
X54254586Y-138674854D01*
X54331042Y-138623768D01*
X54408543Y-138571983D01*
X54459164Y-138551015D01*
X54579613Y-138501123D01*
X54761217Y-138465000D01*
X54946383Y-138465000D01*
X55127987Y-138501123D01*
G37*
G36*
X60207987Y-138501123D02*
G01*
X60328436Y-138551015D01*
X60379057Y-138571983D01*
X60456558Y-138623768D01*
X60533014Y-138674854D01*
X60663946Y-138805786D01*
X60766818Y-138959745D01*
X60837677Y-139130813D01*
X60873800Y-139312417D01*
X60873800Y-139497583D01*
X60837677Y-139679187D01*
X60829476Y-139698985D01*
X60766817Y-139850257D01*
X60663945Y-140004215D01*
X60533015Y-140135145D01*
X60379057Y-140238017D01*
X60379056Y-140238018D01*
X60379055Y-140238018D01*
X60207987Y-140308877D01*
X60026383Y-140345000D01*
X59841217Y-140345000D01*
X59659613Y-140308877D01*
X59488545Y-140238018D01*
X59488544Y-140238018D01*
X59488543Y-140238017D01*
X59334585Y-140135145D01*
X59203655Y-140004215D01*
X59100783Y-139850257D01*
X59038124Y-139698985D01*
X59029923Y-139679187D01*
X58993800Y-139497583D01*
X58993800Y-139312417D01*
X59029923Y-139130813D01*
X59100782Y-138959745D01*
X59203654Y-138805786D01*
X59334586Y-138674854D01*
X59411042Y-138623768D01*
X59488543Y-138571983D01*
X59539164Y-138551015D01*
X59659613Y-138501123D01*
X59841217Y-138465000D01*
X60026383Y-138465000D01*
X60207987Y-138501123D01*
G37*
G36*
X96778228Y-137151703D02*
G01*
X96933100Y-137215853D01*
X97072481Y-137308985D01*
X97191015Y-137427519D01*
X97284147Y-137566900D01*
X97348297Y-137721772D01*
X97381000Y-137886184D01*
X97381000Y-138053816D01*
X97348297Y-138218228D01*
X97284147Y-138373100D01*
X97191015Y-138512481D01*
X97072481Y-138631015D01*
X96933100Y-138724147D01*
X96778228Y-138788297D01*
X96613816Y-138821000D01*
X96446184Y-138821000D01*
X96281772Y-138788297D01*
X96126900Y-138724147D01*
X95987519Y-138631015D01*
X95868985Y-138512481D01*
X95775853Y-138373100D01*
X95711703Y-138218228D01*
X95679000Y-138053816D01*
X95679000Y-137886184D01*
X95711703Y-137721772D01*
X95775853Y-137566900D01*
X95868985Y-137427519D01*
X95987519Y-137308985D01*
X96126900Y-137215853D01*
X96281772Y-137151703D01*
X96446184Y-137119000D01*
X96613816Y-137119000D01*
X96778228Y-137151703D01*
G37*
G36*
X106938228Y-137151703D02*
G01*
X107093100Y-137215853D01*
X107232481Y-137308985D01*
X107351015Y-137427519D01*
X107444147Y-137566900D01*
X107508297Y-137721772D01*
X107541000Y-137886184D01*
X107541000Y-138053816D01*
X107508297Y-138218228D01*
X107444147Y-138373100D01*
X107351015Y-138512481D01*
X107232481Y-138631015D01*
X107093100Y-138724147D01*
X106938228Y-138788297D01*
X106773816Y-138821000D01*
X106606184Y-138821000D01*
X106441772Y-138788297D01*
X106286900Y-138724147D01*
X106147519Y-138631015D01*
X106028985Y-138512481D01*
X105935853Y-138373100D01*
X105871703Y-138218228D01*
X105839000Y-138053816D01*
X105839000Y-137886184D01*
X105871703Y-137721772D01*
X105935853Y-137566900D01*
X106028985Y-137427519D01*
X106147519Y-137308985D01*
X106286900Y-137215853D01*
X106441772Y-137151703D01*
X106606184Y-137119000D01*
X106773816Y-137119000D01*
X106938228Y-137151703D01*
G37*
G36*
X121918228Y-137071703D02*
G01*
X122073100Y-137135853D01*
X122212481Y-137228985D01*
X122331015Y-137347519D01*
X122424147Y-137486900D01*
X122488297Y-137641772D01*
X122521000Y-137806184D01*
X122521000Y-137973816D01*
X122488297Y-138138228D01*
X122424147Y-138293100D01*
X122331015Y-138432481D01*
X122212481Y-138551015D01*
X122073100Y-138644147D01*
X121918228Y-138708297D01*
X121753816Y-138741000D01*
X121586184Y-138741000D01*
X121421772Y-138708297D01*
X121266900Y-138644147D01*
X121127519Y-138551015D01*
X121008985Y-138432481D01*
X120915853Y-138293100D01*
X120851703Y-138138228D01*
X120819000Y-137973816D01*
X120819000Y-137806184D01*
X120851703Y-137641772D01*
X120915853Y-137486900D01*
X121008985Y-137347519D01*
X121127519Y-137228985D01*
X121266900Y-137135853D01*
X121421772Y-137071703D01*
X121586184Y-137039000D01*
X121753816Y-137039000D01*
X121918228Y-137071703D01*
G37*
G36*
X111758228Y-137071703D02*
G01*
X111913100Y-137135853D01*
X112052481Y-137228985D01*
X112171015Y-137347519D01*
X112264147Y-137486900D01*
X112328297Y-137641772D01*
X112361000Y-137806184D01*
X112361000Y-137973816D01*
X112328297Y-138138228D01*
X112264147Y-138293100D01*
X112171015Y-138432481D01*
X112052481Y-138551015D01*
X111913100Y-138644147D01*
X111758228Y-138708297D01*
X111593816Y-138741000D01*
X111426184Y-138741000D01*
X111261772Y-138708297D01*
X111106900Y-138644147D01*
X110967519Y-138551015D01*
X110848985Y-138432481D01*
X110755853Y-138293100D01*
X110691703Y-138138228D01*
X110659000Y-137973816D01*
X110659000Y-137806184D01*
X110691703Y-137641772D01*
X110755853Y-137486900D01*
X110848985Y-137347519D01*
X110967519Y-137228985D01*
X111106900Y-137135853D01*
X111261772Y-137071703D01*
X111426184Y-137039000D01*
X111593816Y-137039000D01*
X111758228Y-137071703D01*
G37*
G36*
X126198228Y-136631703D02*
G01*
X126353100Y-136695853D01*
X126492481Y-136788985D01*
X126611015Y-136907519D01*
X126704147Y-137046900D01*
X126768297Y-137201772D01*
X126801000Y-137366184D01*
X126801000Y-137533816D01*
X126768297Y-137698228D01*
X126704147Y-137853100D01*
X126611015Y-137992481D01*
X126492481Y-138111015D01*
X126353100Y-138204147D01*
X126198228Y-138268297D01*
X126033816Y-138301000D01*
X125866184Y-138301000D01*
X125701772Y-138268297D01*
X125546900Y-138204147D01*
X125407519Y-138111015D01*
X125288985Y-137992481D01*
X125195853Y-137853100D01*
X125131703Y-137698228D01*
X125099000Y-137533816D01*
X125099000Y-137366184D01*
X125131703Y-137201772D01*
X125195853Y-137046900D01*
X125288985Y-136907519D01*
X125407519Y-136788985D01*
X125546900Y-136695853D01*
X125701772Y-136631703D01*
X125866184Y-136599000D01*
X126033816Y-136599000D01*
X126198228Y-136631703D01*
G37*
G36*
X83171628Y-136191703D02*
G01*
X83326500Y-136255853D01*
X83465881Y-136348985D01*
X83584415Y-136467519D01*
X83677547Y-136606900D01*
X83741697Y-136761772D01*
X83774400Y-136926184D01*
X83774400Y-137093816D01*
X83741697Y-137258228D01*
X83677547Y-137413100D01*
X83584415Y-137552481D01*
X83465881Y-137671015D01*
X83326500Y-137764147D01*
X83171628Y-137828297D01*
X83007216Y-137861000D01*
X82839584Y-137861000D01*
X82675172Y-137828297D01*
X82520300Y-137764147D01*
X82380919Y-137671015D01*
X82262385Y-137552481D01*
X82169253Y-137413100D01*
X82105103Y-137258228D01*
X82072400Y-137093816D01*
X82072400Y-136926184D01*
X82105103Y-136761772D01*
X82169253Y-136606900D01*
X82262385Y-136467519D01*
X82380919Y-136348985D01*
X82520300Y-136255853D01*
X82675172Y-136191703D01*
X82839584Y-136159000D01*
X83007216Y-136159000D01*
X83171628Y-136191703D01*
G37*
G36*
X55127987Y-135961123D02*
G01*
X55299055Y-136031982D01*
X55299057Y-136031983D01*
X55376558Y-136083768D01*
X55453014Y-136134854D01*
X55583946Y-136265786D01*
X55686818Y-136419745D01*
X55757677Y-136590813D01*
X55793800Y-136772417D01*
X55793800Y-136957583D01*
X55757677Y-137139187D01*
X55720481Y-137228985D01*
X55686817Y-137310257D01*
X55583945Y-137464215D01*
X55453015Y-137595145D01*
X55299057Y-137698017D01*
X55299056Y-137698018D01*
X55299055Y-137698018D01*
X55127987Y-137768877D01*
X54946383Y-137805000D01*
X54761217Y-137805000D01*
X54579613Y-137768877D01*
X54408545Y-137698018D01*
X54408544Y-137698018D01*
X54408543Y-137698017D01*
X54254585Y-137595145D01*
X54123655Y-137464215D01*
X54020783Y-137310257D01*
X53987119Y-137228985D01*
X53949923Y-137139187D01*
X53913800Y-136957583D01*
X53913800Y-136772417D01*
X53949923Y-136590813D01*
X54020782Y-136419745D01*
X54123654Y-136265786D01*
X54254586Y-136134854D01*
X54331042Y-136083768D01*
X54408543Y-136031983D01*
X54408545Y-136031982D01*
X54579613Y-135961123D01*
X54761217Y-135925000D01*
X54946383Y-135925000D01*
X55127987Y-135961123D01*
G37*
G36*
X60207987Y-135961123D02*
G01*
X60379055Y-136031982D01*
X60379057Y-136031983D01*
X60456558Y-136083768D01*
X60533014Y-136134854D01*
X60663946Y-136265786D01*
X60766818Y-136419745D01*
X60837677Y-136590813D01*
X60873800Y-136772417D01*
X60873800Y-136957583D01*
X60837677Y-137139187D01*
X60800481Y-137228985D01*
X60766817Y-137310257D01*
X60663945Y-137464215D01*
X60533015Y-137595145D01*
X60379057Y-137698017D01*
X60379056Y-137698018D01*
X60379055Y-137698018D01*
X60207987Y-137768877D01*
X60026383Y-137805000D01*
X59841217Y-137805000D01*
X59659613Y-137768877D01*
X59488545Y-137698018D01*
X59488544Y-137698018D01*
X59488543Y-137698017D01*
X59334585Y-137595145D01*
X59203655Y-137464215D01*
X59100783Y-137310257D01*
X59067119Y-137228985D01*
X59029923Y-137139187D01*
X58993800Y-136957583D01*
X58993800Y-136772417D01*
X59029923Y-136590813D01*
X59100782Y-136419745D01*
X59203654Y-136265786D01*
X59334586Y-136134854D01*
X59411042Y-136083768D01*
X59488543Y-136031983D01*
X59488545Y-136031982D01*
X59659613Y-135961123D01*
X59841217Y-135925000D01*
X60026383Y-135925000D01*
X60207987Y-135961123D01*
G37*
G36*
X50653100Y-137041000D02*
G01*
X48351100Y-137041000D01*
X48351100Y-134739000D01*
X50653100Y-134739000D01*
X50653100Y-137041000D01*
G37*
G36*
X119629395Y-131725546D02*
G01*
X119802466Y-131797234D01*
X119802467Y-131797235D01*
X119958227Y-131901310D01*
X120090690Y-132033773D01*
X120090691Y-132033775D01*
X120194766Y-132189534D01*
X120266454Y-132362605D01*
X120303000Y-132546333D01*
X120303000Y-132733667D01*
X120266454Y-132917395D01*
X120194766Y-133090466D01*
X120194765Y-133090467D01*
X120090690Y-133246227D01*
X119958227Y-133378690D01*
X119879818Y-133431081D01*
X119802466Y-133482766D01*
X119629395Y-133554454D01*
X119445667Y-133591000D01*
X119258333Y-133591000D01*
X119074605Y-133554454D01*
X118901534Y-133482766D01*
X118824182Y-133431081D01*
X118745773Y-133378690D01*
X118613310Y-133246227D01*
X118509235Y-133090467D01*
X118509234Y-133090466D01*
X118437546Y-132917395D01*
X118401000Y-132733667D01*
X118401000Y-132546333D01*
X118437546Y-132362605D01*
X118509234Y-132189534D01*
X118613309Y-132033775D01*
X118613310Y-132033773D01*
X118745773Y-131901310D01*
X118901533Y-131797235D01*
X118901534Y-131797234D01*
X119074605Y-131725546D01*
X119258333Y-131689000D01*
X119445667Y-131689000D01*
X119629395Y-131725546D01*
G37*
G36*
X94229395Y-131725546D02*
G01*
X94402466Y-131797234D01*
X94402467Y-131797235D01*
X94558227Y-131901310D01*
X94690690Y-132033773D01*
X94690691Y-132033775D01*
X94794766Y-132189534D01*
X94866454Y-132362605D01*
X94903000Y-132546333D01*
X94903000Y-132733667D01*
X94866454Y-132917395D01*
X94794766Y-133090466D01*
X94794765Y-133090467D01*
X94690690Y-133246227D01*
X94558227Y-133378690D01*
X94479818Y-133431081D01*
X94402466Y-133482766D01*
X94229395Y-133554454D01*
X94045667Y-133591000D01*
X93858333Y-133591000D01*
X93674605Y-133554454D01*
X93501534Y-133482766D01*
X93424182Y-133431081D01*
X93345773Y-133378690D01*
X93213310Y-133246227D01*
X93109235Y-133090467D01*
X93109234Y-133090466D01*
X93037546Y-132917395D01*
X93001000Y-132733667D01*
X93001000Y-132546333D01*
X93037546Y-132362605D01*
X93109234Y-132189534D01*
X93213309Y-132033775D01*
X93213310Y-132033773D01*
X93345773Y-131901310D01*
X93501533Y-131797235D01*
X93501534Y-131797234D01*
X93674605Y-131725546D01*
X93858333Y-131689000D01*
X94045667Y-131689000D01*
X94229395Y-131725546D01*
G37*
G36*
X76666649Y-130291116D02*
G01*
X76777834Y-130313232D01*
X76987303Y-130399997D01*
X77175820Y-130525960D01*
X77336140Y-130686280D01*
X77462103Y-130874797D01*
X77548868Y-131084266D01*
X77593100Y-131306636D01*
X77593100Y-131533364D01*
X77548868Y-131755734D01*
X77462103Y-131965203D01*
X77336140Y-132153720D01*
X77175820Y-132314040D01*
X76987303Y-132440003D01*
X76777834Y-132526768D01*
X76679474Y-132546333D01*
X76555465Y-132571000D01*
X76328735Y-132571000D01*
X76204726Y-132546333D01*
X76106366Y-132526768D01*
X75896897Y-132440003D01*
X75708380Y-132314040D01*
X75548060Y-132153720D01*
X75422097Y-131965203D01*
X75335332Y-131755734D01*
X75291100Y-131533364D01*
X75291100Y-131306636D01*
X75335332Y-131084266D01*
X75422097Y-130874797D01*
X75548060Y-130686280D01*
X75708380Y-130525960D01*
X75896897Y-130399997D01*
X76106366Y-130313232D01*
X76217551Y-130291116D01*
X76328735Y-130269000D01*
X76555465Y-130269000D01*
X76666649Y-130291116D01*
G37*
G36*
X66893100Y-132571000D02*
G01*
X64591100Y-132571000D01*
X64591100Y-130269000D01*
X66893100Y-130269000D01*
X66893100Y-132571000D01*
G37*
G36*
X94229395Y-129185546D02*
G01*
X94402466Y-129257234D01*
X94402467Y-129257235D01*
X94558227Y-129361310D01*
X94690690Y-129493773D01*
X94690691Y-129493775D01*
X94794766Y-129649534D01*
X94866454Y-129822605D01*
X94903000Y-130006333D01*
X94903000Y-130193667D01*
X94866454Y-130377395D01*
X94794766Y-130550466D01*
X94794765Y-130550467D01*
X94690690Y-130706227D01*
X94558227Y-130838690D01*
X94504189Y-130874797D01*
X94402466Y-130942766D01*
X94229395Y-131014454D01*
X94045667Y-131051000D01*
X93858333Y-131051000D01*
X93674605Y-131014454D01*
X93501534Y-130942766D01*
X93399811Y-130874797D01*
X93345773Y-130838690D01*
X93213310Y-130706227D01*
X93109235Y-130550467D01*
X93109234Y-130550466D01*
X93037546Y-130377395D01*
X93001000Y-130193667D01*
X93001000Y-130006333D01*
X93037546Y-129822605D01*
X93109234Y-129649534D01*
X93213309Y-129493775D01*
X93213310Y-129493773D01*
X93345773Y-129361310D01*
X93501533Y-129257235D01*
X93501534Y-129257234D01*
X93674605Y-129185546D01*
X93858333Y-129149000D01*
X94045667Y-129149000D01*
X94229395Y-129185546D01*
G37*
G36*
X119629395Y-129185546D02*
G01*
X119802466Y-129257234D01*
X119802467Y-129257235D01*
X119958227Y-129361310D01*
X120090690Y-129493773D01*
X120090691Y-129493775D01*
X120194766Y-129649534D01*
X120266454Y-129822605D01*
X120303000Y-130006333D01*
X120303000Y-130193667D01*
X120266454Y-130377395D01*
X120194766Y-130550466D01*
X120194765Y-130550467D01*
X120090690Y-130706227D01*
X119958227Y-130838690D01*
X119904189Y-130874797D01*
X119802466Y-130942766D01*
X119629395Y-131014454D01*
X119445667Y-131051000D01*
X119258333Y-131051000D01*
X119074605Y-131014454D01*
X118901534Y-130942766D01*
X118799811Y-130874797D01*
X118745773Y-130838690D01*
X118613310Y-130706227D01*
X118509235Y-130550467D01*
X118509234Y-130550466D01*
X118437546Y-130377395D01*
X118401000Y-130193667D01*
X118401000Y-130006333D01*
X118437546Y-129822605D01*
X118509234Y-129649534D01*
X118613309Y-129493775D01*
X118613310Y-129493773D01*
X118745773Y-129361310D01*
X118901533Y-129257235D01*
X118901534Y-129257234D01*
X119074605Y-129185546D01*
X119258333Y-129149000D01*
X119445667Y-129149000D01*
X119629395Y-129185546D01*
G37*
G36*
X119629395Y-126645546D02*
G01*
X119802466Y-126717234D01*
X119875725Y-126766184D01*
X119958227Y-126821310D01*
X120090690Y-126953773D01*
X120106353Y-126977215D01*
X120194766Y-127109534D01*
X120266454Y-127282605D01*
X120303000Y-127466333D01*
X120303000Y-127653667D01*
X120266454Y-127837395D01*
X120194766Y-128010466D01*
X120194765Y-128010467D01*
X120090690Y-128166227D01*
X119958227Y-128298690D01*
X119879818Y-128351081D01*
X119802466Y-128402766D01*
X119629395Y-128474454D01*
X119445667Y-128511000D01*
X119258333Y-128511000D01*
X119074605Y-128474454D01*
X118901534Y-128402766D01*
X118824182Y-128351081D01*
X118745773Y-128298690D01*
X118613310Y-128166227D01*
X118509235Y-128010467D01*
X118509234Y-128010466D01*
X118437546Y-127837395D01*
X118401000Y-127653667D01*
X118401000Y-127466333D01*
X118437546Y-127282605D01*
X118509234Y-127109534D01*
X118597647Y-126977215D01*
X118613310Y-126953773D01*
X118745773Y-126821310D01*
X118828275Y-126766184D01*
X118901534Y-126717234D01*
X119074605Y-126645546D01*
X119258333Y-126609000D01*
X119445667Y-126609000D01*
X119629395Y-126645546D01*
G37*
G36*
X94229395Y-126645546D02*
G01*
X94402466Y-126717234D01*
X94475725Y-126766184D01*
X94558227Y-126821310D01*
X94690690Y-126953773D01*
X94706353Y-126977215D01*
X94794766Y-127109534D01*
X94866454Y-127282605D01*
X94903000Y-127466333D01*
X94903000Y-127653667D01*
X94866454Y-127837395D01*
X94794766Y-128010466D01*
X94794765Y-128010467D01*
X94690690Y-128166227D01*
X94558227Y-128298690D01*
X94479818Y-128351081D01*
X94402466Y-128402766D01*
X94229395Y-128474454D01*
X94045667Y-128511000D01*
X93858333Y-128511000D01*
X93674605Y-128474454D01*
X93501534Y-128402766D01*
X93424182Y-128351081D01*
X93345773Y-128298690D01*
X93213310Y-128166227D01*
X93109235Y-128010467D01*
X93109234Y-128010466D01*
X93037546Y-127837395D01*
X93001000Y-127653667D01*
X93001000Y-127466333D01*
X93037546Y-127282605D01*
X93109234Y-127109534D01*
X93197647Y-126977215D01*
X93213310Y-126953773D01*
X93345773Y-126821310D01*
X93428275Y-126766184D01*
X93501534Y-126717234D01*
X93674605Y-126645546D01*
X93858333Y-126609000D01*
X94045667Y-126609000D01*
X94229395Y-126645546D01*
G37*
G36*
X83171628Y-126031703D02*
G01*
X83326500Y-126095853D01*
X83465881Y-126188985D01*
X83584415Y-126307519D01*
X83677547Y-126446900D01*
X83741697Y-126601772D01*
X83774400Y-126766184D01*
X83774400Y-126933816D01*
X83741697Y-127098228D01*
X83677547Y-127253100D01*
X83584415Y-127392481D01*
X83465881Y-127511015D01*
X83326500Y-127604147D01*
X83171628Y-127668297D01*
X83007216Y-127701000D01*
X82839584Y-127701000D01*
X82675172Y-127668297D01*
X82520300Y-127604147D01*
X82380919Y-127511015D01*
X82262385Y-127392481D01*
X82169253Y-127253100D01*
X82105103Y-127098228D01*
X82072400Y-126933816D01*
X82072400Y-126766184D01*
X82105103Y-126601772D01*
X82169253Y-126446900D01*
X82262385Y-126307519D01*
X82380919Y-126188985D01*
X82520300Y-126095853D01*
X82675172Y-126031703D01*
X82839584Y-125999000D01*
X83007216Y-125999000D01*
X83171628Y-126031703D01*
G37*
G36*
X57050787Y-125474123D02*
G01*
X57221855Y-125544982D01*
X57221857Y-125544983D01*
X57299358Y-125596768D01*
X57375814Y-125647854D01*
X57506746Y-125778786D01*
X57609618Y-125932745D01*
X57680477Y-126103813D01*
X57716600Y-126285417D01*
X57716600Y-126470583D01*
X57680477Y-126652187D01*
X57609618Y-126823255D01*
X57506746Y-126977214D01*
X57375814Y-127108146D01*
X57299358Y-127159232D01*
X57221857Y-127211017D01*
X57221856Y-127211018D01*
X57221855Y-127211018D01*
X57050787Y-127281877D01*
X56869183Y-127318000D01*
X56684017Y-127318000D01*
X56502413Y-127281877D01*
X56331345Y-127211018D01*
X56331344Y-127211018D01*
X56331343Y-127211017D01*
X56253842Y-127159232D01*
X56177386Y-127108146D01*
X56046454Y-126977214D01*
X55943582Y-126823255D01*
X55872723Y-126652187D01*
X55836600Y-126470583D01*
X55836600Y-126285417D01*
X55872723Y-126103813D01*
X55943582Y-125932745D01*
X56046454Y-125778786D01*
X56177386Y-125647854D01*
X56253842Y-125596768D01*
X56331343Y-125544983D01*
X56331345Y-125544982D01*
X56502413Y-125474123D01*
X56684017Y-125438000D01*
X56869183Y-125438000D01*
X57050787Y-125474123D01*
G37*
G36*
X51970787Y-125474123D02*
G01*
X52141855Y-125544982D01*
X52141857Y-125544983D01*
X52219358Y-125596768D01*
X52295814Y-125647854D01*
X52426746Y-125778786D01*
X52529618Y-125932745D01*
X52600477Y-126103813D01*
X52636600Y-126285417D01*
X52636600Y-126470583D01*
X52600477Y-126652187D01*
X52529618Y-126823255D01*
X52426746Y-126977214D01*
X52295814Y-127108146D01*
X52219358Y-127159232D01*
X52141857Y-127211017D01*
X52141856Y-127211018D01*
X52141855Y-127211018D01*
X51970787Y-127281877D01*
X51789183Y-127318000D01*
X51604017Y-127318000D01*
X51422413Y-127281877D01*
X51251345Y-127211018D01*
X51251344Y-127211018D01*
X51251343Y-127211017D01*
X51173842Y-127159232D01*
X51097386Y-127108146D01*
X50966454Y-126977214D01*
X50863582Y-126823255D01*
X50792723Y-126652187D01*
X50756600Y-126470583D01*
X50756600Y-126285417D01*
X50792723Y-126103813D01*
X50863582Y-125932745D01*
X50966454Y-125778786D01*
X51097386Y-125647854D01*
X51173842Y-125596768D01*
X51251343Y-125544983D01*
X51251345Y-125544982D01*
X51422413Y-125474123D01*
X51604017Y-125438000D01*
X51789183Y-125438000D01*
X51970787Y-125474123D01*
G37*
G36*
X40301587Y-124318996D02*
G01*
X40530398Y-124413773D01*
X40538355Y-124417069D01*
X40751439Y-124559447D01*
X40932653Y-124740661D01*
X41075032Y-124953747D01*
X41173104Y-125190513D01*
X41223100Y-125441861D01*
X41223100Y-125698139D01*
X41173104Y-125949487D01*
X41139048Y-126031705D01*
X41075031Y-126186255D01*
X40932653Y-126399339D01*
X40751439Y-126580553D01*
X40538355Y-126722931D01*
X40538354Y-126722932D01*
X40538353Y-126722932D01*
X40301587Y-126821004D01*
X40050239Y-126871000D01*
X39793961Y-126871000D01*
X39542613Y-126821004D01*
X39305847Y-126722932D01*
X39305846Y-126722932D01*
X39305845Y-126722931D01*
X39092761Y-126580553D01*
X38911547Y-126399339D01*
X38769169Y-126186255D01*
X38705152Y-126031705D01*
X38671096Y-125949487D01*
X38621100Y-125698139D01*
X38621100Y-125441861D01*
X38671096Y-125190513D01*
X38769168Y-124953747D01*
X38911547Y-124740661D01*
X39092761Y-124559447D01*
X39305845Y-124417069D01*
X39313802Y-124413773D01*
X39542613Y-124318996D01*
X39793961Y-124269000D01*
X40050239Y-124269000D01*
X40301587Y-124318996D01*
G37*
G36*
X119629395Y-124105546D02*
G01*
X119802466Y-124177234D01*
X119802467Y-124177235D01*
X119958227Y-124281310D01*
X120090690Y-124413773D01*
X120106353Y-124437215D01*
X120194766Y-124569534D01*
X120266454Y-124742605D01*
X120303000Y-124926333D01*
X120303000Y-125113667D01*
X120266454Y-125297395D01*
X120194766Y-125470466D01*
X120144976Y-125544982D01*
X120090690Y-125626227D01*
X119958227Y-125758690D01*
X119928151Y-125778786D01*
X119802466Y-125862766D01*
X119629395Y-125934454D01*
X119445667Y-125971000D01*
X119258333Y-125971000D01*
X119074605Y-125934454D01*
X118901534Y-125862766D01*
X118775849Y-125778786D01*
X118745773Y-125758690D01*
X118613310Y-125626227D01*
X118559024Y-125544982D01*
X118509234Y-125470466D01*
X118437546Y-125297395D01*
X118401000Y-125113667D01*
X118401000Y-124926333D01*
X118437546Y-124742605D01*
X118509234Y-124569534D01*
X118597647Y-124437215D01*
X118613310Y-124413773D01*
X118745773Y-124281310D01*
X118901533Y-124177235D01*
X118901534Y-124177234D01*
X119074605Y-124105546D01*
X119258333Y-124069000D01*
X119445667Y-124069000D01*
X119629395Y-124105546D01*
G37*
G36*
X94229395Y-124105546D02*
G01*
X94402466Y-124177234D01*
X94402467Y-124177235D01*
X94558227Y-124281310D01*
X94690690Y-124413773D01*
X94706353Y-124437215D01*
X94794766Y-124569534D01*
X94866454Y-124742605D01*
X94903000Y-124926333D01*
X94903000Y-125113667D01*
X94866454Y-125297395D01*
X94794766Y-125470466D01*
X94744976Y-125544982D01*
X94690690Y-125626227D01*
X94558227Y-125758690D01*
X94528151Y-125778786D01*
X94402466Y-125862766D01*
X94229395Y-125934454D01*
X94045667Y-125971000D01*
X93858333Y-125971000D01*
X93674605Y-125934454D01*
X93501534Y-125862766D01*
X93375849Y-125778786D01*
X93345773Y-125758690D01*
X93213310Y-125626227D01*
X93159024Y-125544982D01*
X93109234Y-125470466D01*
X93037546Y-125297395D01*
X93001000Y-125113667D01*
X93001000Y-124926333D01*
X93037546Y-124742605D01*
X93109234Y-124569534D01*
X93197647Y-124437215D01*
X93213310Y-124413773D01*
X93345773Y-124281310D01*
X93501533Y-124177235D01*
X93501534Y-124177234D01*
X93674605Y-124105546D01*
X93858333Y-124069000D01*
X94045667Y-124069000D01*
X94229395Y-124105546D01*
G37*
G36*
X51970787Y-122934123D02*
G01*
X52141855Y-123004982D01*
X52141857Y-123004983D01*
X52174460Y-123026768D01*
X52295814Y-123107854D01*
X52426746Y-123238786D01*
X52529618Y-123392745D01*
X52600477Y-123563813D01*
X52636600Y-123745417D01*
X52636600Y-123930583D01*
X52600477Y-124112187D01*
X52529618Y-124283255D01*
X52426746Y-124437214D01*
X52295814Y-124568146D01*
X52219358Y-124619232D01*
X52141857Y-124671017D01*
X52141856Y-124671018D01*
X52141855Y-124671018D01*
X51970787Y-124741877D01*
X51789183Y-124778000D01*
X51604017Y-124778000D01*
X51422413Y-124741877D01*
X51251345Y-124671018D01*
X51251344Y-124671018D01*
X51251343Y-124671017D01*
X51173842Y-124619232D01*
X51097386Y-124568146D01*
X50966454Y-124437214D01*
X50863582Y-124283255D01*
X50792723Y-124112187D01*
X50756600Y-123930583D01*
X50756600Y-123745417D01*
X50792723Y-123563813D01*
X50863582Y-123392745D01*
X50966454Y-123238786D01*
X51097386Y-123107854D01*
X51218740Y-123026768D01*
X51251343Y-123004983D01*
X51251345Y-123004982D01*
X51422413Y-122934123D01*
X51604017Y-122898000D01*
X51789183Y-122898000D01*
X51970787Y-122934123D01*
G37*
G36*
X57050787Y-122934123D02*
G01*
X57221855Y-123004982D01*
X57221857Y-123004983D01*
X57254460Y-123026768D01*
X57375814Y-123107854D01*
X57506746Y-123238786D01*
X57609618Y-123392745D01*
X57680477Y-123563813D01*
X57716600Y-123745417D01*
X57716600Y-123930583D01*
X57680477Y-124112187D01*
X57609618Y-124283255D01*
X57506746Y-124437214D01*
X57375814Y-124568146D01*
X57299358Y-124619232D01*
X57221857Y-124671017D01*
X57221856Y-124671018D01*
X57221855Y-124671018D01*
X57050787Y-124741877D01*
X56869183Y-124778000D01*
X56684017Y-124778000D01*
X56502413Y-124741877D01*
X56331345Y-124671018D01*
X56331344Y-124671018D01*
X56331343Y-124671017D01*
X56253842Y-124619232D01*
X56177386Y-124568146D01*
X56046454Y-124437214D01*
X55943582Y-124283255D01*
X55872723Y-124112187D01*
X55836600Y-123930583D01*
X55836600Y-123745417D01*
X55872723Y-123563813D01*
X55943582Y-123392745D01*
X56046454Y-123238786D01*
X56177386Y-123107854D01*
X56298740Y-123026768D01*
X56331343Y-123004983D01*
X56331345Y-123004982D01*
X56502413Y-122934123D01*
X56684017Y-122898000D01*
X56869183Y-122898000D01*
X57050787Y-122934123D01*
G37*
G36*
X94229395Y-121565546D02*
G01*
X94402466Y-121637234D01*
X94402467Y-121637235D01*
X94558227Y-121741310D01*
X94690690Y-121873773D01*
X94706353Y-121897215D01*
X94794766Y-122029534D01*
X94866454Y-122202605D01*
X94903000Y-122386333D01*
X94903000Y-122573667D01*
X94866454Y-122757395D01*
X94794766Y-122930466D01*
X94788393Y-122940004D01*
X94690690Y-123086227D01*
X94558227Y-123218690D01*
X94528151Y-123238786D01*
X94402466Y-123322766D01*
X94229395Y-123394454D01*
X94045667Y-123431000D01*
X93858333Y-123431000D01*
X93674605Y-123394454D01*
X93501534Y-123322766D01*
X93375849Y-123238786D01*
X93345773Y-123218690D01*
X93213310Y-123086227D01*
X93115607Y-122940004D01*
X93109234Y-122930466D01*
X93037546Y-122757395D01*
X93001000Y-122573667D01*
X93001000Y-122386333D01*
X93037546Y-122202605D01*
X93109234Y-122029534D01*
X93197647Y-121897215D01*
X93213310Y-121873773D01*
X93345773Y-121741310D01*
X93501533Y-121637235D01*
X93501534Y-121637234D01*
X93674605Y-121565546D01*
X93858333Y-121529000D01*
X94045667Y-121529000D01*
X94229395Y-121565546D01*
G37*
G36*
X119629395Y-121565546D02*
G01*
X119802466Y-121637234D01*
X119802467Y-121637235D01*
X119958227Y-121741310D01*
X120090690Y-121873773D01*
X120106353Y-121897215D01*
X120194766Y-122029534D01*
X120266454Y-122202605D01*
X120303000Y-122386333D01*
X120303000Y-122573667D01*
X120266454Y-122757395D01*
X120194766Y-122930466D01*
X120188393Y-122940004D01*
X120090690Y-123086227D01*
X119958227Y-123218690D01*
X119928151Y-123238786D01*
X119802466Y-123322766D01*
X119629395Y-123394454D01*
X119445667Y-123431000D01*
X119258333Y-123431000D01*
X119074605Y-123394454D01*
X118901534Y-123322766D01*
X118775849Y-123238786D01*
X118745773Y-123218690D01*
X118613310Y-123086227D01*
X118515607Y-122940004D01*
X118509234Y-122930466D01*
X118437546Y-122757395D01*
X118401000Y-122573667D01*
X118401000Y-122386333D01*
X118437546Y-122202605D01*
X118509234Y-122029534D01*
X118597647Y-121897215D01*
X118613310Y-121873773D01*
X118745773Y-121741310D01*
X118901533Y-121637235D01*
X118901534Y-121637234D01*
X119074605Y-121565546D01*
X119258333Y-121529000D01*
X119445667Y-121529000D01*
X119629395Y-121565546D01*
G37*
G36*
X76624666Y-120782765D02*
G01*
X76777834Y-120813232D01*
X76925950Y-120874584D01*
X76965583Y-120891000D01*
X76987303Y-120899997D01*
X77175820Y-121025960D01*
X77336140Y-121186280D01*
X77462103Y-121374797D01*
X77462104Y-121374799D01*
X77541115Y-121565547D01*
X77548868Y-121584266D01*
X77593100Y-121806636D01*
X77593100Y-122033364D01*
X77548868Y-122255734D01*
X77462103Y-122465203D01*
X77336140Y-122653720D01*
X77175820Y-122814040D01*
X76987303Y-122940003D01*
X76777834Y-123026768D01*
X76666649Y-123048884D01*
X76555465Y-123071000D01*
X76328735Y-123071000D01*
X76217551Y-123048884D01*
X76106366Y-123026768D01*
X75896897Y-122940003D01*
X75708380Y-122814040D01*
X75548060Y-122653720D01*
X75422097Y-122465203D01*
X75335332Y-122255734D01*
X75291100Y-122033364D01*
X75291100Y-121806636D01*
X75335332Y-121584266D01*
X75343086Y-121565547D01*
X75422096Y-121374799D01*
X75422097Y-121374797D01*
X75548060Y-121186280D01*
X75708380Y-121025960D01*
X75896897Y-120899997D01*
X75918618Y-120891000D01*
X75958250Y-120874584D01*
X76106366Y-120813232D01*
X76259534Y-120782765D01*
X76328735Y-120769000D01*
X76555465Y-120769000D01*
X76624666Y-120782765D01*
G37*
G36*
X65924666Y-120782765D02*
G01*
X66077834Y-120813232D01*
X66225950Y-120874584D01*
X66265583Y-120891000D01*
X66287303Y-120899997D01*
X66475820Y-121025960D01*
X66636140Y-121186280D01*
X66762103Y-121374797D01*
X66762104Y-121374799D01*
X66841115Y-121565547D01*
X66848868Y-121584266D01*
X66893100Y-121806636D01*
X66893100Y-122033364D01*
X66848868Y-122255734D01*
X66762103Y-122465203D01*
X66636140Y-122653720D01*
X66475820Y-122814040D01*
X66287303Y-122940003D01*
X66077834Y-123026768D01*
X65966649Y-123048884D01*
X65855465Y-123071000D01*
X65628735Y-123071000D01*
X65517551Y-123048884D01*
X65406366Y-123026768D01*
X65196897Y-122940003D01*
X65008380Y-122814040D01*
X64848060Y-122653720D01*
X64722097Y-122465203D01*
X64635332Y-122255734D01*
X64591100Y-122033364D01*
X64591100Y-121806636D01*
X64635332Y-121584266D01*
X64643086Y-121565547D01*
X64722096Y-121374799D01*
X64722097Y-121374797D01*
X64848060Y-121186280D01*
X65008380Y-121025960D01*
X65196897Y-120899997D01*
X65218618Y-120891000D01*
X65258250Y-120874584D01*
X65406366Y-120813232D01*
X65559534Y-120782765D01*
X65628735Y-120769000D01*
X65855465Y-120769000D01*
X65924666Y-120782765D01*
G37*
G36*
X57050787Y-120394123D02*
G01*
X57221855Y-120464982D01*
X57221857Y-120464983D01*
X57299358Y-120516768D01*
X57375814Y-120567854D01*
X57506746Y-120698786D01*
X57609618Y-120852745D01*
X57680477Y-121023813D01*
X57716600Y-121205417D01*
X57716600Y-121390583D01*
X57680477Y-121572187D01*
X57609618Y-121743255D01*
X57506746Y-121897214D01*
X57375814Y-122028146D01*
X57368003Y-122033365D01*
X57221857Y-122131017D01*
X57221856Y-122131018D01*
X57221855Y-122131018D01*
X57050787Y-122201877D01*
X56869183Y-122238000D01*
X56684017Y-122238000D01*
X56502413Y-122201877D01*
X56331345Y-122131018D01*
X56331344Y-122131018D01*
X56331343Y-122131017D01*
X56185197Y-122033365D01*
X56177386Y-122028146D01*
X56046454Y-121897214D01*
X55943582Y-121743255D01*
X55872723Y-121572187D01*
X55836600Y-121390583D01*
X55836600Y-121205417D01*
X55872723Y-121023813D01*
X55943582Y-120852745D01*
X56046454Y-120698786D01*
X56177386Y-120567854D01*
X56253842Y-120516768D01*
X56331343Y-120464983D01*
X56331345Y-120464982D01*
X56502413Y-120394123D01*
X56684017Y-120358000D01*
X56869183Y-120358000D01*
X57050787Y-120394123D01*
G37*
G36*
X51970787Y-120394123D02*
G01*
X52141855Y-120464982D01*
X52141857Y-120464983D01*
X52219358Y-120516768D01*
X52295814Y-120567854D01*
X52426746Y-120698786D01*
X52529618Y-120852745D01*
X52600477Y-121023813D01*
X52636600Y-121205417D01*
X52636600Y-121390583D01*
X52600477Y-121572187D01*
X52529618Y-121743255D01*
X52426746Y-121897214D01*
X52295814Y-122028146D01*
X52288003Y-122033365D01*
X52141857Y-122131017D01*
X52141856Y-122131018D01*
X52141855Y-122131018D01*
X51970787Y-122201877D01*
X51789183Y-122238000D01*
X51604017Y-122238000D01*
X51422413Y-122201877D01*
X51251345Y-122131018D01*
X51251344Y-122131018D01*
X51251343Y-122131017D01*
X51105197Y-122033365D01*
X51097386Y-122028146D01*
X50966454Y-121897214D01*
X50863582Y-121743255D01*
X50792723Y-121572187D01*
X50756600Y-121390583D01*
X50756600Y-121205417D01*
X50792723Y-121023813D01*
X50863582Y-120852745D01*
X50966454Y-120698786D01*
X51097386Y-120567854D01*
X51173842Y-120516768D01*
X51251343Y-120464983D01*
X51251345Y-120464982D01*
X51422413Y-120394123D01*
X51604017Y-120358000D01*
X51789183Y-120358000D01*
X51970787Y-120394123D01*
G37*
G36*
X40301587Y-119318996D02*
G01*
X40538353Y-119417068D01*
X40538355Y-119417069D01*
X40751439Y-119559447D01*
X40932653Y-119740661D01*
X41075032Y-119953747D01*
X41173104Y-120190513D01*
X41223100Y-120441861D01*
X41223100Y-120698139D01*
X41173104Y-120949487D01*
X41075032Y-121186253D01*
X41075031Y-121186255D01*
X40932653Y-121399339D01*
X40751439Y-121580553D01*
X40538355Y-121722931D01*
X40538354Y-121722932D01*
X40538353Y-121722932D01*
X40301587Y-121821004D01*
X40050239Y-121871000D01*
X39793961Y-121871000D01*
X39542613Y-121821004D01*
X39305847Y-121722932D01*
X39305846Y-121722932D01*
X39305845Y-121722931D01*
X39092761Y-121580553D01*
X38911547Y-121399339D01*
X38769169Y-121186255D01*
X38769168Y-121186253D01*
X38671096Y-120949487D01*
X38621100Y-120698139D01*
X38621100Y-120441861D01*
X38671096Y-120190513D01*
X38769168Y-119953747D01*
X38911547Y-119740661D01*
X39092761Y-119559447D01*
X39305845Y-119417069D01*
X39305847Y-119417068D01*
X39542613Y-119318996D01*
X39793961Y-119269000D01*
X40050239Y-119269000D01*
X40301587Y-119318996D01*
G37*
G36*
X119629395Y-119025546D02*
G01*
X119802466Y-119097234D01*
X119802467Y-119097235D01*
X119958227Y-119201310D01*
X120090690Y-119333773D01*
X120090691Y-119333775D01*
X120194766Y-119489534D01*
X120266454Y-119662605D01*
X120303000Y-119846333D01*
X120303000Y-120033667D01*
X120266454Y-120217395D01*
X120194766Y-120390466D01*
X120144976Y-120464982D01*
X120090690Y-120546227D01*
X119958227Y-120678690D01*
X119928151Y-120698786D01*
X119802466Y-120782766D01*
X119629395Y-120854454D01*
X119445667Y-120891000D01*
X119258333Y-120891000D01*
X119074605Y-120854454D01*
X118901534Y-120782766D01*
X118775849Y-120698786D01*
X118745773Y-120678690D01*
X118613310Y-120546227D01*
X118559024Y-120464982D01*
X118509234Y-120390466D01*
X118437546Y-120217395D01*
X118401000Y-120033667D01*
X118401000Y-119846333D01*
X118437546Y-119662605D01*
X118509234Y-119489534D01*
X118613309Y-119333775D01*
X118613310Y-119333773D01*
X118745773Y-119201310D01*
X118901533Y-119097235D01*
X118901534Y-119097234D01*
X119074605Y-119025546D01*
X119258333Y-118989000D01*
X119445667Y-118989000D01*
X119629395Y-119025546D01*
G37*
G36*
X94229395Y-119025546D02*
G01*
X94402466Y-119097234D01*
X94402467Y-119097235D01*
X94558227Y-119201310D01*
X94690690Y-119333773D01*
X94690691Y-119333775D01*
X94794766Y-119489534D01*
X94866454Y-119662605D01*
X94903000Y-119846333D01*
X94903000Y-120033667D01*
X94866454Y-120217395D01*
X94794766Y-120390466D01*
X94744976Y-120464982D01*
X94690690Y-120546227D01*
X94558227Y-120678690D01*
X94528151Y-120698786D01*
X94402466Y-120782766D01*
X94229395Y-120854454D01*
X94045667Y-120891000D01*
X93858333Y-120891000D01*
X93674605Y-120854454D01*
X93501534Y-120782766D01*
X93375849Y-120698786D01*
X93345773Y-120678690D01*
X93213310Y-120546227D01*
X93159024Y-120464982D01*
X93109234Y-120390466D01*
X93037546Y-120217395D01*
X93001000Y-120033667D01*
X93001000Y-119846333D01*
X93037546Y-119662605D01*
X93109234Y-119489534D01*
X93213309Y-119333775D01*
X93213310Y-119333773D01*
X93345773Y-119201310D01*
X93501533Y-119097235D01*
X93501534Y-119097234D01*
X93674605Y-119025546D01*
X93858333Y-118989000D01*
X94045667Y-118989000D01*
X94229395Y-119025546D01*
G37*
G36*
X87850328Y-117291703D02*
G01*
X88005200Y-117355853D01*
X88144581Y-117448985D01*
X88263115Y-117567519D01*
X88356247Y-117706900D01*
X88420397Y-117861772D01*
X88453100Y-118026184D01*
X88453100Y-118193816D01*
X88420397Y-118358228D01*
X88356247Y-118513100D01*
X88263115Y-118652481D01*
X88144581Y-118771015D01*
X88005200Y-118864147D01*
X87850328Y-118928297D01*
X87685916Y-118961000D01*
X87518284Y-118961000D01*
X87353872Y-118928297D01*
X87199000Y-118864147D01*
X87059619Y-118771015D01*
X86941085Y-118652481D01*
X86847953Y-118513100D01*
X86783803Y-118358228D01*
X86751100Y-118193816D01*
X86751100Y-118026184D01*
X86783803Y-117861772D01*
X86847953Y-117706900D01*
X86941085Y-117567519D01*
X87059619Y-117448985D01*
X87199000Y-117355853D01*
X87353872Y-117291703D01*
X87518284Y-117259000D01*
X87685916Y-117259000D01*
X87850328Y-117291703D01*
G37*
G36*
X82850328Y-117291703D02*
G01*
X83005200Y-117355853D01*
X83144581Y-117448985D01*
X83263115Y-117567519D01*
X83356247Y-117706900D01*
X83420397Y-117861772D01*
X83453100Y-118026184D01*
X83453100Y-118193816D01*
X83420397Y-118358228D01*
X83356247Y-118513100D01*
X83263115Y-118652481D01*
X83144581Y-118771015D01*
X83005200Y-118864147D01*
X82850328Y-118928297D01*
X82685916Y-118961000D01*
X82518284Y-118961000D01*
X82353872Y-118928297D01*
X82199000Y-118864147D01*
X82059619Y-118771015D01*
X81941085Y-118652481D01*
X81847953Y-118513100D01*
X81783803Y-118358228D01*
X81751100Y-118193816D01*
X81751100Y-118026184D01*
X81783803Y-117861772D01*
X81847953Y-117706900D01*
X81941085Y-117567519D01*
X82059619Y-117448985D01*
X82199000Y-117355853D01*
X82353872Y-117291703D01*
X82518284Y-117259000D01*
X82685916Y-117259000D01*
X82850328Y-117291703D01*
G37*
G36*
X119629395Y-116485546D02*
G01*
X119802466Y-116557234D01*
X119802467Y-116557235D01*
X119958227Y-116661310D01*
X120090690Y-116793773D01*
X120106353Y-116817215D01*
X120194766Y-116949534D01*
X120266454Y-117122605D01*
X120303000Y-117306333D01*
X120303000Y-117493667D01*
X120266454Y-117677395D01*
X120194766Y-117850466D01*
X120143081Y-117927818D01*
X120090690Y-118006227D01*
X119958227Y-118138690D01*
X119879818Y-118191081D01*
X119802466Y-118242766D01*
X119629395Y-118314454D01*
X119445667Y-118351000D01*
X119258333Y-118351000D01*
X119074605Y-118314454D01*
X118901534Y-118242766D01*
X118824182Y-118191081D01*
X118745773Y-118138690D01*
X118613310Y-118006227D01*
X118560919Y-117927818D01*
X118509234Y-117850466D01*
X118437546Y-117677395D01*
X118401000Y-117493667D01*
X118401000Y-117306333D01*
X118437546Y-117122605D01*
X118509234Y-116949534D01*
X118597647Y-116817215D01*
X118613310Y-116793773D01*
X118745773Y-116661310D01*
X118901533Y-116557235D01*
X118901534Y-116557234D01*
X119074605Y-116485546D01*
X119258333Y-116449000D01*
X119445667Y-116449000D01*
X119629395Y-116485546D01*
G37*
G36*
X94229395Y-116485546D02*
G01*
X94402466Y-116557234D01*
X94402467Y-116557235D01*
X94558227Y-116661310D01*
X94690690Y-116793773D01*
X94706353Y-116817215D01*
X94794766Y-116949534D01*
X94866454Y-117122605D01*
X94903000Y-117306333D01*
X94903000Y-117493667D01*
X94866454Y-117677395D01*
X94794766Y-117850466D01*
X94743081Y-117927818D01*
X94690690Y-118006227D01*
X94558227Y-118138690D01*
X94479818Y-118191081D01*
X94402466Y-118242766D01*
X94229395Y-118314454D01*
X94045667Y-118351000D01*
X93858333Y-118351000D01*
X93674605Y-118314454D01*
X93501534Y-118242766D01*
X93424182Y-118191081D01*
X93345773Y-118138690D01*
X93213310Y-118006227D01*
X93160919Y-117927818D01*
X93109234Y-117850466D01*
X93037546Y-117677395D01*
X93001000Y-117493667D01*
X93001000Y-117306333D01*
X93037546Y-117122605D01*
X93109234Y-116949534D01*
X93197647Y-116817215D01*
X93213310Y-116793773D01*
X93345773Y-116661310D01*
X93501533Y-116557235D01*
X93501534Y-116557234D01*
X93674605Y-116485546D01*
X93858333Y-116449000D01*
X94045667Y-116449000D01*
X94229395Y-116485546D01*
G37*
G36*
X52636600Y-117158000D02*
G01*
X50756600Y-117158000D01*
X50756600Y-115278000D01*
X52636600Y-115278000D01*
X52636600Y-117158000D01*
G37*
G36*
X57050787Y-115314123D02*
G01*
X57221855Y-115384982D01*
X57221857Y-115384983D01*
X57299358Y-115436768D01*
X57375814Y-115487854D01*
X57506746Y-115618786D01*
X57609618Y-115772745D01*
X57680477Y-115943813D01*
X57716600Y-116125417D01*
X57716600Y-116310583D01*
X57680477Y-116492187D01*
X57609618Y-116663255D01*
X57506746Y-116817214D01*
X57375814Y-116948146D01*
X57299358Y-116999232D01*
X57221857Y-117051017D01*
X57221856Y-117051018D01*
X57221855Y-117051018D01*
X57050787Y-117121877D01*
X56869183Y-117158000D01*
X56684017Y-117158000D01*
X56502413Y-117121877D01*
X56331345Y-117051018D01*
X56331344Y-117051018D01*
X56331343Y-117051017D01*
X56253842Y-116999232D01*
X56177386Y-116948146D01*
X56046454Y-116817214D01*
X55943582Y-116663255D01*
X55872723Y-116492187D01*
X55836600Y-116310583D01*
X55836600Y-116125417D01*
X55872723Y-115943813D01*
X55943582Y-115772745D01*
X56046454Y-115618786D01*
X56177386Y-115487854D01*
X56253842Y-115436768D01*
X56331343Y-115384983D01*
X56331345Y-115384982D01*
X56502413Y-115314123D01*
X56684017Y-115278000D01*
X56869183Y-115278000D01*
X57050787Y-115314123D01*
G37*
G36*
X40301587Y-114318996D02*
G01*
X40520164Y-114409534D01*
X40538355Y-114417069D01*
X40751439Y-114559447D01*
X40932653Y-114740661D01*
X41074978Y-114953665D01*
X41075032Y-114953747D01*
X41173104Y-115190513D01*
X41223100Y-115441861D01*
X41223100Y-115698139D01*
X41173104Y-115949487D01*
X41075032Y-116186253D01*
X41075031Y-116186255D01*
X40932653Y-116399339D01*
X40751439Y-116580553D01*
X40538355Y-116722931D01*
X40538354Y-116722932D01*
X40538353Y-116722932D01*
X40301587Y-116821004D01*
X40050239Y-116871000D01*
X39793961Y-116871000D01*
X39542613Y-116821004D01*
X39305847Y-116722932D01*
X39305846Y-116722932D01*
X39305845Y-116722931D01*
X39092761Y-116580553D01*
X38911547Y-116399339D01*
X38769169Y-116186255D01*
X38769168Y-116186253D01*
X38671096Y-115949487D01*
X38621100Y-115698139D01*
X38621100Y-115441861D01*
X38671096Y-115190513D01*
X38769168Y-114953747D01*
X38769223Y-114953665D01*
X38911547Y-114740661D01*
X39092761Y-114559447D01*
X39305845Y-114417069D01*
X39324036Y-114409534D01*
X39542613Y-114318996D01*
X39793961Y-114269000D01*
X40050239Y-114269000D01*
X40301587Y-114318996D01*
G37*
G36*
X119629395Y-113945546D02*
G01*
X119802466Y-114017234D01*
X119802467Y-114017235D01*
X119958227Y-114121310D01*
X120090690Y-114253773D01*
X120090691Y-114253775D01*
X120194766Y-114409534D01*
X120266454Y-114582605D01*
X120303000Y-114766333D01*
X120303000Y-114953667D01*
X120266454Y-115137395D01*
X120194766Y-115310466D01*
X120144976Y-115384982D01*
X120090690Y-115466227D01*
X119958227Y-115598690D01*
X119928151Y-115618786D01*
X119802466Y-115702766D01*
X119629395Y-115774454D01*
X119445667Y-115811000D01*
X119258333Y-115811000D01*
X119074605Y-115774454D01*
X118901534Y-115702766D01*
X118775849Y-115618786D01*
X118745773Y-115598690D01*
X118613310Y-115466227D01*
X118559024Y-115384982D01*
X118509234Y-115310466D01*
X118437546Y-115137395D01*
X118401000Y-114953667D01*
X118401000Y-114766333D01*
X118437546Y-114582605D01*
X118509234Y-114409534D01*
X118613309Y-114253775D01*
X118613310Y-114253773D01*
X118745773Y-114121310D01*
X118901533Y-114017235D01*
X118901534Y-114017234D01*
X119074605Y-113945546D01*
X119258333Y-113909000D01*
X119445667Y-113909000D01*
X119629395Y-113945546D01*
G37*
G36*
X94229395Y-113945546D02*
G01*
X94402466Y-114017234D01*
X94402467Y-114017235D01*
X94558227Y-114121310D01*
X94690690Y-114253773D01*
X94690691Y-114253775D01*
X94794766Y-114409534D01*
X94866454Y-114582605D01*
X94903000Y-114766333D01*
X94903000Y-114953667D01*
X94866454Y-115137395D01*
X94794766Y-115310466D01*
X94744976Y-115384982D01*
X94690690Y-115466227D01*
X94558227Y-115598690D01*
X94528151Y-115618786D01*
X94402466Y-115702766D01*
X94229395Y-115774454D01*
X94045667Y-115811000D01*
X93858333Y-115811000D01*
X93674605Y-115774454D01*
X93501534Y-115702766D01*
X93375849Y-115618786D01*
X93345773Y-115598690D01*
X93213310Y-115466227D01*
X93159024Y-115384982D01*
X93109234Y-115310466D01*
X93037546Y-115137395D01*
X93001000Y-114953667D01*
X93001000Y-114766333D01*
X93037546Y-114582605D01*
X93109234Y-114409534D01*
X93213309Y-114253775D01*
X93213310Y-114253773D01*
X93345773Y-114121310D01*
X93501533Y-114017235D01*
X93501534Y-114017234D01*
X93674605Y-113945546D01*
X93858333Y-113909000D01*
X94045667Y-113909000D01*
X94229395Y-113945546D01*
G37*
G36*
X119629395Y-111405546D02*
G01*
X119802466Y-111477234D01*
X119802467Y-111477235D01*
X119958227Y-111581310D01*
X120090690Y-111713773D01*
X120090691Y-111713775D01*
X120194766Y-111869534D01*
X120266454Y-112042605D01*
X120303000Y-112226333D01*
X120303000Y-112413667D01*
X120266454Y-112597395D01*
X120194766Y-112770466D01*
X120194765Y-112770467D01*
X120090690Y-112926227D01*
X119958227Y-113058690D01*
X119879818Y-113111081D01*
X119802466Y-113162766D01*
X119629395Y-113234454D01*
X119445667Y-113271000D01*
X119258333Y-113271000D01*
X119074605Y-113234454D01*
X118901534Y-113162766D01*
X118824182Y-113111081D01*
X118745773Y-113058690D01*
X118613310Y-112926227D01*
X118509235Y-112770467D01*
X118509234Y-112770466D01*
X118437546Y-112597395D01*
X118401000Y-112413667D01*
X118401000Y-112226333D01*
X118437546Y-112042605D01*
X118509234Y-111869534D01*
X118613309Y-111713775D01*
X118613310Y-111713773D01*
X118745773Y-111581310D01*
X118901533Y-111477235D01*
X118901534Y-111477234D01*
X119074605Y-111405546D01*
X119258333Y-111369000D01*
X119445667Y-111369000D01*
X119629395Y-111405546D01*
G37*
G36*
X94229395Y-111405546D02*
G01*
X94402466Y-111477234D01*
X94402467Y-111477235D01*
X94558227Y-111581310D01*
X94690690Y-111713773D01*
X94690691Y-111713775D01*
X94794766Y-111869534D01*
X94866454Y-112042605D01*
X94903000Y-112226333D01*
X94903000Y-112413667D01*
X94866454Y-112597395D01*
X94794766Y-112770466D01*
X94794765Y-112770467D01*
X94690690Y-112926227D01*
X94558227Y-113058690D01*
X94479818Y-113111081D01*
X94402466Y-113162766D01*
X94229395Y-113234454D01*
X94045667Y-113271000D01*
X93858333Y-113271000D01*
X93674605Y-113234454D01*
X93501534Y-113162766D01*
X93424182Y-113111081D01*
X93345773Y-113058690D01*
X93213310Y-112926227D01*
X93109235Y-112770467D01*
X93109234Y-112770466D01*
X93037546Y-112597395D01*
X93001000Y-112413667D01*
X93001000Y-112226333D01*
X93037546Y-112042605D01*
X93109234Y-111869534D01*
X93213309Y-111713775D01*
X93213310Y-111713773D01*
X93345773Y-111581310D01*
X93501533Y-111477235D01*
X93501534Y-111477234D01*
X93674605Y-111405546D01*
X93858333Y-111369000D01*
X94045667Y-111369000D01*
X94229395Y-111405546D01*
G37*
G36*
X40301587Y-109318996D02*
G01*
X40538353Y-109417068D01*
X40538355Y-109417069D01*
X40751439Y-109559447D01*
X40932653Y-109740661D01*
X41075014Y-109953719D01*
X41075032Y-109953747D01*
X41173104Y-110190513D01*
X41223100Y-110441861D01*
X41223100Y-110698139D01*
X41173104Y-110949487D01*
X41113617Y-111093100D01*
X41075031Y-111186255D01*
X40932653Y-111399339D01*
X40751439Y-111580553D01*
X40538355Y-111722931D01*
X40538354Y-111722932D01*
X40538353Y-111722932D01*
X40301587Y-111821004D01*
X40050239Y-111871000D01*
X39793961Y-111871000D01*
X39542613Y-111821004D01*
X39305847Y-111722932D01*
X39305846Y-111722932D01*
X39305845Y-111722931D01*
X39092761Y-111580553D01*
X38911547Y-111399339D01*
X38769169Y-111186255D01*
X38730583Y-111093100D01*
X38671096Y-110949487D01*
X38621100Y-110698139D01*
X38621100Y-110441861D01*
X38671096Y-110190513D01*
X38769168Y-109953747D01*
X38769187Y-109953719D01*
X38911547Y-109740661D01*
X39092761Y-109559447D01*
X39305845Y-109417069D01*
X39305847Y-109417068D01*
X39542613Y-109318996D01*
X39793961Y-109269000D01*
X40050239Y-109269000D01*
X40301587Y-109318996D01*
G37*
G36*
X66358228Y-109871703D02*
G01*
X66513100Y-109935853D01*
X66652481Y-110028985D01*
X66771015Y-110147519D01*
X66864147Y-110286900D01*
X66928297Y-110441772D01*
X66961000Y-110606184D01*
X66961000Y-110773816D01*
X66928297Y-110938228D01*
X66864147Y-111093100D01*
X66771015Y-111232481D01*
X66652481Y-111351015D01*
X66513100Y-111444147D01*
X66358228Y-111508297D01*
X66193816Y-111541000D01*
X66026184Y-111541000D01*
X65861772Y-111508297D01*
X65706900Y-111444147D01*
X65567519Y-111351015D01*
X65448985Y-111232481D01*
X65355853Y-111093100D01*
X65291703Y-110938228D01*
X65259000Y-110773816D01*
X65259000Y-110606184D01*
X65291703Y-110441772D01*
X65355853Y-110286900D01*
X65448985Y-110147519D01*
X65567519Y-110028985D01*
X65706900Y-109935853D01*
X65861772Y-109871703D01*
X66026184Y-109839000D01*
X66193816Y-109839000D01*
X66358228Y-109871703D01*
G37*
G36*
X76518228Y-109871703D02*
G01*
X76673100Y-109935853D01*
X76812481Y-110028985D01*
X76931015Y-110147519D01*
X77024147Y-110286900D01*
X77088297Y-110441772D01*
X77121000Y-110606184D01*
X77121000Y-110773816D01*
X77088297Y-110938228D01*
X77024147Y-111093100D01*
X76931015Y-111232481D01*
X76812481Y-111351015D01*
X76673100Y-111444147D01*
X76518228Y-111508297D01*
X76353816Y-111541000D01*
X76186184Y-111541000D01*
X76021772Y-111508297D01*
X75866900Y-111444147D01*
X75727519Y-111351015D01*
X75608985Y-111232481D01*
X75515853Y-111093100D01*
X75451703Y-110938228D01*
X75419000Y-110773816D01*
X75419000Y-110606184D01*
X75451703Y-110441772D01*
X75515853Y-110286900D01*
X75608985Y-110147519D01*
X75727519Y-110028985D01*
X75866900Y-109935853D01*
X76021772Y-109871703D01*
X76186184Y-109839000D01*
X76353816Y-109839000D01*
X76518228Y-109871703D01*
G37*
G36*
X119629395Y-108865546D02*
G01*
X119802466Y-108937234D01*
X119802467Y-108937235D01*
X119958227Y-109041310D01*
X120090690Y-109173773D01*
X120090691Y-109173775D01*
X120194766Y-109329534D01*
X120266454Y-109502605D01*
X120303000Y-109686333D01*
X120303000Y-109873667D01*
X120266454Y-110057395D01*
X120194766Y-110230466D01*
X120188393Y-110240004D01*
X120090690Y-110386227D01*
X119958227Y-110518690D01*
X119879818Y-110571081D01*
X119802466Y-110622766D01*
X119629395Y-110694454D01*
X119445667Y-110731000D01*
X119258333Y-110731000D01*
X119074605Y-110694454D01*
X118901534Y-110622766D01*
X118824182Y-110571081D01*
X118745773Y-110518690D01*
X118613310Y-110386227D01*
X118515607Y-110240004D01*
X118509234Y-110230466D01*
X118437546Y-110057395D01*
X118401000Y-109873667D01*
X118401000Y-109686333D01*
X118437546Y-109502605D01*
X118509234Y-109329534D01*
X118613309Y-109173775D01*
X118613310Y-109173773D01*
X118745773Y-109041310D01*
X118901533Y-108937235D01*
X118901534Y-108937234D01*
X119074605Y-108865546D01*
X119258333Y-108829000D01*
X119445667Y-108829000D01*
X119629395Y-108865546D01*
G37*
G36*
X94229395Y-108865546D02*
G01*
X94402466Y-108937234D01*
X94402467Y-108937235D01*
X94558227Y-109041310D01*
X94690690Y-109173773D01*
X94690691Y-109173775D01*
X94794766Y-109329534D01*
X94866454Y-109502605D01*
X94903000Y-109686333D01*
X94903000Y-109873667D01*
X94866454Y-110057395D01*
X94794766Y-110230466D01*
X94788393Y-110240004D01*
X94690690Y-110386227D01*
X94558227Y-110518690D01*
X94479818Y-110571081D01*
X94402466Y-110622766D01*
X94229395Y-110694454D01*
X94045667Y-110731000D01*
X93858333Y-110731000D01*
X93674605Y-110694454D01*
X93501534Y-110622766D01*
X93424182Y-110571081D01*
X93345773Y-110518690D01*
X93213310Y-110386227D01*
X93115607Y-110240004D01*
X93109234Y-110230466D01*
X93037546Y-110057395D01*
X93001000Y-109873667D01*
X93001000Y-109686333D01*
X93037546Y-109502605D01*
X93109234Y-109329534D01*
X93213309Y-109173775D01*
X93213310Y-109173773D01*
X93345773Y-109041310D01*
X93501533Y-108937235D01*
X93501534Y-108937234D01*
X93674605Y-108865546D01*
X93858333Y-108829000D01*
X94045667Y-108829000D01*
X94229395Y-108865546D01*
G37*
G36*
X59543100Y-110371000D02*
G01*
X57241100Y-110371000D01*
X57241100Y-108069000D01*
X59543100Y-108069000D01*
X59543100Y-110371000D01*
G37*
G36*
X48414666Y-108082765D02*
G01*
X48567834Y-108113232D01*
X48715950Y-108174584D01*
X48755583Y-108191000D01*
X48777303Y-108199997D01*
X48965820Y-108325960D01*
X49126140Y-108486280D01*
X49252103Y-108674797D01*
X49338868Y-108884266D01*
X49383100Y-109106636D01*
X49383100Y-109333364D01*
X49338868Y-109555734D01*
X49252103Y-109765203D01*
X49126140Y-109953720D01*
X48965820Y-110114040D01*
X48777303Y-110240003D01*
X48567834Y-110326768D01*
X48456649Y-110348884D01*
X48345465Y-110371000D01*
X48118735Y-110371000D01*
X48007551Y-110348884D01*
X47896366Y-110326768D01*
X47686897Y-110240003D01*
X47498380Y-110114040D01*
X47338060Y-109953720D01*
X47212097Y-109765203D01*
X47125332Y-109555734D01*
X47081100Y-109333364D01*
X47081100Y-109106636D01*
X47125332Y-108884266D01*
X47212097Y-108674797D01*
X47338060Y-108486280D01*
X47498380Y-108325960D01*
X47686897Y-108199997D01*
X47708618Y-108191000D01*
X47748250Y-108174584D01*
X47896366Y-108113232D01*
X48049534Y-108082765D01*
X48118735Y-108069000D01*
X48345465Y-108069000D01*
X48414666Y-108082765D01*
G37*
G36*
X119629395Y-106325546D02*
G01*
X119802466Y-106397234D01*
X119802467Y-106397235D01*
X119958227Y-106501310D01*
X120090690Y-106633773D01*
X120090691Y-106633775D01*
X120194766Y-106789534D01*
X120266454Y-106962605D01*
X120303000Y-107146333D01*
X120303000Y-107333667D01*
X120266454Y-107517395D01*
X120194766Y-107690466D01*
X120194765Y-107690467D01*
X120090690Y-107846227D01*
X119958227Y-107978690D01*
X119879818Y-108031081D01*
X119802466Y-108082766D01*
X119629395Y-108154454D01*
X119445667Y-108191000D01*
X119258333Y-108191000D01*
X119074605Y-108154454D01*
X118901534Y-108082766D01*
X118824182Y-108031081D01*
X118745773Y-107978690D01*
X118613310Y-107846227D01*
X118509235Y-107690467D01*
X118509234Y-107690466D01*
X118437546Y-107517395D01*
X118401000Y-107333667D01*
X118401000Y-107146333D01*
X118437546Y-106962605D01*
X118509234Y-106789534D01*
X118613309Y-106633775D01*
X118613310Y-106633773D01*
X118745773Y-106501310D01*
X118901533Y-106397235D01*
X118901534Y-106397234D01*
X119074605Y-106325546D01*
X119258333Y-106289000D01*
X119445667Y-106289000D01*
X119629395Y-106325546D01*
G37*
G36*
X94229395Y-106325546D02*
G01*
X94402466Y-106397234D01*
X94402467Y-106397235D01*
X94558227Y-106501310D01*
X94690690Y-106633773D01*
X94690691Y-106633775D01*
X94794766Y-106789534D01*
X94866454Y-106962605D01*
X94903000Y-107146333D01*
X94903000Y-107333667D01*
X94866454Y-107517395D01*
X94794766Y-107690466D01*
X94794765Y-107690467D01*
X94690690Y-107846227D01*
X94558227Y-107978690D01*
X94479818Y-108031081D01*
X94402466Y-108082766D01*
X94229395Y-108154454D01*
X94045667Y-108191000D01*
X93858333Y-108191000D01*
X93674605Y-108154454D01*
X93501534Y-108082766D01*
X93424182Y-108031081D01*
X93345773Y-107978690D01*
X93213310Y-107846227D01*
X93109235Y-107690467D01*
X93109234Y-107690466D01*
X93037546Y-107517395D01*
X93001000Y-107333667D01*
X93001000Y-107146333D01*
X93037546Y-106962605D01*
X93109234Y-106789534D01*
X93213309Y-106633775D01*
X93213310Y-106633773D01*
X93345773Y-106501310D01*
X93501533Y-106397235D01*
X93501534Y-106397234D01*
X93674605Y-106325546D01*
X93858333Y-106289000D01*
X94045667Y-106289000D01*
X94229395Y-106325546D01*
G37*
G36*
X41223100Y-106871000D02*
G01*
X38621100Y-106871000D01*
X38621100Y-104269000D01*
X41223100Y-104269000D01*
X41223100Y-106871000D01*
G37*
G36*
X119629395Y-103785546D02*
G01*
X119802466Y-103857234D01*
X119802467Y-103857235D01*
X119958227Y-103961310D01*
X120090690Y-104093773D01*
X120090691Y-104093775D01*
X120194766Y-104249534D01*
X120266454Y-104422605D01*
X120303000Y-104606333D01*
X120303000Y-104793667D01*
X120266454Y-104977395D01*
X120194766Y-105150466D01*
X120194765Y-105150467D01*
X120090690Y-105306227D01*
X119958227Y-105438690D01*
X119879818Y-105491081D01*
X119802466Y-105542766D01*
X119629395Y-105614454D01*
X119445667Y-105651000D01*
X119258333Y-105651000D01*
X119074605Y-105614454D01*
X118901534Y-105542766D01*
X118824182Y-105491081D01*
X118745773Y-105438690D01*
X118613310Y-105306227D01*
X118509235Y-105150467D01*
X118509234Y-105150466D01*
X118437546Y-104977395D01*
X118401000Y-104793667D01*
X118401000Y-104606333D01*
X118437546Y-104422605D01*
X118509234Y-104249534D01*
X118613309Y-104093775D01*
X118613310Y-104093773D01*
X118745773Y-103961310D01*
X118901533Y-103857235D01*
X118901534Y-103857234D01*
X119074605Y-103785546D01*
X119258333Y-103749000D01*
X119445667Y-103749000D01*
X119629395Y-103785546D01*
G37*
G36*
X94229395Y-103785546D02*
G01*
X94402466Y-103857234D01*
X94402467Y-103857235D01*
X94558227Y-103961310D01*
X94690690Y-104093773D01*
X94690691Y-104093775D01*
X94794766Y-104249534D01*
X94866454Y-104422605D01*
X94903000Y-104606333D01*
X94903000Y-104793667D01*
X94866454Y-104977395D01*
X94794766Y-105150466D01*
X94794765Y-105150467D01*
X94690690Y-105306227D01*
X94558227Y-105438690D01*
X94479818Y-105491081D01*
X94402466Y-105542766D01*
X94229395Y-105614454D01*
X94045667Y-105651000D01*
X93858333Y-105651000D01*
X93674605Y-105614454D01*
X93501534Y-105542766D01*
X93424182Y-105491081D01*
X93345773Y-105438690D01*
X93213310Y-105306227D01*
X93109235Y-105150467D01*
X93109234Y-105150466D01*
X93037546Y-104977395D01*
X93001000Y-104793667D01*
X93001000Y-104606333D01*
X93037546Y-104422605D01*
X93109234Y-104249534D01*
X93213309Y-104093775D01*
X93213310Y-104093773D01*
X93345773Y-103961310D01*
X93501533Y-103857235D01*
X93501534Y-103857234D01*
X93674605Y-103785546D01*
X93858333Y-103749000D01*
X94045667Y-103749000D01*
X94229395Y-103785546D01*
G37*
G36*
X80230328Y-103321703D02*
G01*
X80385200Y-103385853D01*
X80524581Y-103478985D01*
X80643115Y-103597519D01*
X80736247Y-103736900D01*
X80800397Y-103891772D01*
X80833100Y-104056184D01*
X80833100Y-104223816D01*
X80800397Y-104388228D01*
X80736247Y-104543100D01*
X80643115Y-104682481D01*
X80524581Y-104801015D01*
X80385200Y-104894147D01*
X80230328Y-104958297D01*
X80065916Y-104991000D01*
X79898284Y-104991000D01*
X79733872Y-104958297D01*
X79579000Y-104894147D01*
X79439619Y-104801015D01*
X79321085Y-104682481D01*
X79227953Y-104543100D01*
X79163803Y-104388228D01*
X79131100Y-104223816D01*
X79131100Y-104056184D01*
X79163803Y-103891772D01*
X79227953Y-103736900D01*
X79321085Y-103597519D01*
X79439619Y-103478985D01*
X79579000Y-103385853D01*
X79733872Y-103321703D01*
X79898284Y-103289000D01*
X80065916Y-103289000D01*
X80230328Y-103321703D01*
G37*
G36*
X90390328Y-103321703D02*
G01*
X90545200Y-103385853D01*
X90684581Y-103478985D01*
X90803115Y-103597519D01*
X90896247Y-103736900D01*
X90960397Y-103891772D01*
X90993100Y-104056184D01*
X90993100Y-104223816D01*
X90960397Y-104388228D01*
X90896247Y-104543100D01*
X90803115Y-104682481D01*
X90684581Y-104801015D01*
X90545200Y-104894147D01*
X90390328Y-104958297D01*
X90225916Y-104991000D01*
X90058284Y-104991000D01*
X89893872Y-104958297D01*
X89739000Y-104894147D01*
X89599619Y-104801015D01*
X89481085Y-104682481D01*
X89387953Y-104543100D01*
X89323803Y-104388228D01*
X89291100Y-104223816D01*
X89291100Y-104056184D01*
X89323803Y-103891772D01*
X89387953Y-103736900D01*
X89481085Y-103597519D01*
X89599619Y-103478985D01*
X89739000Y-103385853D01*
X89893872Y-103321703D01*
X90058284Y-103289000D01*
X90225916Y-103289000D01*
X90390328Y-103321703D01*
G37*
G36*
X75711159Y-103417860D02*
G01*
X75847832Y-103474472D01*
X75970835Y-103556660D01*
X76075440Y-103661265D01*
X76157628Y-103784268D01*
X76157629Y-103784270D01*
X76214240Y-103920941D01*
X76243100Y-104066032D01*
X76243100Y-104213968D01*
X76214240Y-104359059D01*
X76157628Y-104495732D01*
X76075440Y-104618735D01*
X75970835Y-104723340D01*
X75847832Y-104805528D01*
X75847831Y-104805529D01*
X75847830Y-104805529D01*
X75711159Y-104862140D01*
X75566068Y-104891000D01*
X75418132Y-104891000D01*
X75273041Y-104862140D01*
X75136370Y-104805529D01*
X75136369Y-104805529D01*
X75136368Y-104805528D01*
X75013365Y-104723340D01*
X74908760Y-104618735D01*
X74826572Y-104495732D01*
X74769960Y-104359059D01*
X74741100Y-104213968D01*
X74741100Y-104066032D01*
X74769960Y-103920941D01*
X74826571Y-103784270D01*
X74826572Y-103784268D01*
X74908760Y-103661265D01*
X75013365Y-103556660D01*
X75136368Y-103474472D01*
X75273041Y-103417860D01*
X75418132Y-103389000D01*
X75566068Y-103389000D01*
X75711159Y-103417860D01*
G37*
G36*
X66911159Y-103417860D02*
G01*
X67047832Y-103474472D01*
X67170835Y-103556660D01*
X67275440Y-103661265D01*
X67357628Y-103784268D01*
X67357629Y-103784270D01*
X67414240Y-103920941D01*
X67443100Y-104066032D01*
X67443100Y-104213968D01*
X67414240Y-104359059D01*
X67357628Y-104495732D01*
X67275440Y-104618735D01*
X67170835Y-104723340D01*
X67047832Y-104805528D01*
X67047831Y-104805529D01*
X67047830Y-104805529D01*
X66911159Y-104862140D01*
X66766068Y-104891000D01*
X66618132Y-104891000D01*
X66473041Y-104862140D01*
X66336370Y-104805529D01*
X66336369Y-104805529D01*
X66336368Y-104805528D01*
X66213365Y-104723340D01*
X66108760Y-104618735D01*
X66026572Y-104495732D01*
X65969960Y-104359059D01*
X65941100Y-104213968D01*
X65941100Y-104066032D01*
X65969960Y-103920941D01*
X66026571Y-103784270D01*
X66026572Y-103784268D01*
X66108760Y-103661265D01*
X66213365Y-103556660D01*
X66336368Y-103474472D01*
X66473041Y-103417860D01*
X66618132Y-103389000D01*
X66766068Y-103389000D01*
X66911159Y-103417860D01*
G37*
G36*
X54681325Y-102225983D02*
G01*
X54771990Y-102244017D01*
X54890464Y-102293091D01*
X54997088Y-102364335D01*
X55087765Y-102455012D01*
X55159009Y-102561636D01*
X55208083Y-102680110D01*
X55233100Y-102805882D01*
X55233100Y-102934118D01*
X55208083Y-103059890D01*
X55159009Y-103178364D01*
X55087765Y-103284988D01*
X54997088Y-103375665D01*
X54890464Y-103446909D01*
X54890463Y-103446910D01*
X54890462Y-103446910D01*
X54771990Y-103495983D01*
X54646219Y-103521000D01*
X54517981Y-103521000D01*
X54392210Y-103495983D01*
X54273738Y-103446910D01*
X54273737Y-103446910D01*
X54273736Y-103446909D01*
X54167112Y-103375665D01*
X54076435Y-103284988D01*
X54005191Y-103178364D01*
X53956117Y-103059890D01*
X53931100Y-102934118D01*
X53931100Y-102805882D01*
X53956117Y-102680110D01*
X54005191Y-102561636D01*
X54076435Y-102455012D01*
X54167112Y-102364335D01*
X54273736Y-102293091D01*
X54392210Y-102244017D01*
X54482875Y-102225983D01*
X54517981Y-102219000D01*
X54646219Y-102219000D01*
X54681325Y-102225983D01*
G37*
G36*
X94229395Y-101245546D02*
G01*
X94402466Y-101317234D01*
X94402467Y-101317235D01*
X94558227Y-101421310D01*
X94690690Y-101553773D01*
X94690691Y-101553775D01*
X94794766Y-101709534D01*
X94866454Y-101882605D01*
X94903000Y-102066333D01*
X94903000Y-102253667D01*
X94866454Y-102437395D01*
X94794766Y-102610466D01*
X94794765Y-102610467D01*
X94690690Y-102766227D01*
X94558227Y-102898690D01*
X94505205Y-102934118D01*
X94402466Y-103002766D01*
X94229395Y-103074454D01*
X94045667Y-103111000D01*
X93858333Y-103111000D01*
X93674605Y-103074454D01*
X93501534Y-103002766D01*
X93398795Y-102934118D01*
X93345773Y-102898690D01*
X93213310Y-102766227D01*
X93109235Y-102610467D01*
X93109234Y-102610466D01*
X93037546Y-102437395D01*
X93001000Y-102253667D01*
X93001000Y-102066333D01*
X93037546Y-101882605D01*
X93109234Y-101709534D01*
X93213309Y-101553775D01*
X93213310Y-101553773D01*
X93345773Y-101421310D01*
X93501533Y-101317235D01*
X93501534Y-101317234D01*
X93674605Y-101245546D01*
X93858333Y-101209000D01*
X94045667Y-101209000D01*
X94229395Y-101245546D01*
G37*
G36*
X119629395Y-101245546D02*
G01*
X119802466Y-101317234D01*
X119802467Y-101317235D01*
X119958227Y-101421310D01*
X120090690Y-101553773D01*
X120090691Y-101553775D01*
X120194766Y-101709534D01*
X120266454Y-101882605D01*
X120303000Y-102066333D01*
X120303000Y-102253667D01*
X120266454Y-102437395D01*
X120194766Y-102610466D01*
X120194765Y-102610467D01*
X120090690Y-102766227D01*
X119958227Y-102898690D01*
X119905205Y-102934118D01*
X119802466Y-103002766D01*
X119629395Y-103074454D01*
X119445667Y-103111000D01*
X119258333Y-103111000D01*
X119074605Y-103074454D01*
X118901534Y-103002766D01*
X118798795Y-102934118D01*
X118745773Y-102898690D01*
X118613310Y-102766227D01*
X118509235Y-102610467D01*
X118509234Y-102610466D01*
X118437546Y-102437395D01*
X118401000Y-102253667D01*
X118401000Y-102066333D01*
X118437546Y-101882605D01*
X118509234Y-101709534D01*
X118613309Y-101553775D01*
X118613310Y-101553773D01*
X118745773Y-101421310D01*
X118901533Y-101317235D01*
X118901534Y-101317234D01*
X119074605Y-101245546D01*
X119258333Y-101209000D01*
X119445667Y-101209000D01*
X119629395Y-101245546D01*
G37*
G36*
X66911159Y-100877860D02*
G01*
X67047832Y-100934472D01*
X67170835Y-101016660D01*
X67275440Y-101121265D01*
X67357628Y-101244268D01*
X67357629Y-101244270D01*
X67414240Y-101380941D01*
X67443100Y-101526032D01*
X67443100Y-101673968D01*
X67432429Y-101727616D01*
X67414240Y-101819059D01*
X67357628Y-101955732D01*
X67275440Y-102078735D01*
X67170835Y-102183340D01*
X67047832Y-102265528D01*
X67047831Y-102265529D01*
X67047830Y-102265529D01*
X66911159Y-102322140D01*
X66766068Y-102351000D01*
X66618132Y-102351000D01*
X66473041Y-102322140D01*
X66336370Y-102265529D01*
X66336369Y-102265529D01*
X66336368Y-102265528D01*
X66213365Y-102183340D01*
X66108760Y-102078735D01*
X66026572Y-101955732D01*
X65969960Y-101819059D01*
X65951771Y-101727616D01*
X65941100Y-101673968D01*
X65941100Y-101526032D01*
X65969960Y-101380941D01*
X66026571Y-101244270D01*
X66026572Y-101244268D01*
X66108760Y-101121265D01*
X66213365Y-101016660D01*
X66336368Y-100934472D01*
X66473041Y-100877860D01*
X66618132Y-100849000D01*
X66766068Y-100849000D01*
X66911159Y-100877860D01*
G37*
G36*
X75711159Y-100877860D02*
G01*
X75847832Y-100934472D01*
X75970835Y-101016660D01*
X76075440Y-101121265D01*
X76157628Y-101244268D01*
X76157629Y-101244270D01*
X76214240Y-101380941D01*
X76243100Y-101526032D01*
X76243100Y-101673968D01*
X76232429Y-101727616D01*
X76214240Y-101819059D01*
X76157628Y-101955732D01*
X76075440Y-102078735D01*
X75970835Y-102183340D01*
X75847832Y-102265528D01*
X75847831Y-102265529D01*
X75847830Y-102265529D01*
X75711159Y-102322140D01*
X75566068Y-102351000D01*
X75418132Y-102351000D01*
X75273041Y-102322140D01*
X75136370Y-102265529D01*
X75136369Y-102265529D01*
X75136368Y-102265528D01*
X75013365Y-102183340D01*
X74908760Y-102078735D01*
X74826572Y-101955732D01*
X74769960Y-101819059D01*
X74751771Y-101727616D01*
X74741100Y-101673968D01*
X74741100Y-101526032D01*
X74769960Y-101380941D01*
X74826571Y-101244270D01*
X74826572Y-101244268D01*
X74908760Y-101121265D01*
X75013365Y-101016660D01*
X75136368Y-100934472D01*
X75273041Y-100877860D01*
X75418132Y-100849000D01*
X75566068Y-100849000D01*
X75711159Y-100877860D01*
G37*
G36*
X53575955Y-100952140D02*
G01*
X53639718Y-100958420D01*
X53730504Y-100985960D01*
X53762436Y-100995646D01*
X53875525Y-101056094D01*
X53974654Y-101137446D01*
X54056006Y-101236575D01*
X54116454Y-101349664D01*
X54116455Y-101349668D01*
X54153680Y-101472382D01*
X54166249Y-101600000D01*
X54153680Y-101727618D01*
X54134790Y-101789890D01*
X54116454Y-101850336D01*
X54056006Y-101963425D01*
X53974654Y-102062554D01*
X53875525Y-102143906D01*
X53762436Y-102204354D01*
X53730504Y-102214040D01*
X53639718Y-102241580D01*
X53575955Y-102247860D01*
X53544074Y-102251000D01*
X53080126Y-102251000D01*
X53048245Y-102247860D01*
X52984482Y-102241580D01*
X52893696Y-102214040D01*
X52861764Y-102204354D01*
X52748675Y-102143906D01*
X52649546Y-102062554D01*
X52568194Y-101963425D01*
X52507746Y-101850336D01*
X52489410Y-101789890D01*
X52470520Y-101727618D01*
X52457951Y-101600000D01*
X52470520Y-101472382D01*
X52507745Y-101349668D01*
X52507746Y-101349664D01*
X52568194Y-101236575D01*
X52649546Y-101137446D01*
X52748675Y-101056094D01*
X52861764Y-100995646D01*
X52893696Y-100985960D01*
X52984482Y-100958420D01*
X53048245Y-100952140D01*
X53080126Y-100949000D01*
X53544074Y-100949000D01*
X53575955Y-100952140D01*
G37*
G36*
X56041990Y-100974017D02*
G01*
X56144939Y-101016660D01*
X56160464Y-101023091D01*
X56267088Y-101094335D01*
X56357765Y-101185012D01*
X56398213Y-101245546D01*
X56429010Y-101291638D01*
X56478083Y-101410110D01*
X56503100Y-101535881D01*
X56503100Y-101664119D01*
X56490470Y-101727616D01*
X56478083Y-101789890D01*
X56429009Y-101908364D01*
X56357765Y-102014988D01*
X56267088Y-102105665D01*
X56160464Y-102176909D01*
X56160463Y-102176910D01*
X56160462Y-102176910D01*
X56041990Y-102225983D01*
X55916219Y-102251000D01*
X55787981Y-102251000D01*
X55662210Y-102225983D01*
X55543738Y-102176910D01*
X55543737Y-102176910D01*
X55543736Y-102176909D01*
X55437112Y-102105665D01*
X55346435Y-102014988D01*
X55275191Y-101908364D01*
X55226117Y-101789890D01*
X55213730Y-101727616D01*
X55201100Y-101664119D01*
X55201100Y-101535881D01*
X55226117Y-101410110D01*
X55275190Y-101291638D01*
X55305988Y-101245546D01*
X55346435Y-101185012D01*
X55437112Y-101094335D01*
X55543736Y-101023091D01*
X55559262Y-101016660D01*
X55662210Y-100974017D01*
X55787981Y-100949000D01*
X55916219Y-100949000D01*
X56041990Y-100974017D01*
G37*
G36*
X119629395Y-98705546D02*
G01*
X119802466Y-98777234D01*
X119802467Y-98777235D01*
X119958227Y-98881310D01*
X120090690Y-99013773D01*
X120090691Y-99013775D01*
X120194766Y-99169534D01*
X120266454Y-99342605D01*
X120303000Y-99526333D01*
X120303000Y-99713667D01*
X120266454Y-99897395D01*
X120194766Y-100070466D01*
X120194765Y-100070467D01*
X120090690Y-100226227D01*
X119958227Y-100358690D01*
X119879818Y-100411081D01*
X119802466Y-100462766D01*
X119629395Y-100534454D01*
X119445667Y-100571000D01*
X119258333Y-100571000D01*
X119074605Y-100534454D01*
X118901534Y-100462766D01*
X118824182Y-100411081D01*
X118745773Y-100358690D01*
X118613310Y-100226227D01*
X118509235Y-100070467D01*
X118509234Y-100070466D01*
X118437546Y-99897395D01*
X118401000Y-99713667D01*
X118401000Y-99526333D01*
X118437546Y-99342605D01*
X118509234Y-99169534D01*
X118613309Y-99013775D01*
X118613310Y-99013773D01*
X118745773Y-98881310D01*
X118901533Y-98777235D01*
X118901534Y-98777234D01*
X119074605Y-98705546D01*
X119258333Y-98669000D01*
X119445667Y-98669000D01*
X119629395Y-98705546D01*
G37*
G36*
X94229395Y-98705546D02*
G01*
X94402466Y-98777234D01*
X94402467Y-98777235D01*
X94558227Y-98881310D01*
X94690690Y-99013773D01*
X94690691Y-99013775D01*
X94794766Y-99169534D01*
X94866454Y-99342605D01*
X94903000Y-99526333D01*
X94903000Y-99713667D01*
X94866454Y-99897395D01*
X94794766Y-100070466D01*
X94794765Y-100070467D01*
X94690690Y-100226227D01*
X94558227Y-100358690D01*
X94479818Y-100411081D01*
X94402466Y-100462766D01*
X94229395Y-100534454D01*
X94045667Y-100571000D01*
X93858333Y-100571000D01*
X93674605Y-100534454D01*
X93501534Y-100462766D01*
X93424182Y-100411081D01*
X93345773Y-100358690D01*
X93213310Y-100226227D01*
X93109235Y-100070467D01*
X93109234Y-100070466D01*
X93037546Y-99897395D01*
X93001000Y-99713667D01*
X93001000Y-99526333D01*
X93037546Y-99342605D01*
X93109234Y-99169534D01*
X93213309Y-99013775D01*
X93213310Y-99013773D01*
X93345773Y-98881310D01*
X93501533Y-98777235D01*
X93501534Y-98777234D01*
X93674605Y-98705546D01*
X93858333Y-98669000D01*
X94045667Y-98669000D01*
X94229395Y-98705546D01*
G37*
G36*
X75711159Y-98337860D02*
G01*
X75847832Y-98394472D01*
X75970835Y-98476660D01*
X76075440Y-98581265D01*
X76157628Y-98704268D01*
X76157629Y-98704270D01*
X76214240Y-98840941D01*
X76243100Y-98986032D01*
X76243100Y-99133968D01*
X76214240Y-99279059D01*
X76157628Y-99415732D01*
X76075440Y-99538735D01*
X75970835Y-99643340D01*
X75847832Y-99725528D01*
X75847831Y-99725529D01*
X75847830Y-99725529D01*
X75711159Y-99782140D01*
X75566068Y-99811000D01*
X75418132Y-99811000D01*
X75273041Y-99782140D01*
X75136370Y-99725529D01*
X75136369Y-99725529D01*
X75136368Y-99725528D01*
X75013365Y-99643340D01*
X74908760Y-99538735D01*
X74826572Y-99415732D01*
X74769960Y-99279059D01*
X74741100Y-99133968D01*
X74741100Y-98986032D01*
X74769960Y-98840941D01*
X74826571Y-98704270D01*
X74826572Y-98704268D01*
X74908760Y-98581265D01*
X75013365Y-98476660D01*
X75136368Y-98394472D01*
X75273041Y-98337860D01*
X75418132Y-98309000D01*
X75566068Y-98309000D01*
X75711159Y-98337860D01*
G37*
G36*
X67443100Y-99811000D02*
G01*
X65941100Y-99811000D01*
X65941100Y-98309000D01*
X67443100Y-98309000D01*
X67443100Y-99811000D01*
G37*
G36*
X119629395Y-96165546D02*
G01*
X119802466Y-96237234D01*
X119879818Y-96288919D01*
X119958227Y-96341310D01*
X120090690Y-96473773D01*
X120090691Y-96473775D01*
X120194766Y-96629534D01*
X120266454Y-96802605D01*
X120303000Y-96986333D01*
X120303000Y-97173667D01*
X120266454Y-97357395D01*
X120194766Y-97530466D01*
X120194765Y-97530467D01*
X120090690Y-97686227D01*
X119958227Y-97818690D01*
X119879818Y-97871081D01*
X119802466Y-97922766D01*
X119629395Y-97994454D01*
X119445667Y-98031000D01*
X119258333Y-98031000D01*
X119074605Y-97994454D01*
X118901534Y-97922766D01*
X118824182Y-97871081D01*
X118745773Y-97818690D01*
X118613310Y-97686227D01*
X118509235Y-97530467D01*
X118509234Y-97530466D01*
X118437546Y-97357395D01*
X118401000Y-97173667D01*
X118401000Y-96986333D01*
X118437546Y-96802605D01*
X118509234Y-96629534D01*
X118613309Y-96473775D01*
X118613310Y-96473773D01*
X118745773Y-96341310D01*
X118824182Y-96288919D01*
X118901534Y-96237234D01*
X119074605Y-96165546D01*
X119258333Y-96129000D01*
X119445667Y-96129000D01*
X119629395Y-96165546D01*
G37*
G36*
X94229395Y-96165546D02*
G01*
X94402466Y-96237234D01*
X94479818Y-96288919D01*
X94558227Y-96341310D01*
X94690690Y-96473773D01*
X94690691Y-96473775D01*
X94794766Y-96629534D01*
X94866454Y-96802605D01*
X94903000Y-96986333D01*
X94903000Y-97173667D01*
X94866454Y-97357395D01*
X94794766Y-97530466D01*
X94794765Y-97530467D01*
X94690690Y-97686227D01*
X94558227Y-97818690D01*
X94479818Y-97871081D01*
X94402466Y-97922766D01*
X94229395Y-97994454D01*
X94045667Y-98031000D01*
X93858333Y-98031000D01*
X93674605Y-97994454D01*
X93501534Y-97922766D01*
X93424182Y-97871081D01*
X93345773Y-97818690D01*
X93213310Y-97686227D01*
X93109235Y-97530467D01*
X93109234Y-97530466D01*
X93037546Y-97357395D01*
X93001000Y-97173667D01*
X93001000Y-96986333D01*
X93037546Y-96802605D01*
X93109234Y-96629534D01*
X93213309Y-96473775D01*
X93213310Y-96473773D01*
X93345773Y-96341310D01*
X93424182Y-96288919D01*
X93501534Y-96237234D01*
X93674605Y-96165546D01*
X93858333Y-96129000D01*
X94045667Y-96129000D01*
X94229395Y-96165546D01*
G37*
G36*
X46958664Y-95129389D02*
G01*
X47149933Y-95208615D01*
X47149935Y-95208616D01*
X47322073Y-95323635D01*
X47468465Y-95470027D01*
X47583485Y-95642167D01*
X47662711Y-95833436D01*
X47703100Y-96036484D01*
X47703100Y-96243516D01*
X47662711Y-96446564D01*
X47583485Y-96637833D01*
X47583484Y-96637835D01*
X47468465Y-96809973D01*
X47322073Y-96956365D01*
X47149935Y-97071384D01*
X47149934Y-97071385D01*
X47149933Y-97071385D01*
X46958664Y-97150611D01*
X46755616Y-97191000D01*
X46548584Y-97191000D01*
X46345536Y-97150611D01*
X46154267Y-97071385D01*
X46154266Y-97071385D01*
X46154265Y-97071384D01*
X45982127Y-96956365D01*
X45835735Y-96809973D01*
X45720716Y-96637835D01*
X45720715Y-96637833D01*
X45641489Y-96446564D01*
X45601100Y-96243516D01*
X45601100Y-96036484D01*
X45641489Y-95833436D01*
X45720715Y-95642167D01*
X45835735Y-95470027D01*
X45982127Y-95323635D01*
X46154265Y-95208616D01*
X46154267Y-95208615D01*
X46345536Y-95129389D01*
X46548584Y-95089000D01*
X46755616Y-95089000D01*
X46958664Y-95129389D01*
G37*
G36*
X86057028Y-94485003D02*
G01*
X86211900Y-94549153D01*
X86351281Y-94642285D01*
X86469815Y-94760819D01*
X86562947Y-94900200D01*
X86627097Y-95055072D01*
X86659800Y-95219484D01*
X86659800Y-95387116D01*
X86627097Y-95551528D01*
X86562947Y-95706400D01*
X86469815Y-95845781D01*
X86351281Y-95964315D01*
X86211900Y-96057447D01*
X86057028Y-96121597D01*
X85892616Y-96154300D01*
X85724984Y-96154300D01*
X85560572Y-96121597D01*
X85405700Y-96057447D01*
X85266319Y-95964315D01*
X85147785Y-95845781D01*
X85054653Y-95706400D01*
X84990503Y-95551528D01*
X84957800Y-95387116D01*
X84957800Y-95219484D01*
X84990503Y-95055072D01*
X85054653Y-94900200D01*
X85147785Y-94760819D01*
X85266319Y-94642285D01*
X85405700Y-94549153D01*
X85560572Y-94485003D01*
X85724984Y-94452300D01*
X85892616Y-94452300D01*
X86057028Y-94485003D01*
G37*
G36*
X94229395Y-93625546D02*
G01*
X94402466Y-93697234D01*
X94402467Y-93697235D01*
X94558227Y-93801310D01*
X94690690Y-93933773D01*
X94690691Y-93933775D01*
X94794766Y-94089534D01*
X94866454Y-94262605D01*
X94903000Y-94446333D01*
X94903000Y-94633667D01*
X94866454Y-94817395D01*
X94794766Y-94990466D01*
X94794765Y-94990467D01*
X94690690Y-95146227D01*
X94558227Y-95278690D01*
X94490962Y-95323635D01*
X94402466Y-95382766D01*
X94229395Y-95454454D01*
X94045667Y-95491000D01*
X93858333Y-95491000D01*
X93674605Y-95454454D01*
X93501534Y-95382766D01*
X93413038Y-95323635D01*
X93345773Y-95278690D01*
X93213310Y-95146227D01*
X93109235Y-94990467D01*
X93109234Y-94990466D01*
X93037546Y-94817395D01*
X93001000Y-94633667D01*
X93001000Y-94446333D01*
X93037546Y-94262605D01*
X93109234Y-94089534D01*
X93213309Y-93933775D01*
X93213310Y-93933773D01*
X93345773Y-93801310D01*
X93501533Y-93697235D01*
X93501534Y-93697234D01*
X93674605Y-93625546D01*
X93858333Y-93589000D01*
X94045667Y-93589000D01*
X94229395Y-93625546D01*
G37*
G36*
X119629395Y-93625546D02*
G01*
X119802466Y-93697234D01*
X119802467Y-93697235D01*
X119958227Y-93801310D01*
X120090690Y-93933773D01*
X120090691Y-93933775D01*
X120194766Y-94089534D01*
X120266454Y-94262605D01*
X120303000Y-94446333D01*
X120303000Y-94633667D01*
X120266454Y-94817395D01*
X120194766Y-94990466D01*
X120194765Y-94990467D01*
X120090690Y-95146227D01*
X119958227Y-95278690D01*
X119890962Y-95323635D01*
X119802466Y-95382766D01*
X119629395Y-95454454D01*
X119445667Y-95491000D01*
X119258333Y-95491000D01*
X119074605Y-95454454D01*
X118901534Y-95382766D01*
X118813038Y-95323635D01*
X118745773Y-95278690D01*
X118613310Y-95146227D01*
X118509235Y-94990467D01*
X118509234Y-94990466D01*
X118437546Y-94817395D01*
X118401000Y-94633667D01*
X118401000Y-94446333D01*
X118437546Y-94262605D01*
X118509234Y-94089534D01*
X118613309Y-93933775D01*
X118613310Y-93933773D01*
X118745773Y-93801310D01*
X118901533Y-93697235D01*
X118901534Y-93697234D01*
X119074605Y-93625546D01*
X119258333Y-93589000D01*
X119445667Y-93589000D01*
X119629395Y-93625546D01*
G37*
G36*
X58640328Y-91811703D02*
G01*
X58795200Y-91875853D01*
X58934581Y-91968985D01*
X59053115Y-92087519D01*
X59146247Y-92226900D01*
X59210397Y-92381772D01*
X59243100Y-92546184D01*
X59243100Y-92713816D01*
X59210397Y-92878228D01*
X59146247Y-93033100D01*
X59053115Y-93172481D01*
X58934581Y-93291015D01*
X58795200Y-93384147D01*
X58640328Y-93448297D01*
X58475916Y-93481000D01*
X58308284Y-93481000D01*
X58143872Y-93448297D01*
X57989000Y-93384147D01*
X57849619Y-93291015D01*
X57731085Y-93172481D01*
X57637953Y-93033100D01*
X57573803Y-92878228D01*
X57541100Y-92713816D01*
X57541100Y-92546184D01*
X57573803Y-92381772D01*
X57637953Y-92226900D01*
X57731085Y-92087519D01*
X57849619Y-91968985D01*
X57989000Y-91875853D01*
X58143872Y-91811703D01*
X58308284Y-91779000D01*
X58475916Y-91779000D01*
X58640328Y-91811703D01*
G37*
G36*
X119629395Y-91085546D02*
G01*
X119802466Y-91157234D01*
X119802467Y-91157235D01*
X119958227Y-91261310D01*
X120090690Y-91393773D01*
X120090691Y-91393775D01*
X120194766Y-91549534D01*
X120266454Y-91722605D01*
X120303000Y-91906333D01*
X120303000Y-92093667D01*
X120266454Y-92277395D01*
X120194766Y-92450466D01*
X120188393Y-92460004D01*
X120090690Y-92606227D01*
X119958227Y-92738690D01*
X119879818Y-92791081D01*
X119802466Y-92842766D01*
X119629395Y-92914454D01*
X119445667Y-92951000D01*
X119258333Y-92951000D01*
X119074605Y-92914454D01*
X118901534Y-92842766D01*
X118824182Y-92791081D01*
X118745773Y-92738690D01*
X118613310Y-92606227D01*
X118515607Y-92460004D01*
X118509234Y-92450466D01*
X118437546Y-92277395D01*
X118401000Y-92093667D01*
X118401000Y-91906333D01*
X118437546Y-91722605D01*
X118509234Y-91549534D01*
X118613309Y-91393775D01*
X118613310Y-91393773D01*
X118745773Y-91261310D01*
X118901533Y-91157235D01*
X118901534Y-91157234D01*
X119074605Y-91085546D01*
X119258333Y-91049000D01*
X119445667Y-91049000D01*
X119629395Y-91085546D01*
G37*
G36*
X94229395Y-91085546D02*
G01*
X94402466Y-91157234D01*
X94402467Y-91157235D01*
X94558227Y-91261310D01*
X94690690Y-91393773D01*
X94690691Y-91393775D01*
X94794766Y-91549534D01*
X94866454Y-91722605D01*
X94903000Y-91906333D01*
X94903000Y-92093667D01*
X94866454Y-92277395D01*
X94794766Y-92450466D01*
X94788393Y-92460004D01*
X94690690Y-92606227D01*
X94558227Y-92738690D01*
X94479818Y-92791081D01*
X94402466Y-92842766D01*
X94229395Y-92914454D01*
X94045667Y-92951000D01*
X93858333Y-92951000D01*
X93674605Y-92914454D01*
X93501534Y-92842766D01*
X93424182Y-92791081D01*
X93345773Y-92738690D01*
X93213310Y-92606227D01*
X93115607Y-92460004D01*
X93109234Y-92450466D01*
X93037546Y-92277395D01*
X93001000Y-92093667D01*
X93001000Y-91906333D01*
X93037546Y-91722605D01*
X93109234Y-91549534D01*
X93213309Y-91393775D01*
X93213310Y-91393773D01*
X93345773Y-91261310D01*
X93501533Y-91157235D01*
X93501534Y-91157234D01*
X93674605Y-91085546D01*
X93858333Y-91049000D01*
X94045667Y-91049000D01*
X94229395Y-91085546D01*
G37*
G36*
X78593100Y-92591000D02*
G01*
X76291100Y-92591000D01*
X76291100Y-90289000D01*
X78593100Y-90289000D01*
X78593100Y-92591000D01*
G37*
G36*
X67464666Y-90302765D02*
G01*
X67617834Y-90333232D01*
X67747919Y-90387115D01*
X67805583Y-90411000D01*
X67827303Y-90419997D01*
X68015820Y-90545960D01*
X68176140Y-90706280D01*
X68302103Y-90894797D01*
X68302104Y-90894799D01*
X68388868Y-91104267D01*
X68433100Y-91326635D01*
X68433100Y-91553365D01*
X68388868Y-91775733D01*
X68321724Y-91937835D01*
X68302103Y-91985203D01*
X68176140Y-92173720D01*
X68015820Y-92334040D01*
X67827303Y-92460003D01*
X67617834Y-92546768D01*
X67506649Y-92568884D01*
X67395465Y-92591000D01*
X67168735Y-92591000D01*
X67057551Y-92568884D01*
X66946366Y-92546768D01*
X66736897Y-92460003D01*
X66548380Y-92334040D01*
X66388060Y-92173720D01*
X66262097Y-91985203D01*
X66242477Y-91937835D01*
X66175332Y-91775733D01*
X66131100Y-91553365D01*
X66131100Y-91326635D01*
X66175332Y-91104267D01*
X66262096Y-90894799D01*
X66262097Y-90894797D01*
X66388060Y-90706280D01*
X66548380Y-90545960D01*
X66736897Y-90419997D01*
X66758618Y-90411000D01*
X66816281Y-90387115D01*
X66946366Y-90333232D01*
X67099534Y-90302765D01*
X67168735Y-90289000D01*
X67395465Y-90289000D01*
X67464666Y-90302765D01*
G37*
G36*
X50703100Y-92491000D02*
G01*
X48601100Y-92491000D01*
X48601100Y-90389000D01*
X50703100Y-90389000D01*
X50703100Y-92491000D01*
G37*
G36*
X43958664Y-90429389D02*
G01*
X44149933Y-90508615D01*
X44149935Y-90508616D01*
X44322073Y-90623635D01*
X44468465Y-90770027D01*
X44551834Y-90894797D01*
X44583485Y-90942167D01*
X44662711Y-91133436D01*
X44703100Y-91336484D01*
X44703100Y-91543516D01*
X44662711Y-91746564D01*
X44596532Y-91906335D01*
X44583484Y-91937835D01*
X44468465Y-92109973D01*
X44322073Y-92256365D01*
X44149935Y-92371384D01*
X44149934Y-92371385D01*
X44149933Y-92371385D01*
X43958664Y-92450611D01*
X43755616Y-92491000D01*
X43548584Y-92491000D01*
X43345536Y-92450611D01*
X43154267Y-92371385D01*
X43154266Y-92371385D01*
X43154265Y-92371384D01*
X42982127Y-92256365D01*
X42835735Y-92109973D01*
X42720716Y-91937835D01*
X42707668Y-91906335D01*
X42641489Y-91746564D01*
X42601100Y-91543516D01*
X42601100Y-91336484D01*
X42641489Y-91133436D01*
X42720715Y-90942167D01*
X42752367Y-90894797D01*
X42835735Y-90770027D01*
X42982127Y-90623635D01*
X43154265Y-90508616D01*
X43154267Y-90508615D01*
X43345536Y-90429389D01*
X43548584Y-90389000D01*
X43755616Y-90389000D01*
X43958664Y-90429389D01*
G37*
G36*
X86057028Y-89485003D02*
G01*
X86211900Y-89549153D01*
X86351281Y-89642285D01*
X86469815Y-89760819D01*
X86562947Y-89900200D01*
X86627097Y-90055072D01*
X86659800Y-90219484D01*
X86659800Y-90387116D01*
X86627097Y-90551528D01*
X86562947Y-90706400D01*
X86469815Y-90845781D01*
X86351281Y-90964315D01*
X86211900Y-91057447D01*
X86057028Y-91121597D01*
X85892616Y-91154300D01*
X85724984Y-91154300D01*
X85560572Y-91121597D01*
X85405700Y-91057447D01*
X85266319Y-90964315D01*
X85147785Y-90845781D01*
X85054653Y-90706400D01*
X84990503Y-90551528D01*
X84957800Y-90387116D01*
X84957800Y-90219484D01*
X84990503Y-90055072D01*
X85054653Y-89900200D01*
X85147785Y-89760819D01*
X85266319Y-89642285D01*
X85405700Y-89549153D01*
X85560572Y-89485003D01*
X85724984Y-89452300D01*
X85892616Y-89452300D01*
X86057028Y-89485003D01*
G37*
G36*
X94229395Y-88545546D02*
G01*
X94402466Y-88617234D01*
X94402467Y-88617235D01*
X94558227Y-88721310D01*
X94690690Y-88853773D01*
X94690691Y-88853775D01*
X94794766Y-89009534D01*
X94866454Y-89182605D01*
X94903000Y-89366333D01*
X94903000Y-89553667D01*
X94866454Y-89737395D01*
X94794766Y-89910466D01*
X94794765Y-89910467D01*
X94690690Y-90066227D01*
X94558227Y-90198690D01*
X94527106Y-90219484D01*
X94402466Y-90302766D01*
X94229395Y-90374454D01*
X94045667Y-90411000D01*
X93858333Y-90411000D01*
X93674605Y-90374454D01*
X93501534Y-90302766D01*
X93376894Y-90219484D01*
X93345773Y-90198690D01*
X93213310Y-90066227D01*
X93109235Y-89910467D01*
X93109234Y-89910466D01*
X93037546Y-89737395D01*
X93001000Y-89553667D01*
X93001000Y-89366333D01*
X93037546Y-89182605D01*
X93109234Y-89009534D01*
X93213309Y-88853775D01*
X93213310Y-88853773D01*
X93345773Y-88721310D01*
X93501533Y-88617235D01*
X93501534Y-88617234D01*
X93674605Y-88545546D01*
X93858333Y-88509000D01*
X94045667Y-88509000D01*
X94229395Y-88545546D01*
G37*
G36*
X119629395Y-88545546D02*
G01*
X119802466Y-88617234D01*
X119802467Y-88617235D01*
X119958227Y-88721310D01*
X120090690Y-88853773D01*
X120090691Y-88853775D01*
X120194766Y-89009534D01*
X120266454Y-89182605D01*
X120303000Y-89366333D01*
X120303000Y-89553667D01*
X120266454Y-89737395D01*
X120194766Y-89910466D01*
X120194765Y-89910467D01*
X120090690Y-90066227D01*
X119958227Y-90198690D01*
X119927106Y-90219484D01*
X119802466Y-90302766D01*
X119629395Y-90374454D01*
X119445667Y-90411000D01*
X119258333Y-90411000D01*
X119074605Y-90374454D01*
X118901534Y-90302766D01*
X118776894Y-90219484D01*
X118745773Y-90198690D01*
X118613310Y-90066227D01*
X118509235Y-89910467D01*
X118509234Y-89910466D01*
X118437546Y-89737395D01*
X118401000Y-89553667D01*
X118401000Y-89366333D01*
X118437546Y-89182605D01*
X118509234Y-89009534D01*
X118613309Y-88853775D01*
X118613310Y-88853773D01*
X118745773Y-88721310D01*
X118901533Y-88617235D01*
X118901534Y-88617234D01*
X119074605Y-88545546D01*
X119258333Y-88509000D01*
X119445667Y-88509000D01*
X119629395Y-88545546D01*
G37*
G36*
X58640328Y-86811703D02*
G01*
X58795200Y-86875853D01*
X58934581Y-86968985D01*
X59053115Y-87087519D01*
X59146247Y-87226900D01*
X59210397Y-87381772D01*
X59243100Y-87546184D01*
X59243100Y-87713816D01*
X59210397Y-87878228D01*
X59146247Y-88033100D01*
X59053115Y-88172481D01*
X58934581Y-88291015D01*
X58795200Y-88384147D01*
X58640328Y-88448297D01*
X58475916Y-88481000D01*
X58308284Y-88481000D01*
X58143872Y-88448297D01*
X57989000Y-88384147D01*
X57849619Y-88291015D01*
X57731085Y-88172481D01*
X57637953Y-88033100D01*
X57573803Y-87878228D01*
X57541100Y-87713816D01*
X57541100Y-87546184D01*
X57573803Y-87381772D01*
X57637953Y-87226900D01*
X57731085Y-87087519D01*
X57849619Y-86968985D01*
X57989000Y-86875853D01*
X58143872Y-86811703D01*
X58308284Y-86779000D01*
X58475916Y-86779000D01*
X58640328Y-86811703D01*
G37*
G36*
X94903000Y-87871000D02*
G01*
X93001000Y-87871000D01*
X93001000Y-85969000D01*
X94903000Y-85969000D01*
X94903000Y-87871000D01*
G37*
G36*
X119629395Y-86005546D02*
G01*
X119802466Y-86077234D01*
X119802467Y-86077235D01*
X119958227Y-86181310D01*
X120090690Y-86313773D01*
X120090691Y-86313775D01*
X120194766Y-86469534D01*
X120266454Y-86642605D01*
X120303000Y-86826333D01*
X120303000Y-87013667D01*
X120266454Y-87197395D01*
X120194766Y-87370466D01*
X120143081Y-87447818D01*
X120090690Y-87526227D01*
X119958227Y-87658690D01*
X119879818Y-87711081D01*
X119802466Y-87762766D01*
X119629395Y-87834454D01*
X119445667Y-87871000D01*
X119258333Y-87871000D01*
X119074605Y-87834454D01*
X118901534Y-87762766D01*
X118824182Y-87711081D01*
X118745773Y-87658690D01*
X118613310Y-87526227D01*
X118560919Y-87447818D01*
X118509234Y-87370466D01*
X118437546Y-87197395D01*
X118401000Y-87013667D01*
X118401000Y-86826333D01*
X118437546Y-86642605D01*
X118509234Y-86469534D01*
X118613309Y-86313775D01*
X118613310Y-86313773D01*
X118745773Y-86181310D01*
X118901533Y-86077235D01*
X118901534Y-86077234D01*
X119074605Y-86005546D01*
X119258333Y-85969000D01*
X119445667Y-85969000D01*
X119629395Y-86005546D01*
G37*
G36*
X77690328Y-83001703D02*
G01*
X77845200Y-83065853D01*
X77984581Y-83158985D01*
X78103115Y-83277519D01*
X78196247Y-83416900D01*
X78260397Y-83571772D01*
X78293100Y-83736184D01*
X78293100Y-83903816D01*
X78260397Y-84068228D01*
X78196247Y-84223100D01*
X78103115Y-84362481D01*
X77984581Y-84481015D01*
X77845200Y-84574147D01*
X77690328Y-84638297D01*
X77525916Y-84671000D01*
X77358284Y-84671000D01*
X77193872Y-84638297D01*
X77039000Y-84574147D01*
X76899619Y-84481015D01*
X76781085Y-84362481D01*
X76687953Y-84223100D01*
X76623803Y-84068228D01*
X76591100Y-83903816D01*
X76591100Y-83736184D01*
X76623803Y-83571772D01*
X76687953Y-83416900D01*
X76781085Y-83277519D01*
X76899619Y-83158985D01*
X77039000Y-83065853D01*
X77193872Y-83001703D01*
X77358284Y-82969000D01*
X77525916Y-82969000D01*
X77690328Y-83001703D01*
G37*
G36*
X67530328Y-83001703D02*
G01*
X67685200Y-83065853D01*
X67824581Y-83158985D01*
X67943115Y-83277519D01*
X68036247Y-83416900D01*
X68100397Y-83571772D01*
X68133100Y-83736184D01*
X68133100Y-83903816D01*
X68100397Y-84068228D01*
X68036247Y-84223100D01*
X67943115Y-84362481D01*
X67824581Y-84481015D01*
X67685200Y-84574147D01*
X67530328Y-84638297D01*
X67365916Y-84671000D01*
X67198284Y-84671000D01*
X67033872Y-84638297D01*
X66879000Y-84574147D01*
X66739619Y-84481015D01*
X66621085Y-84362481D01*
X66527953Y-84223100D01*
X66463803Y-84068228D01*
X66431100Y-83903816D01*
X66431100Y-83736184D01*
X66463803Y-83571772D01*
X66527953Y-83416900D01*
X66621085Y-83277519D01*
X66739619Y-83158985D01*
X66879000Y-83065853D01*
X67033872Y-83001703D01*
X67198284Y-82969000D01*
X67365916Y-82969000D01*
X67530328Y-83001703D01*
G37*
M02*
