G04 #@! TF.GenerationSoftware,KiCad,Pcbnew,5.1.6-c6e7f7d~87~ubuntu18.04.1*
G04 #@! TF.CreationDate,2020-07-18T23:18:46+02:00*
G04 #@! TF.ProjectId,interfonoRemoto,696e7465-7266-46f6-9e6f-52656d6f746f,A1*
G04 #@! TF.SameCoordinates,Original*
G04 #@! TF.FileFunction,Copper,L1,Top*
G04 #@! TF.FilePolarity,Positive*
%FSLAX46Y46*%
G04 Gerber Fmt 4.6, Leading zero omitted, Abs format (unit mm)*
G04 Created by KiCad (PCBNEW 5.1.6-c6e7f7d~87~ubuntu18.04.1) date 2020-07-18 23:18:46*
%MOMM*%
%LPD*%
G01*
G04 APERTURE LIST*
G04 #@! TA.AperFunction,ComponentPad*
%ADD10C,1.778000*%
G04 #@! TD*
G04 #@! TA.AperFunction,ComponentPad*
%ADD11R,1.778000X1.778000*%
G04 #@! TD*
G04 #@! TA.AperFunction,ComponentPad*
%ADD12O,1.200000X1.200000*%
G04 #@! TD*
G04 #@! TA.AperFunction,ComponentPad*
%ADD13O,1.600000X1.200000*%
G04 #@! TD*
G04 #@! TA.AperFunction,ComponentPad*
%ADD14R,2.000000X2.000000*%
G04 #@! TD*
G04 #@! TA.AperFunction,ComponentPad*
%ADD15C,2.000000*%
G04 #@! TD*
G04 #@! TA.AperFunction,ComponentPad*
%ADD16C,1.600000*%
G04 #@! TD*
G04 #@! TA.AperFunction,ComponentPad*
%ADD17O,2.200000X2.200000*%
G04 #@! TD*
G04 #@! TA.AperFunction,ComponentPad*
%ADD18R,2.200000X2.200000*%
G04 #@! TD*
G04 #@! TA.AperFunction,ComponentPad*
%ADD19C,1.800000*%
G04 #@! TD*
G04 #@! TA.AperFunction,ComponentPad*
%ADD20R,1.800000X1.800000*%
G04 #@! TD*
G04 #@! TA.AperFunction,ComponentPad*
%ADD21R,2.500000X2.500000*%
G04 #@! TD*
G04 #@! TA.AperFunction,ComponentPad*
%ADD22C,2.500000*%
G04 #@! TD*
G04 #@! TA.AperFunction,ComponentPad*
%ADD23O,1.600000X1.600000*%
G04 #@! TD*
G04 #@! TA.AperFunction,ComponentPad*
%ADD24C,2.200000*%
G04 #@! TD*
G04 #@! TA.AperFunction,ComponentPad*
%ADD25C,1.400000*%
G04 #@! TD*
G04 #@! TA.AperFunction,ComponentPad*
%ADD26R,1.400000X1.400000*%
G04 #@! TD*
G04 #@! TA.AperFunction,SMDPad,CuDef*
%ADD27R,0.450000X1.750000*%
G04 #@! TD*
G04 #@! TA.AperFunction,ViaPad*
%ADD28C,0.800000*%
G04 #@! TD*
G04 #@! TA.AperFunction,Conductor*
%ADD29C,0.250000*%
G04 #@! TD*
G04 #@! TA.AperFunction,Conductor*
%ADD30C,0.750000*%
G04 #@! TD*
G04 APERTURE END LIST*
D10*
X54853800Y-147025000D03*
X54853800Y-141945000D03*
X54853800Y-139405000D03*
X54853800Y-136865000D03*
X59933800Y-136865000D03*
X59933800Y-139405000D03*
X59933800Y-141945000D03*
D11*
X59933800Y-147025000D03*
D10*
X56776600Y-116218000D03*
X56776600Y-121298000D03*
X56776600Y-123838000D03*
X56776600Y-126378000D03*
X51696600Y-126378000D03*
X51696600Y-123838000D03*
X51696600Y-121298000D03*
D11*
X51696600Y-116218000D03*
D12*
X55852100Y-101600000D03*
X54582100Y-102870000D03*
D13*
X53312100Y-101600000D03*
D12*
X54272200Y-161056000D03*
X55542200Y-159786000D03*
D13*
X56812200Y-161056000D03*
D14*
X49652100Y-91440000D03*
D15*
X43652100Y-91440000D03*
X46652100Y-96140000D03*
D16*
X82602100Y-118110000D03*
X87602100Y-118110000D03*
X93070000Y-140360000D03*
X88070000Y-140360000D03*
X85808800Y-90303300D03*
X85808800Y-95303300D03*
X111580000Y-170400000D03*
X106580000Y-170400000D03*
X87150000Y-164890000D03*
X87150000Y-169890000D03*
X58392100Y-92630000D03*
X58392100Y-87630000D03*
X110840000Y-142680000D03*
X115840000Y-142680000D03*
D17*
X49865000Y-153500000D03*
D18*
X60025000Y-153500000D03*
D17*
X67282100Y-91440000D03*
D18*
X77442100Y-91440000D03*
D17*
X48232100Y-109220000D03*
D18*
X58392100Y-109220000D03*
D19*
X40718700Y-153706000D03*
D20*
X40718700Y-151166000D03*
D21*
X39922100Y-105570000D03*
D22*
X39922100Y-110570000D03*
X39922100Y-125570000D03*
X39922100Y-120570000D03*
X39922100Y-115570000D03*
D23*
X67282100Y-83820000D03*
D16*
X77442100Y-83820000D03*
D23*
X51117500Y-169004000D03*
D16*
X61277500Y-169004000D03*
D23*
X90142100Y-104140000D03*
D16*
X79982100Y-104140000D03*
D23*
X82923400Y-137010000D03*
D16*
X82923400Y-126850000D03*
D23*
X82783700Y-143223000D03*
D16*
X82783700Y-153383000D03*
D23*
X82820000Y-168910000D03*
D16*
X82820000Y-158750000D03*
D23*
X66110000Y-110690000D03*
D16*
X76270000Y-110690000D03*
D23*
X111510000Y-137890000D03*
D16*
X121670000Y-137890000D03*
D23*
X119180000Y-161530000D03*
D16*
X119180000Y-171690000D03*
D23*
X35260000Y-164970000D03*
D16*
X45420000Y-164970000D03*
D23*
X125950000Y-147610000D03*
D16*
X125950000Y-137450000D03*
D23*
X125722000Y-164445000D03*
D16*
X125722000Y-154285000D03*
D20*
X97500000Y-171000000D03*
D19*
X95000000Y-168460000D03*
X92500000Y-171000000D03*
D20*
X121150000Y-146450000D03*
D19*
X118610000Y-148950000D03*
X121150000Y-151450000D03*
D24*
X49502100Y-142900000D03*
D18*
X49502100Y-135890000D03*
D24*
X76442100Y-155550000D03*
D18*
X65742100Y-155550000D03*
D24*
X76442100Y-146050000D03*
X65742100Y-146050000D03*
X76442100Y-131420000D03*
D18*
X65742100Y-131420000D03*
D24*
X76442100Y-121920000D03*
X65742100Y-121920000D03*
D25*
X75492100Y-99060000D03*
X75492100Y-101600000D03*
X75492100Y-104140000D03*
X66692100Y-104140000D03*
X66692100Y-101600000D03*
D26*
X66692100Y-99060000D03*
D19*
X119352000Y-132640000D03*
X119352000Y-130100000D03*
X119352000Y-127560000D03*
X119352000Y-125020000D03*
X119352000Y-122480000D03*
X119352000Y-119940000D03*
X119352000Y-117400000D03*
X119352000Y-114860000D03*
X119352000Y-112320000D03*
X119352000Y-109780000D03*
X119352000Y-107240000D03*
X119352000Y-104700000D03*
X119352000Y-102160000D03*
X119352000Y-99620000D03*
X119352000Y-97080000D03*
X119352000Y-94540000D03*
X119352000Y-92000000D03*
X119352000Y-89460000D03*
X119352000Y-86920000D03*
X93952000Y-130100000D03*
X93952000Y-127560000D03*
X93952000Y-125020000D03*
X93952000Y-122480000D03*
X93952000Y-119940000D03*
X93952000Y-117400000D03*
X93952000Y-114860000D03*
X93952000Y-112320000D03*
X93952000Y-109780000D03*
X93952000Y-107240000D03*
X93952000Y-104700000D03*
X93952000Y-102160000D03*
X93952000Y-99620000D03*
X93952000Y-97080000D03*
X93952000Y-94540000D03*
X93952000Y-92000000D03*
X93952000Y-132640000D03*
X93952000Y-89460000D03*
D20*
X93952000Y-86920000D03*
D23*
X106690000Y-137970000D03*
D16*
X96530000Y-137970000D03*
D27*
X97200000Y-151925000D03*
X97850000Y-151925000D03*
X98500000Y-151925000D03*
X99150000Y-151925000D03*
X99800000Y-151925000D03*
X100450000Y-151925000D03*
X101100000Y-151925000D03*
X101750000Y-151925000D03*
X102400000Y-151925000D03*
X103050000Y-151925000D03*
X103050000Y-159125000D03*
X102400000Y-159125000D03*
X101750000Y-159125000D03*
X101100000Y-159125000D03*
X100450000Y-159125000D03*
X99800000Y-159125000D03*
X99150000Y-159125000D03*
X98500000Y-159125000D03*
X97850000Y-159125000D03*
X97200000Y-159125000D03*
D28*
X89990000Y-135510000D03*
X100850000Y-131780000D03*
X101350000Y-145175000D03*
X99800000Y-148700000D03*
X69355750Y-129474250D03*
X96875000Y-155200000D03*
X100925000Y-167075000D03*
X100000000Y-146500000D03*
X57130000Y-133870000D03*
X90300000Y-137530000D03*
X100680000Y-135680000D03*
X106735001Y-134894999D03*
X103400000Y-148000000D03*
X123800000Y-147200000D03*
X98575000Y-154225000D03*
X102370000Y-107200000D03*
X102340000Y-142770000D03*
X105130000Y-114320000D03*
X105140000Y-143389200D03*
X123275000Y-124825000D03*
D29*
X79770000Y-125590000D02*
X79770000Y-130750000D01*
X79770000Y-130750000D02*
X82610000Y-133590000D01*
X82610000Y-133590000D02*
X88070000Y-133590000D01*
X88070000Y-133590000D02*
X89990000Y-135510000D01*
X89990000Y-135510000D02*
X89990000Y-135510000D01*
X100850000Y-131780000D02*
X109840000Y-131780000D01*
X111510000Y-133450000D02*
X111510000Y-137890000D01*
X109840000Y-131780000D02*
X111510000Y-133450000D01*
X87602100Y-118110000D02*
X87390000Y-118110000D01*
X87390000Y-118110000D02*
X87000000Y-118500000D01*
X87000000Y-118500000D02*
X86000000Y-119500000D01*
X86000000Y-119500000D02*
X79770000Y-125590000D01*
X76442100Y-121920000D02*
X78792100Y-121920000D01*
X78792100Y-121920000D02*
X82602100Y-118110000D01*
D30*
X93952000Y-119940000D02*
X93952100Y-119940000D01*
X82923400Y-126850000D02*
X87041900Y-126850000D01*
X87041900Y-126850000D02*
X93952000Y-119940000D01*
X83923400Y-130206600D02*
X82923400Y-129206600D01*
X82923400Y-129206600D02*
X82923400Y-126850000D01*
X87526600Y-130206600D02*
X83923400Y-130206600D01*
X93070000Y-135750000D02*
X87526600Y-130206600D01*
X93070000Y-140360000D02*
X93070000Y-135750000D01*
D29*
X100450000Y-150013590D02*
X101350000Y-149113590D01*
X100450000Y-151925000D02*
X100450000Y-150013590D01*
X101350000Y-149113590D02*
X101350000Y-145175000D01*
X101350000Y-145175000D02*
X101350000Y-145175000D01*
X102400000Y-158000000D02*
X105075000Y-155325000D01*
X102400000Y-159125000D02*
X102400000Y-158000000D01*
X116602000Y-155325000D02*
X125722000Y-164445000D01*
X105075000Y-155325000D02*
X116602000Y-155325000D01*
D30*
X53312100Y-97712900D02*
X53312100Y-101600000D01*
X54582100Y-96442900D02*
X53312100Y-97712900D01*
X58392100Y-92630000D02*
X54582100Y-96440000D01*
X54582100Y-96440000D02*
X54582100Y-96442900D01*
X59950000Y-147025000D02*
X66615000Y-140360000D01*
X59933800Y-147025000D02*
X59950000Y-147025000D01*
X66615000Y-140360000D02*
X66890000Y-140360000D01*
X88070000Y-140360000D02*
X66890000Y-140360000D01*
D29*
X106580000Y-170400000D02*
X106580000Y-165355000D01*
X103050000Y-161825000D02*
X103050000Y-159125000D01*
X106580000Y-165355000D02*
X103050000Y-161825000D01*
X100450000Y-164270000D02*
X106580000Y-170400000D01*
X100450000Y-159125000D02*
X100450000Y-164270000D01*
X100450000Y-158089998D02*
X100450000Y-159125000D01*
X99800000Y-157439998D02*
X100450000Y-158089998D01*
X99800000Y-151925000D02*
X99800000Y-157439998D01*
X99800000Y-151925000D02*
X99800000Y-150800000D01*
X99800000Y-150800000D02*
X99800000Y-149575000D01*
X99800000Y-149575000D02*
X99800000Y-149575000D01*
X99800000Y-149575000D02*
X99800000Y-148700000D01*
X99800000Y-148700000D02*
X99800000Y-148700000D01*
X97200000Y-160250000D02*
X96225000Y-161225000D01*
X97200000Y-159125000D02*
X97200000Y-160250000D01*
X90815000Y-161225000D02*
X87150000Y-164890000D01*
X96225000Y-161225000D02*
X90815000Y-161225000D01*
X99140000Y-135360000D02*
X96530000Y-137970000D01*
X101200000Y-133290000D02*
X99140000Y-135350000D01*
X110840000Y-142680000D02*
X109290000Y-141130000D01*
X109290000Y-134430000D02*
X108150000Y-133290000D01*
X109290000Y-141130000D02*
X109290000Y-134430000D01*
X108150000Y-133290000D02*
X101200000Y-133290000D01*
X99140000Y-135350000D02*
X99140000Y-135360000D01*
X97200000Y-138640000D02*
X96530000Y-137970000D01*
X97200000Y-151925000D02*
X97200000Y-138640000D01*
X67542100Y-99060000D02*
X71172100Y-99060000D01*
X71172100Y-99060000D02*
X77442100Y-92790000D01*
X67542100Y-99060000D02*
X66692100Y-99060000D01*
X77442100Y-91440000D02*
X77442100Y-92790000D01*
X77442100Y-83820000D02*
X77442100Y-84951400D01*
X67282100Y-91440000D02*
X67282100Y-92865300D01*
X65759100Y-94388300D02*
X67282100Y-92865300D01*
X65742100Y-131420000D02*
X64416800Y-131420000D01*
X62126800Y-129130000D02*
X64416800Y-131420000D01*
X54024300Y-129130000D02*
X56776600Y-126378000D01*
X39922100Y-120570000D02*
X41072100Y-121720000D01*
X41072100Y-121720000D02*
X43940000Y-121720000D01*
X43940000Y-121720000D02*
X51350000Y-129130000D01*
X51350000Y-129130000D02*
X54024300Y-129130000D01*
X59528600Y-129130000D02*
X56776600Y-126378000D01*
X60580000Y-129130000D02*
X59528600Y-129130000D01*
X60580000Y-129130000D02*
X62126800Y-129130000D01*
X65759100Y-94388300D02*
X65759100Y-94390900D01*
X65759100Y-94390900D02*
X64740000Y-95410000D01*
X64740000Y-99647900D02*
X66692100Y-101600000D01*
X64740000Y-95410000D02*
X64740000Y-99647900D01*
X48232100Y-109220000D02*
X52570000Y-109220000D01*
X56776600Y-113426600D02*
X56776600Y-116218000D01*
X52570000Y-109220000D02*
X56776600Y-113426600D01*
X63900000Y-172850000D02*
X46350000Y-172850000D01*
X68575000Y-156625000D02*
X68575000Y-168175000D01*
X74034000Y-151166000D02*
X68575000Y-156625000D01*
X85546000Y-151166000D02*
X74034000Y-151166000D01*
X113660000Y-117400000D02*
X94770000Y-136290000D01*
X46350000Y-172850000D02*
X42925000Y-169425000D01*
X68575000Y-168175000D02*
X63900000Y-172850000D01*
X119352000Y-117400000D02*
X113660000Y-117400000D01*
X94590000Y-142130000D02*
X94582000Y-142130000D01*
X94582000Y-142130000D02*
X85546000Y-151166000D01*
X94770000Y-136290000D02*
X94770000Y-141950000D01*
X94770000Y-141950000D02*
X94590000Y-142130000D01*
X40718700Y-151166000D02*
X41066000Y-151166000D01*
X41066000Y-151166000D02*
X42925000Y-153025000D01*
X42925000Y-169425000D02*
X42925000Y-153025000D01*
X39922100Y-115570000D02*
X38295700Y-115570000D01*
X38295700Y-115570000D02*
X37360000Y-116506000D01*
X37360000Y-116506000D02*
X37360000Y-128930000D01*
X37360000Y-128930000D02*
X47835400Y-139405000D01*
X47835400Y-139405000D02*
X54853800Y-139405000D01*
X39922100Y-125570000D02*
X46098500Y-125570000D01*
X46098500Y-125570000D02*
X59933800Y-139405000D01*
X55887600Y-122948000D02*
X55887600Y-122949000D01*
X55079939Y-122140061D02*
X55887600Y-122948000D01*
X51859878Y-118920000D02*
X55079939Y-122140061D01*
X48272100Y-118920000D02*
X51859878Y-118920000D01*
X55887600Y-122949000D02*
X56776600Y-123838000D01*
X39922100Y-110570000D02*
X48272100Y-118920000D01*
X67282100Y-83820000D02*
X66000000Y-83820000D01*
X66000000Y-83820000D02*
X59690000Y-90130000D01*
X59690000Y-90130000D02*
X56762100Y-90130000D01*
X56762100Y-90130000D02*
X41322100Y-105570000D01*
X41322100Y-105570000D02*
X39922100Y-105570000D01*
X69355750Y-129474250D02*
X69355750Y-124914250D01*
X93952000Y-104700000D02*
X92800000Y-104700000D01*
X92800000Y-104700000D02*
X90000000Y-107500000D01*
X87000000Y-107500000D02*
X86000000Y-108500000D01*
X90000000Y-107500000D02*
X87000000Y-107500000D01*
X69355750Y-124914250D02*
X86000000Y-108500000D01*
X75492100Y-101600000D02*
X77442100Y-101600000D01*
X77442100Y-101600000D02*
X79982100Y-104140000D01*
X93952000Y-97080000D02*
X80012100Y-97080000D01*
X80012100Y-97080000D02*
X75492100Y-101600000D01*
X99150000Y-157475000D02*
X99150000Y-159125000D01*
X96875000Y-155200000D02*
X99150000Y-157475000D01*
X97500000Y-169950000D02*
X99000000Y-168450000D01*
X97500000Y-171000000D02*
X97500000Y-169950000D01*
X99150000Y-168300000D02*
X99000000Y-168450000D01*
X99150000Y-159125000D02*
X99150000Y-168300000D01*
X99800001Y-165950001D02*
X100925000Y-167075000D01*
X99800000Y-159125000D02*
X99800001Y-165950001D01*
X79620000Y-155550000D02*
X82820000Y-158750000D01*
X76442100Y-155550000D02*
X79620000Y-155550000D01*
X79930000Y-110690000D02*
X83939900Y-106680100D01*
X76270000Y-110690000D02*
X79930000Y-110690000D01*
X88314050Y-102314050D02*
X88314050Y-102305950D01*
X83948000Y-106680100D02*
X88314050Y-102314050D01*
X83939900Y-106680100D02*
X83948000Y-106680100D01*
X93367000Y-101575000D02*
X93396000Y-101604000D01*
X89045000Y-101575000D02*
X93367000Y-101575000D01*
X93396000Y-101604000D02*
X93952000Y-102160000D01*
X88314050Y-102305950D02*
X89045000Y-101575000D01*
X121670000Y-137890000D02*
X121670000Y-143610000D01*
X121150000Y-144130000D02*
X121150000Y-146450000D01*
X121670000Y-143610000D02*
X121150000Y-144130000D01*
X98500000Y-147500000D02*
X99500000Y-146500000D01*
X98500000Y-151925000D02*
X98500000Y-147500000D01*
X99500000Y-146500000D02*
X100000000Y-146500000D01*
X115710000Y-175160000D02*
X119180000Y-171690000D01*
X93394315Y-175160000D02*
X115710000Y-175160000D01*
X97850000Y-160250000D02*
X91825000Y-166275000D01*
X97850000Y-159125000D02*
X97850000Y-160250000D01*
X91825000Y-166275000D02*
X91825000Y-166675000D01*
X91825000Y-166675000D02*
X89500000Y-169000000D01*
X89500000Y-171265685D02*
X93394315Y-175160000D01*
X89500000Y-169000000D02*
X89500000Y-171265685D01*
X119180000Y-163380000D02*
X119180000Y-161530000D01*
X119172000Y-163388000D02*
X119180000Y-163380000D01*
X119172000Y-163388000D02*
X119172000Y-163040000D01*
X119172000Y-164165300D02*
X119172000Y-163388000D01*
X119172000Y-168278000D02*
X119172000Y-164165300D01*
X113810000Y-173640000D02*
X119172000Y-168278000D01*
X96780000Y-173640000D02*
X113810000Y-173640000D01*
X96728630Y-168460000D02*
X95000000Y-168460000D01*
X98500000Y-159125000D02*
X98500000Y-166688630D01*
X98500000Y-166688630D02*
X96728630Y-168460000D01*
X95000000Y-168460000D02*
X95000000Y-170500000D01*
X95000000Y-170500000D02*
X95000000Y-172000000D01*
X95000000Y-172000000D02*
X96780000Y-173640000D01*
X92500000Y-170960000D02*
X92500000Y-171000000D01*
X95000000Y-168460000D02*
X92500000Y-170960000D01*
X90300000Y-137530000D02*
X90300000Y-137530000D01*
X100680000Y-135680000D02*
X101470000Y-134890000D01*
X101470000Y-134890000D02*
X106450000Y-134890000D01*
X106454999Y-134894999D02*
X106450000Y-134890000D01*
X106454999Y-134894999D02*
X106735001Y-134894999D01*
X106735001Y-134894999D02*
X106735001Y-134894999D01*
X86980000Y-137530000D02*
X90300000Y-137530000D01*
X85820000Y-138750000D02*
X85820000Y-138690000D01*
X57130000Y-133870000D02*
X75570000Y-133870000D01*
X85820000Y-138690000D02*
X86980000Y-137530000D01*
X80450000Y-138750000D02*
X85820000Y-138750000D01*
X75570000Y-133870000D02*
X80450000Y-138750000D01*
X125095800Y-154285000D02*
X125722000Y-154285000D01*
X125980000Y-118948000D02*
X125980000Y-133300000D01*
X119352000Y-112320000D02*
X125980000Y-118948000D01*
X124375000Y-134905000D02*
X124440000Y-134840000D01*
X124440000Y-134840000D02*
X123850000Y-135430000D01*
X125980000Y-133300000D02*
X124440000Y-134840000D01*
X101750000Y-150800000D02*
X103400000Y-149150000D01*
X101750000Y-151925000D02*
X101750000Y-150800000D01*
X103400000Y-149150000D02*
X103400000Y-148000000D01*
X103400000Y-148000000D02*
X103400000Y-148000000D01*
X123800000Y-149040000D02*
X123800000Y-147200000D01*
X125722000Y-154285000D02*
X125722000Y-150962000D01*
X125722000Y-150962000D02*
X123800000Y-149040000D01*
X123800000Y-147200000D02*
X123800000Y-145600000D01*
X123850000Y-135430000D02*
X123800000Y-145600000D01*
X99150000Y-153050000D02*
X98575000Y-153625000D01*
X99150000Y-151925000D02*
X99150000Y-153050000D01*
X98575000Y-153625000D02*
X98575000Y-154225000D01*
X98575000Y-154225000D02*
X98575000Y-154225000D01*
X57450000Y-139461200D02*
X54853800Y-136865000D01*
X57450000Y-155010000D02*
X57450000Y-139461200D01*
X58900000Y-156460000D02*
X57450000Y-155010000D01*
X65742100Y-155550000D02*
X64832100Y-156460000D01*
X64832100Y-156460000D02*
X58900000Y-156460000D01*
X93992000Y-107200000D02*
X93952000Y-107240000D01*
X102370000Y-107200000D02*
X93992000Y-107200000D01*
X101100000Y-153050000D02*
X101100000Y-159125000D01*
X101100000Y-151925000D02*
X101100000Y-153050000D01*
X102350000Y-144975000D02*
X102350000Y-142775000D01*
X101100000Y-150325000D02*
X101100000Y-150000000D01*
X101100000Y-151925000D02*
X101100000Y-150325000D01*
X102340000Y-148760000D02*
X102340000Y-142770000D01*
X101100000Y-150000000D02*
X102340000Y-148760000D01*
X94731999Y-110559999D02*
X93952000Y-109780000D01*
X101369999Y-110559999D02*
X94731999Y-110559999D01*
X105130000Y-114320000D02*
X101369999Y-110559999D01*
X102400000Y-151925000D02*
X103050000Y-151925000D01*
X103050000Y-150350000D02*
X103400000Y-150000000D01*
X103050000Y-151925000D02*
X103050000Y-150350000D01*
X106200000Y-144449200D02*
X105140000Y-143389200D01*
X103400000Y-150000000D02*
X106200000Y-147200000D01*
X106200000Y-147200000D02*
X106200000Y-144449200D01*
X123275000Y-124825000D02*
X123275000Y-124825000D01*
X118275000Y-137400000D02*
X123275000Y-132400000D01*
X118275000Y-143825000D02*
X118275000Y-137400000D01*
X101750000Y-159125000D02*
X101750000Y-156300000D01*
X115525000Y-146575000D02*
X118275000Y-143825000D01*
X101750000Y-156300000D02*
X104450000Y-153600000D01*
X104450000Y-153600000D02*
X106050000Y-153600000D01*
X123275000Y-132400000D02*
X123275000Y-124825000D01*
X113175000Y-146575000D02*
X115525000Y-146575000D01*
X106050000Y-153600000D02*
X113175000Y-146575000D01*
X106412600Y-138247400D02*
X106690000Y-137970000D01*
X101960000Y-137970000D02*
X102125000Y-138050000D01*
X102125000Y-138050000D02*
X106690000Y-137970000D01*
X100000000Y-144500000D02*
X100275000Y-139900000D01*
X97850000Y-146650000D02*
X100000000Y-144500000D01*
X100275000Y-139900000D02*
X102125000Y-138050000D01*
X97850000Y-151925000D02*
X97850000Y-146650000D01*
X51117500Y-168032500D02*
X51117500Y-160332500D01*
X51117500Y-168032500D02*
X51117500Y-167878700D01*
X51117500Y-169004000D02*
X51117500Y-168032500D01*
X51117500Y-160332500D02*
X52700000Y-158750000D01*
X54506200Y-158750000D02*
X55542200Y-159786000D01*
X52700000Y-158750000D02*
X54506200Y-158750000D01*
X61884300Y-109184300D02*
X61884300Y-109175700D01*
X63390000Y-110690000D02*
X61884300Y-109184300D01*
X66110000Y-110690000D02*
X63390000Y-110690000D01*
X54582100Y-102870000D02*
X54630000Y-102870000D01*
X54630000Y-102870000D02*
X56760000Y-105000000D01*
X57700000Y-105000000D02*
X61884300Y-109184300D01*
X56760000Y-105000000D02*
X57700000Y-105000000D01*
M02*
