G04 #@! TF.GenerationSoftware,KiCad,Pcbnew,5.1.6-c6e7f7d~87~ubuntu18.04.1*
G04 #@! TF.CreationDate,2020-07-18T23:18:46+02:00*
G04 #@! TF.ProjectId,interfonoRemoto,696e7465-7266-46f6-9e6f-52656d6f746f,A1*
G04 #@! TF.SameCoordinates,Original*
G04 #@! TF.FileFunction,Copper,L2,Bot*
G04 #@! TF.FilePolarity,Positive*
%FSLAX46Y46*%
G04 Gerber Fmt 4.6, Leading zero omitted, Abs format (unit mm)*
G04 Created by KiCad (PCBNEW 5.1.6-c6e7f7d~87~ubuntu18.04.1) date 2020-07-18 23:18:46*
%MOMM*%
%LPD*%
G01*
G04 APERTURE LIST*
G04 #@! TA.AperFunction,ComponentPad*
%ADD10C,1.778000*%
G04 #@! TD*
G04 #@! TA.AperFunction,ComponentPad*
%ADD11R,1.778000X1.778000*%
G04 #@! TD*
G04 #@! TA.AperFunction,ComponentPad*
%ADD12O,1.200000X1.200000*%
G04 #@! TD*
G04 #@! TA.AperFunction,ComponentPad*
%ADD13O,1.600000X1.200000*%
G04 #@! TD*
G04 #@! TA.AperFunction,ComponentPad*
%ADD14R,2.000000X2.000000*%
G04 #@! TD*
G04 #@! TA.AperFunction,ComponentPad*
%ADD15C,2.000000*%
G04 #@! TD*
G04 #@! TA.AperFunction,ComponentPad*
%ADD16C,1.600000*%
G04 #@! TD*
G04 #@! TA.AperFunction,ComponentPad*
%ADD17O,2.200000X2.200000*%
G04 #@! TD*
G04 #@! TA.AperFunction,ComponentPad*
%ADD18R,2.200000X2.200000*%
G04 #@! TD*
G04 #@! TA.AperFunction,ComponentPad*
%ADD19C,1.800000*%
G04 #@! TD*
G04 #@! TA.AperFunction,ComponentPad*
%ADD20R,1.800000X1.800000*%
G04 #@! TD*
G04 #@! TA.AperFunction,ComponentPad*
%ADD21R,2.500000X2.500000*%
G04 #@! TD*
G04 #@! TA.AperFunction,ComponentPad*
%ADD22C,2.500000*%
G04 #@! TD*
G04 #@! TA.AperFunction,ComponentPad*
%ADD23O,1.600000X1.600000*%
G04 #@! TD*
G04 #@! TA.AperFunction,ComponentPad*
%ADD24C,2.200000*%
G04 #@! TD*
G04 #@! TA.AperFunction,ComponentPad*
%ADD25C,1.400000*%
G04 #@! TD*
G04 #@! TA.AperFunction,ComponentPad*
%ADD26R,1.400000X1.400000*%
G04 #@! TD*
G04 #@! TA.AperFunction,ViaPad*
%ADD27C,0.800000*%
G04 #@! TD*
G04 #@! TA.AperFunction,Conductor*
%ADD28C,0.250000*%
G04 #@! TD*
G04 #@! TA.AperFunction,Conductor*
%ADD29C,0.750000*%
G04 #@! TD*
G04 APERTURE END LIST*
D10*
X54853800Y-147025000D03*
X54853800Y-141945000D03*
X54853800Y-139405000D03*
X54853800Y-136865000D03*
X59933800Y-136865000D03*
X59933800Y-139405000D03*
X59933800Y-141945000D03*
D11*
X59933800Y-147025000D03*
D10*
X56776600Y-116218000D03*
X56776600Y-121298000D03*
X56776600Y-123838000D03*
X56776600Y-126378000D03*
X51696600Y-126378000D03*
X51696600Y-123838000D03*
X51696600Y-121298000D03*
D11*
X51696600Y-116218000D03*
D12*
X55852100Y-101600000D03*
X54582100Y-102870000D03*
D13*
X53312100Y-101600000D03*
D12*
X54272200Y-161056000D03*
X55542200Y-159786000D03*
D13*
X56812200Y-161056000D03*
D14*
X49652100Y-91440000D03*
D15*
X43652100Y-91440000D03*
X46652100Y-96140000D03*
D16*
X82602100Y-118110000D03*
X87602100Y-118110000D03*
X93070000Y-140360000D03*
X88070000Y-140360000D03*
X85808800Y-90303300D03*
X85808800Y-95303300D03*
X111580000Y-170400000D03*
X106580000Y-170400000D03*
X87150000Y-164890000D03*
X87150000Y-169890000D03*
X58392100Y-92630000D03*
X58392100Y-87630000D03*
X110840000Y-142680000D03*
X115840000Y-142680000D03*
D17*
X49865000Y-153500000D03*
D18*
X60025000Y-153500000D03*
D17*
X67282100Y-91440000D03*
D18*
X77442100Y-91440000D03*
D17*
X48232100Y-109220000D03*
D18*
X58392100Y-109220000D03*
D19*
X40718700Y-153706000D03*
D20*
X40718700Y-151166000D03*
D21*
X39922100Y-105570000D03*
D22*
X39922100Y-110570000D03*
X39922100Y-125570000D03*
X39922100Y-120570000D03*
X39922100Y-115570000D03*
D23*
X67282100Y-83820000D03*
D16*
X77442100Y-83820000D03*
D23*
X51117500Y-169004000D03*
D16*
X61277500Y-169004000D03*
D23*
X90142100Y-104140000D03*
D16*
X79982100Y-104140000D03*
D23*
X82923400Y-137010000D03*
D16*
X82923400Y-126850000D03*
D23*
X82783700Y-143223000D03*
D16*
X82783700Y-153383000D03*
D23*
X82820000Y-168910000D03*
D16*
X82820000Y-158750000D03*
D23*
X66110000Y-110690000D03*
D16*
X76270000Y-110690000D03*
D23*
X111510000Y-137890000D03*
D16*
X121670000Y-137890000D03*
D23*
X119180000Y-161530000D03*
D16*
X119180000Y-171690000D03*
D23*
X35260000Y-164970000D03*
D16*
X45420000Y-164970000D03*
D23*
X125950000Y-147610000D03*
D16*
X125950000Y-137450000D03*
D23*
X125722000Y-164445000D03*
D16*
X125722000Y-154285000D03*
D20*
X97500000Y-171000000D03*
D19*
X95000000Y-168460000D03*
X92500000Y-171000000D03*
D20*
X121150000Y-146450000D03*
D19*
X118610000Y-148950000D03*
X121150000Y-151450000D03*
D24*
X49502100Y-142900000D03*
D18*
X49502100Y-135890000D03*
D24*
X76442100Y-155550000D03*
D18*
X65742100Y-155550000D03*
D24*
X76442100Y-146050000D03*
X65742100Y-146050000D03*
X76442100Y-131420000D03*
D18*
X65742100Y-131420000D03*
D24*
X76442100Y-121920000D03*
X65742100Y-121920000D03*
D25*
X75492100Y-99060000D03*
X75492100Y-101600000D03*
X75492100Y-104140000D03*
X66692100Y-104140000D03*
X66692100Y-101600000D03*
D26*
X66692100Y-99060000D03*
D19*
X119352000Y-132640000D03*
X119352000Y-130100000D03*
X119352000Y-127560000D03*
X119352000Y-125020000D03*
X119352000Y-122480000D03*
X119352000Y-119940000D03*
X119352000Y-117400000D03*
X119352000Y-114860000D03*
X119352000Y-112320000D03*
X119352000Y-109780000D03*
X119352000Y-107240000D03*
X119352000Y-104700000D03*
X119352000Y-102160000D03*
X119352000Y-99620000D03*
X119352000Y-97080000D03*
X119352000Y-94540000D03*
X119352000Y-92000000D03*
X119352000Y-89460000D03*
X119352000Y-86920000D03*
X93952000Y-130100000D03*
X93952000Y-127560000D03*
X93952000Y-125020000D03*
X93952000Y-122480000D03*
X93952000Y-119940000D03*
X93952000Y-117400000D03*
X93952000Y-114860000D03*
X93952000Y-112320000D03*
X93952000Y-109780000D03*
X93952000Y-107240000D03*
X93952000Y-104700000D03*
X93952000Y-102160000D03*
X93952000Y-99620000D03*
X93952000Y-97080000D03*
X93952000Y-94540000D03*
X93952000Y-92000000D03*
X93952000Y-132640000D03*
X93952000Y-89460000D03*
D20*
X93952000Y-86920000D03*
D23*
X106690000Y-137970000D03*
D16*
X96530000Y-137970000D03*
D27*
X89990000Y-135510000D03*
X100850000Y-131780000D03*
X101350000Y-145175000D03*
X99800000Y-148700000D03*
X69355750Y-129474250D03*
X96875000Y-155200000D03*
X100925000Y-167075000D03*
X100000000Y-146500000D03*
X57130000Y-133870000D03*
X90300000Y-137530000D03*
X100680000Y-135680000D03*
X106735001Y-134894999D03*
X103400000Y-148000000D03*
X123800000Y-147200000D03*
X98575000Y-154225000D03*
X102370000Y-107200000D03*
X102340000Y-142770000D03*
X105130000Y-114320000D03*
X105140000Y-143389200D03*
X123275000Y-124825000D03*
D28*
X90389999Y-135110001D02*
X94869999Y-135110001D01*
X89990000Y-135510000D02*
X90389999Y-135110001D01*
X94869999Y-135110001D02*
X98200000Y-131780000D01*
X98200000Y-131780000D02*
X100850000Y-131780000D01*
X100850000Y-131780000D02*
X100850000Y-131780000D01*
X85480000Y-120987900D02*
X82602100Y-118110000D01*
X85480000Y-127620000D02*
X85480000Y-120987900D01*
X82923400Y-137010000D02*
X84108000Y-135825400D01*
X84108000Y-128992000D02*
X85480000Y-127620000D01*
X84108000Y-135825400D02*
X84108000Y-128992000D01*
X93952000Y-119940000D02*
X93952100Y-119940000D01*
D29*
X119352000Y-102160000D02*
X111732000Y-102160000D01*
D28*
X43477100Y-91614900D02*
X43477100Y-90965100D01*
X43477100Y-91914900D02*
X43477100Y-91614900D01*
D29*
X116800000Y-168642000D02*
X121525000Y-168642000D01*
X121525000Y-168642000D02*
X125722000Y-164445000D01*
X82923400Y-126850000D02*
X82923400Y-127982000D01*
X82923400Y-127982000D02*
X79484900Y-131420000D01*
X79484900Y-131420000D02*
X76442100Y-131420000D01*
X75492100Y-104140000D02*
X75492100Y-104989000D01*
X75492100Y-104989000D02*
X78840000Y-108336000D01*
X78840000Y-108336000D02*
X78840000Y-119280000D01*
X78840000Y-119280000D02*
X79980000Y-120420000D01*
X79980000Y-120420000D02*
X79980000Y-123907000D01*
X79980000Y-123907000D02*
X82923400Y-126850000D01*
X75492100Y-104140000D02*
X76340600Y-104140000D01*
X76340600Y-104140000D02*
X79940000Y-100541000D01*
X79940000Y-100541000D02*
X79940000Y-96172200D01*
X79940000Y-96172200D02*
X85808800Y-90303300D01*
D28*
X43652100Y-91440000D02*
X43477100Y-91614900D01*
X43477100Y-91614900D02*
X43477100Y-91914900D01*
X43652100Y-91440000D02*
X43652100Y-91914900D01*
X43652100Y-91914900D02*
X43477100Y-91914900D01*
X85008800Y-91103300D02*
X85808800Y-90303300D01*
D29*
X118248914Y-86920000D02*
X115920000Y-89248914D01*
X119352000Y-86920000D02*
X118248914Y-86920000D01*
X115920000Y-98728000D02*
X119352000Y-102160000D01*
X115920000Y-89248914D02*
X115920000Y-98728000D01*
X84865000Y-172175000D02*
X87150000Y-169890000D01*
X76442100Y-131420000D02*
X76442100Y-137828000D01*
X76442100Y-137828000D02*
X71150000Y-143120000D01*
X71150000Y-169140000D02*
X74230000Y-172220000D01*
X74230000Y-172220000D02*
X84820000Y-172220000D01*
X71150000Y-143120000D02*
X71150000Y-169140000D01*
X84820000Y-172220000D02*
X84865000Y-172175000D01*
X59523400Y-92630000D02*
X58392100Y-92630000D01*
X62573400Y-95680000D02*
X59523400Y-92630000D01*
X67040000Y-95680000D02*
X62573400Y-95680000D01*
X67800000Y-96440000D02*
X67040000Y-95680000D01*
X67800000Y-96447900D02*
X67800000Y-96440000D01*
X75492100Y-104140000D02*
X67800000Y-96447900D01*
X43913900Y-92815100D02*
X42913900Y-92815100D01*
X42850000Y-92751200D02*
X42850000Y-97290000D01*
X42850000Y-97290000D02*
X44930000Y-99370000D01*
X42913900Y-92815100D02*
X42850000Y-92751200D01*
X65590000Y-126790000D02*
X71812100Y-126790000D01*
X62910000Y-129470000D02*
X65590000Y-126790000D01*
X71812100Y-126790000D02*
X76442100Y-131420000D01*
X62850000Y-129470000D02*
X62910000Y-129470000D01*
X111732100Y-170247900D02*
X111580000Y-170400000D01*
X114469370Y-168642000D02*
X116800000Y-168642000D01*
X112711370Y-170400000D02*
X114469370Y-168642000D01*
X111580000Y-170400000D02*
X112711370Y-170400000D01*
X127950000Y-145780000D02*
X127950000Y-162217000D01*
X127950000Y-162217000D02*
X125722000Y-164445000D01*
X127990000Y-145740000D02*
X127950000Y-145780000D01*
X115840000Y-142680000D02*
X124930000Y-142680000D01*
X124930000Y-142680000D02*
X127990000Y-145740000D01*
X99046036Y-114846036D02*
X99046036Y-106693964D01*
X99046036Y-114846036D02*
X93952100Y-119940000D01*
X103580000Y-102160000D02*
X111732000Y-102160000D01*
X99046036Y-106693964D02*
X103580000Y-102160000D01*
X113475000Y-145000000D02*
X115840000Y-142680000D01*
X113300000Y-145175000D02*
X113475000Y-145000000D01*
X101350000Y-145175000D02*
X113300000Y-145175000D01*
X96535000Y-140360000D02*
X93070000Y-140360000D01*
X101350000Y-145175000D02*
X96535000Y-140360000D01*
X51082100Y-99370000D02*
X53312100Y-101600000D01*
X44930000Y-99370000D02*
X51082100Y-99370000D01*
X56819000Y-161056000D02*
X62850000Y-155025000D01*
X56812200Y-161056000D02*
X56819000Y-161056000D01*
X62850000Y-155025000D02*
X62850000Y-154900000D01*
X62850000Y-154900000D02*
X62850000Y-129470000D01*
X48651100Y-143751000D02*
X49502100Y-142900000D01*
X44800000Y-151380000D02*
X48651100Y-147529000D01*
X44800000Y-153090000D02*
X44800000Y-151380000D01*
X48651100Y-147529000D02*
X48651100Y-143751000D01*
X56812200Y-162762800D02*
X54404000Y-165171000D01*
X56812200Y-161056000D02*
X56812200Y-162762800D01*
X50827500Y-165171000D02*
X46890000Y-161233000D01*
X46890000Y-161233000D02*
X46890000Y-155180000D01*
X54404000Y-165171000D02*
X50827500Y-165171000D01*
X46890000Y-155180000D02*
X44800000Y-153090000D01*
X50798000Y-92815100D02*
X49390300Y-92815100D01*
X56593500Y-96283500D02*
X54266500Y-96283500D01*
X54266500Y-96283500D02*
X50798000Y-92815100D01*
D28*
X50798000Y-91565900D02*
X50798000Y-92815100D01*
D29*
X52299000Y-90064900D02*
X49390300Y-90064900D01*
X58392100Y-87630000D02*
X56780700Y-87630000D01*
X56780700Y-87630000D02*
X54345800Y-90064900D01*
X54345800Y-90064900D02*
X52299000Y-90064900D01*
X56655000Y-96345000D02*
X58392100Y-98082100D01*
X58392100Y-98082100D02*
X58392100Y-109220000D01*
X56593500Y-96283500D02*
X56655000Y-96345000D01*
X56593500Y-96283500D02*
X56655000Y-96345000D01*
D28*
X49652100Y-91440000D02*
X49827000Y-91440000D01*
X49827000Y-91440000D02*
X49827000Y-91914900D01*
X49827000Y-91914900D02*
X49477100Y-91914900D01*
D29*
X46240000Y-138200000D02*
X46240000Y-129400000D01*
X52470000Y-140820000D02*
X51090000Y-139440000D01*
X46240000Y-129400000D02*
X47930000Y-127710000D01*
X51090000Y-139440000D02*
X47480000Y-139440000D01*
X47480000Y-139440000D02*
X46240000Y-138200000D01*
X88070000Y-134870000D02*
X88070000Y-140360000D01*
X93952000Y-132640000D02*
X90300000Y-132640000D01*
X90300000Y-132640000D02*
X88070000Y-134870000D01*
X51607000Y-116218000D02*
X47930000Y-119895000D01*
X51696600Y-116218000D02*
X51607000Y-116218000D01*
X47930000Y-127710000D02*
X47930000Y-119895000D01*
X58392100Y-109522500D02*
X51696600Y-116218000D01*
X58392100Y-109220000D02*
X58392100Y-109522500D01*
X59933800Y-147025000D02*
X58850000Y-147025000D01*
X58850000Y-147025000D02*
X56575000Y-144750000D01*
X56575000Y-144750000D02*
X54050000Y-144750000D01*
X54050000Y-144750000D02*
X52480000Y-143180000D01*
X52480000Y-143180000D02*
X52470000Y-143180000D01*
X52470000Y-143180000D02*
X52470000Y-140820000D01*
D28*
X59933800Y-153408800D02*
X60025000Y-153500000D01*
X59933800Y-147025000D02*
X59933800Y-153408800D01*
D29*
X123580000Y-155430000D02*
X123580000Y-149980000D01*
X123580000Y-149980000D02*
X125950000Y-147610000D01*
X93952100Y-86920000D02*
X93952000Y-86920000D01*
X85808800Y-95303300D02*
X90142100Y-99636600D01*
X90142100Y-99636600D02*
X90142100Y-104140000D01*
X93952000Y-86920000D02*
X92422100Y-86920000D01*
X90142100Y-123547900D02*
X90142100Y-104140000D01*
X90142100Y-125737900D02*
X90142100Y-123547900D01*
X86520000Y-135940000D02*
X86520000Y-129360000D01*
X86520000Y-129360000D02*
X90142100Y-125737900D01*
X85220000Y-137240000D02*
X86520000Y-135940000D01*
X86608799Y-94503301D02*
X86608799Y-94491201D01*
X85808800Y-95303300D02*
X86608799Y-94503301D01*
X90156033Y-90943967D02*
X90156033Y-89186033D01*
X86608799Y-94491201D02*
X90156033Y-90943967D01*
X92422100Y-86920000D02*
X90156033Y-89186033D01*
X45420000Y-168917400D02*
X45420000Y-164970000D01*
X45633600Y-169131000D02*
X45420000Y-168917400D01*
X51192700Y-174690000D02*
X45633600Y-169131000D01*
X106580000Y-170400000D02*
X102290000Y-174690000D01*
X102290000Y-174690000D02*
X51192700Y-174690000D01*
X117920000Y-159060000D02*
X106580000Y-170400000D01*
X117920000Y-159060000D02*
X119690000Y-159060000D01*
X119690000Y-159060000D02*
X120625000Y-158125000D01*
X120625000Y-158125000D02*
X123580000Y-155430000D01*
D28*
X85220000Y-143930000D02*
X85220000Y-143995000D01*
D29*
X85220000Y-143930000D02*
X85220000Y-137240000D01*
X97725000Y-146625000D02*
X99800000Y-148700000D01*
X85220000Y-143930000D02*
X87915000Y-146625000D01*
X87915000Y-146625000D02*
X97725000Y-146625000D01*
D28*
X54272200Y-161056000D02*
X54272200Y-161281000D01*
X50175000Y-156958800D02*
X50175000Y-156950000D01*
X49865000Y-156648800D02*
X50533100Y-157316900D01*
X49865000Y-153500000D02*
X49865000Y-156648800D01*
X54272200Y-161056000D02*
X50533100Y-157316900D01*
X50533100Y-157316900D02*
X50175000Y-156958800D01*
X54853800Y-148511200D02*
X49865000Y-153500000D01*
X54853800Y-147025000D02*
X54853800Y-148511200D01*
X77442100Y-91440000D02*
X77442100Y-84951400D01*
X77442100Y-83820000D02*
X77442100Y-84951400D01*
X65742100Y-131420000D02*
X65742100Y-146050000D01*
X60871050Y-122283550D02*
X60017300Y-123137300D01*
X60871050Y-107421050D02*
X60871050Y-122283550D01*
X56776600Y-126378000D02*
X60017300Y-123137300D01*
X60871050Y-107421050D02*
X66692100Y-101600000D01*
D29*
X57402300Y-116218000D02*
X56776600Y-116218000D01*
D28*
X48232100Y-109220000D02*
X51202100Y-106250000D01*
X51202100Y-106250000D02*
X53500000Y-106250000D01*
X53500000Y-106250000D02*
X56025000Y-103725000D01*
X56025000Y-101772900D02*
X55852100Y-101600000D01*
X56025000Y-103725000D02*
X56025000Y-101772900D01*
X40718700Y-159511300D02*
X35260000Y-164970000D01*
X40718700Y-157068700D02*
X40718700Y-159511300D01*
X40718700Y-157068700D02*
X40718700Y-153706000D01*
X69355750Y-160925750D02*
X69355750Y-129474250D01*
X61277500Y-169004000D02*
X69355750Y-160925750D01*
X76442100Y-146545500D02*
X82783700Y-152887100D01*
X82783700Y-152887100D02*
X82783700Y-153383000D01*
X76442100Y-146545500D02*
X76442100Y-146050000D01*
X76442100Y-147041000D02*
X76442100Y-146545500D01*
X96875000Y-155200000D02*
X96875000Y-155200000D01*
X90225000Y-155200000D02*
X96875000Y-155200000D01*
X82783700Y-143223000D02*
X82783700Y-147758700D01*
X82783700Y-147758700D02*
X90225000Y-155200000D01*
X84795002Y-168910000D02*
X86630002Y-167075000D01*
X82820000Y-168910000D02*
X84795002Y-168910000D01*
X100925000Y-167075000D02*
X100925000Y-167075000D01*
X89925000Y-167075000D02*
X92000000Y-165000000D01*
X86630002Y-167075000D02*
X89925000Y-167075000D01*
X98500000Y-166000000D02*
X99500000Y-167000000D01*
X99500000Y-167000000D02*
X100925000Y-167075000D01*
X96000000Y-166000000D02*
X95000000Y-165000000D01*
X98500000Y-166000000D02*
X96000000Y-166000000D01*
X92000000Y-165000000D02*
X95000000Y-165000000D01*
X116845000Y-148950000D02*
X118610000Y-148950000D01*
X114920000Y-147025000D02*
X116845000Y-148950000D01*
X121110000Y-146450000D02*
X121150000Y-146450000D01*
X118610000Y-148950000D02*
X121110000Y-146450000D01*
X100525000Y-147025000D02*
X100000000Y-146500000D01*
X100525000Y-147025000D02*
X114920000Y-147025000D01*
X100000000Y-146500000D02*
X100000000Y-146500000D01*
X119352000Y-125020000D02*
X125950000Y-131618000D01*
X125950000Y-131618000D02*
X125950000Y-137450000D01*
X50603100Y-135890000D02*
X52623100Y-133870000D01*
X49502100Y-135890000D02*
X50603100Y-135890000D01*
X52623100Y-133870000D02*
X57130000Y-133870000D01*
X57130000Y-133870000D02*
X57130000Y-133870000D01*
X100680000Y-135680000D02*
X100680000Y-135680000D01*
X107300686Y-134894999D02*
X107305685Y-134890000D01*
X106735001Y-134894999D02*
X107300686Y-134894999D01*
X109482000Y-134890000D02*
X119352000Y-125020000D01*
X107305685Y-134890000D02*
X109482000Y-134890000D01*
X91890000Y-137530000D02*
X90300000Y-137530000D01*
X92940000Y-136480000D02*
X91890000Y-137530000D01*
X95090000Y-136480000D02*
X92940000Y-136480000D01*
X95890000Y-135680000D02*
X95090000Y-136480000D01*
X100680000Y-135680000D02*
X95890000Y-135680000D01*
X103965685Y-148000000D02*
X106765685Y-150800000D01*
X103400000Y-148000000D02*
X103965685Y-148000000D01*
X106765685Y-150800000D02*
X119400000Y-150800000D01*
X119400000Y-150800000D02*
X121400000Y-148800000D01*
X121400000Y-148800000D02*
X122200000Y-148800000D01*
X122200000Y-148800000D02*
X123800000Y-147200000D01*
X123800000Y-147200000D02*
X123800000Y-147200000D01*
X98575000Y-154225000D02*
X113550000Y-154225000D01*
X113550000Y-154225000D02*
X114275000Y-153500000D01*
X119100000Y-153500000D02*
X121150000Y-151450000D01*
X114275000Y-153500000D02*
X119100000Y-153500000D01*
X59933800Y-136865000D02*
X59933800Y-127728300D01*
X59933800Y-127728300D02*
X65742100Y-121920000D01*
X102340000Y-141071600D02*
X102340000Y-142770000D01*
X102334200Y-141065800D02*
X102340000Y-141071600D01*
X102334200Y-136907600D02*
X102334200Y-141065800D01*
X102334200Y-136907600D02*
X102334200Y-114695800D01*
X102334200Y-107295800D02*
X102370000Y-107260000D01*
X102334200Y-107794200D02*
X102334200Y-107365800D01*
X102334200Y-107794200D02*
X102334200Y-107295800D01*
X102334200Y-114695800D02*
X102334200Y-107794200D01*
X102340000Y-142770000D02*
X102340000Y-142770000D01*
X105130400Y-137165300D02*
X105130400Y-143379600D01*
X105130400Y-143379600D02*
X105140000Y-143389200D01*
X105130400Y-137165300D02*
X105130400Y-114789600D01*
X105130400Y-114789600D02*
X105130000Y-114789200D01*
X105130000Y-114789200D02*
X105130000Y-114320000D01*
X105130000Y-114320000D02*
X105130000Y-114320000D01*
X105140000Y-143389200D02*
X105140000Y-143389200D01*
X123275000Y-117147598D02*
X124200000Y-116222598D01*
X123275000Y-124825000D02*
X123275000Y-117147598D01*
X124200000Y-96848000D02*
X119352000Y-92000000D01*
X124200000Y-116222598D02*
X124200000Y-96848000D01*
M02*
